<mxfile host="Electron" agent="Mozilla/5.0 (Macintosh; Intel Mac OS X 10_15_7) AppleWebKit/537.36 (KHTML, like Gecko) draw.io/27.0.9 Chrome/134.0.6998.205 Electron/35.4.0 Safari/537.36" version="27.0.9">
  <diagram name="Page-1" id="najD1dS1eSohTOe5rIie">
    <mxGraphModel dx="819" dy="829" grid="0" gridSize="10" guides="1" tooltips="1" connect="1" arrows="1" fold="1" page="1" pageScale="1" pageWidth="827" pageHeight="583" background="#ffffff" math="0" shadow="0">
      <root>
        <mxCell id="0" />
        <mxCell id="1" parent="0" />
        <mxCell id="LyOnRgsCxliph8Pk22Rh-3" value="&lt;font face=&quot;Tahoma&quot; style=&quot;color: rgb(0, 0, 0); font-size: 19px;&quot;&gt;&lt;b style=&quot;&quot;&gt;Medallion High Level Architecture&lt;/b&gt;&lt;/font&gt;" style="text;html=1;align=center;verticalAlign=middle;whiteSpace=wrap;rounded=0;fontFamily=Architects Daughter;fontSource=https%3A%2F%2Ffonts.googleapis.com%2Fcss%3Ffamily%3DArchitects%2BDaughter;" vertex="1" parent="1">
          <mxGeometry x="10" y="30" width="380" height="30" as="geometry" />
        </mxCell>
        <mxCell id="LyOnRgsCxliph8Pk22Rh-4" value="" style="rounded=0;whiteSpace=wrap;html=1;hachureGap=4;fontFamily=Architects Daughter;fontSource=https%3A%2F%2Ffonts.googleapis.com%2Fcss%3Ffamily%3DArchitects%2BDaughter;fillColor=none;strokeColor=light-dark(#000000,#999999);dashed=1;dashPattern=8 8;" vertex="1" parent="1">
          <mxGeometry x="30" y="120" width="120" height="400" as="geometry" />
        </mxCell>
        <mxCell id="LyOnRgsCxliph8Pk22Rh-5" value="&lt;font face=&quot;Times New Roman&quot; style=&quot;color: rgb(0, 0, 0); font-size: 19px;&quot;&gt;&lt;b&gt;Source&lt;/b&gt;&lt;/font&gt;" style="text;html=1;align=center;verticalAlign=middle;whiteSpace=wrap;rounded=0;fontFamily=Architects Daughter;fontSource=https%3A%2F%2Ffonts.googleapis.com%2Fcss%3Ffamily%3DArchitects%2BDaughter;dashed=1;fillColor=#FFFFFF;" vertex="1" parent="1">
          <mxGeometry x="50" y="105" width="82" height="30" as="geometry" />
        </mxCell>
        <mxCell id="LyOnRgsCxliph8Pk22Rh-6" value="" style="rounded=0;whiteSpace=wrap;html=1;hachureGap=4;fontFamily=Architects Daughter;fontSource=https%3A%2F%2Ffonts.googleapis.com%2Fcss%3Ffamily%3DArchitects%2BDaughter;fillColor=none;dashed=1;dashPattern=8 8;strokeColor=light-dark(#000000,#999999);" vertex="1" parent="1">
          <mxGeometry x="170" y="120" width="460" height="400" as="geometry" />
        </mxCell>
        <UserObject label="" id="LyOnRgsCxliph8Pk22Rh-7">
          <mxCell style="rounded=0;whiteSpace=wrap;html=1;hachureGap=4;fontFamily=Architects Daughter;fontSource=https%3A%2F%2Ffonts.googleapis.com%2Fcss%3Ffamily%3DArchitects%2BDaughter;fillColor=none;strokeColor=light-dark(#000000,#999999);dashed=1;dashPattern=8 8;imageBackground=light-dark(default, #1b1d1e);" vertex="1" parent="1">
            <mxGeometry x="653" y="120" width="120" height="400" as="geometry" />
          </mxCell>
        </UserObject>
        <mxCell id="LyOnRgsCxliph8Pk22Rh-8" value="&lt;font face=&quot;Times New Roman&quot; color=&quot;#000000&quot;&gt;&lt;span style=&quot;font-size: 19px;&quot;&gt;&lt;b&gt;Consume&lt;/b&gt;&lt;/span&gt;&lt;/font&gt;" style="text;html=1;align=center;verticalAlign=middle;whiteSpace=wrap;rounded=0;fontFamily=Architects Daughter;fontSource=https%3A%2F%2Ffonts.googleapis.com%2Fcss%3Ffamily%3DArchitects%2BDaughter;dashed=1;fillColor=#FFFFFF;" vertex="1" parent="1">
          <mxGeometry x="673" y="105" width="82" height="30" as="geometry" />
        </mxCell>
        <mxCell id="LyOnRgsCxliph8Pk22Rh-9" value="&lt;font face=&quot;Times New Roman&quot; style=&quot;color: rgb(0, 0, 0); font-size: 19px;&quot;&gt;&lt;b&gt;Data Warehouse&lt;/b&gt;&lt;/font&gt;" style="text;html=1;align=center;verticalAlign=middle;whiteSpace=wrap;rounded=0;fontFamily=Architects Daughter;fontSource=https%3A%2F%2Ffonts.googleapis.com%2Fcss%3Ffamily%3DArchitects%2BDaughter;dashed=1;fillColor=#FFFFFF;" vertex="1" parent="1">
          <mxGeometry x="340" y="104" width="160" height="30" as="geometry" />
        </mxCell>
        <mxCell id="LyOnRgsCxliph8Pk22Rh-10" value="&lt;font face=&quot;Times New Roman&quot; style=&quot;color: rgb(0, 0, 0); font-size: 19px;&quot;&gt;&lt;b&gt;Bronze&lt;/b&gt;&lt;/font&gt;" style="text;html=1;align=center;verticalAlign=middle;whiteSpace=wrap;rounded=0;fontFamily=Architects Daughter;fontSource=https%3A%2F%2Ffonts.googleapis.com%2Fcss%3Ffamily%3DArchitects%2BDaughter;fillColor=#FFCE9F;strokeColor=#FFB570;strokeWidth=3;" vertex="1" parent="1">
          <mxGeometry x="190" y="150" width="120" height="30" as="geometry" />
        </mxCell>
        <mxCell id="LyOnRgsCxliph8Pk22Rh-11" value="&lt;font face=&quot;Times New Roman&quot; color=&quot;#000000&quot;&gt;&lt;span style=&quot;font-size: 19px;&quot;&gt;&lt;b&gt;Silver&lt;/b&gt;&lt;/span&gt;&lt;/font&gt;" style="text;html=1;align=center;verticalAlign=middle;whiteSpace=wrap;rounded=0;fontFamily=Architects Daughter;fontSource=https%3A%2F%2Ffonts.googleapis.com%2Fcss%3Ffamily%3DArchitects%2BDaughter;fillColor=#CCCCCC;strokeColor=#999999;strokeWidth=3;" vertex="1" parent="1">
          <mxGeometry x="340" y="150" width="120" height="30" as="geometry" />
        </mxCell>
        <mxCell id="LyOnRgsCxliph8Pk22Rh-12" value="&lt;font face=&quot;Times New Roman&quot; style=&quot;color: rgb(0, 0, 0); font-size: 19px;&quot;&gt;&lt;b&gt;Gold&lt;/b&gt;&lt;/font&gt;" style="text;html=1;align=center;verticalAlign=middle;whiteSpace=wrap;rounded=0;fontFamily=Architects Daughter;fontSource=https%3A%2F%2Ffonts.googleapis.com%2Fcss%3Ffamily%3DArchitects%2BDaughter;fillColor=#FFE599;fillStyle=auto;strokeColor=#FFD966;strokeWidth=3;" vertex="1" parent="1">
          <mxGeometry x="490" y="150" width="120" height="30" as="geometry" />
        </mxCell>
        <mxCell id="LyOnRgsCxliph8Pk22Rh-13" value="" style="rounded=0;whiteSpace=wrap;html=1;hachureGap=4;fontFamily=Architects Daughter;fontSource=https%3A%2F%2Ffonts.googleapis.com%2Fcss%3Ffamily%3DArchitects%2BDaughter;fillColor=none;strokeColor=#FFCE9F;strokeWidth=2;" vertex="1" parent="1">
          <mxGeometry x="190" y="190" width="120" height="320" as="geometry" />
        </mxCell>
        <mxCell id="LyOnRgsCxliph8Pk22Rh-14" value="" style="rounded=0;whiteSpace=wrap;html=1;hachureGap=4;fontFamily=Architects Daughter;fontSource=https%3A%2F%2Ffonts.googleapis.com%2Fcss%3Ffamily%3DArchitects%2BDaughter;fillColor=none;strokeColor=#B3B3B3;strokeWidth=2;" vertex="1" parent="1">
          <mxGeometry x="340" y="190" width="120" height="320" as="geometry" />
        </mxCell>
        <mxCell id="LyOnRgsCxliph8Pk22Rh-15" value="" style="rounded=0;whiteSpace=wrap;html=1;hachureGap=4;fontFamily=Architects Daughter;fontSource=https%3A%2F%2Ffonts.googleapis.com%2Fcss%3Ffamily%3DArchitects%2BDaughter;fillColor=none;strokeColor=#FFE599;strokeWidth=2;fontStyle=1" vertex="1" parent="1">
          <mxGeometry x="490" y="190" width="120" height="320" as="geometry" />
        </mxCell>
        <mxCell id="LyOnRgsCxliph8Pk22Rh-16" value="" style="html=1;verticalLabelPosition=bottom;align=center;labelBackgroundColor=#ffffff;verticalAlign=top;strokeWidth=2;strokeColor=#FFB570;shadow=0;dashed=0;shape=mxgraph.ios7.icons.data;fillColor=#FFCE9F;" vertex="1" parent="1">
          <mxGeometry x="225" y="210" width="50" height="50" as="geometry" />
        </mxCell>
        <mxCell id="LyOnRgsCxliph8Pk22Rh-17" value="" style="html=1;verticalLabelPosition=bottom;align=center;labelBackgroundColor=#ffffff;verticalAlign=top;strokeWidth=2;strokeColor=#808080;shadow=0;dashed=0;shape=mxgraph.ios7.icons.data;fillColor=#CCCCCC;" vertex="1" parent="1">
          <mxGeometry x="375" y="210" width="50" height="50" as="geometry" />
        </mxCell>
        <mxCell id="LyOnRgsCxliph8Pk22Rh-18" value="" style="html=1;verticalLabelPosition=bottom;align=center;labelBackgroundColor=#ffffff;verticalAlign=top;strokeWidth=2;strokeColor=#FFD966;shadow=0;dashed=0;shape=mxgraph.ios7.icons.data;fillColor=#FFE599;" vertex="1" parent="1">
          <mxGeometry x="525" y="210" width="50" height="50" as="geometry" />
        </mxCell>
        <mxCell id="LyOnRgsCxliph8Pk22Rh-19" value="&lt;font style=&quot;color: rgb(0, 0, 0); font-size: 11px;&quot;&gt;Raw Data&lt;/font&gt;" style="text;html=1;align=center;verticalAlign=middle;whiteSpace=wrap;rounded=0;fontColor=#000000;" vertex="1" parent="1">
          <mxGeometry x="190" y="265" width="120" height="30" as="geometry" />
        </mxCell>
        <mxCell id="LyOnRgsCxliph8Pk22Rh-20" value="&lt;font style=&quot;color: rgb(0, 0, 0); font-size: 11px;&quot;&gt;Cleaning Standardized Data&lt;/font&gt;" style="text;html=1;align=center;verticalAlign=middle;whiteSpace=wrap;rounded=0;fontColor=#000000;" vertex="1" parent="1">
          <mxGeometry x="340" y="265" width="120" height="30" as="geometry" />
        </mxCell>
        <mxCell id="LyOnRgsCxliph8Pk22Rh-21" value="&lt;font style=&quot;color: rgb(0, 0, 0); font-size: 11px;&quot;&gt;Business-Ready Data&lt;/font&gt;" style="text;html=1;align=center;verticalAlign=middle;whiteSpace=wrap;rounded=0;fontColor=#000000;" vertex="1" parent="1">
          <mxGeometry x="490" y="262" width="120" height="30" as="geometry" />
        </mxCell>
        <mxCell id="LyOnRgsCxliph8Pk22Rh-22" value="&lt;font style=&quot;color: rgb(0, 0, 0); font-size: 9px;&quot;&gt;&lt;b style=&quot;&quot;&gt;Object Type: &lt;/b&gt;Tables&lt;/font&gt;" style="text;html=1;align=left;verticalAlign=middle;whiteSpace=wrap;rounded=0;fontSize=11;" vertex="1" parent="1">
          <mxGeometry x="199" y="310" width="100" height="20" as="geometry" />
        </mxCell>
        <mxCell id="LyOnRgsCxliph8Pk22Rh-23" value="&lt;font style=&quot;color: rgb(0, 0, 0); font-size: 9px;&quot;&gt;&lt;b style=&quot;&quot;&gt;Object Type: &lt;/b&gt;Tables&lt;/font&gt;" style="text;html=1;align=left;verticalAlign=middle;whiteSpace=wrap;rounded=0;fontSize=11;" vertex="1" parent="1">
          <mxGeometry x="350" y="310" width="100" height="20" as="geometry" />
        </mxCell>
        <mxCell id="LyOnRgsCxliph8Pk22Rh-24" value="&lt;font style=&quot;color: rgb(0, 0, 0); font-size: 9px;&quot;&gt;&lt;b style=&quot;&quot;&gt;Object Type: &lt;/b&gt;Tables&lt;/font&gt;" style="text;html=1;align=left;verticalAlign=middle;whiteSpace=wrap;rounded=0;fontSize=11;" vertex="1" parent="1">
          <mxGeometry x="500" y="310" width="100" height="20" as="geometry" />
        </mxCell>
        <mxCell id="LyOnRgsCxliph8Pk22Rh-28" value="&lt;font style=&quot;font-size: 9px;&quot;&gt;&lt;b style=&quot;background-color: transparent; color: rgb(0, 0, 0);&quot;&gt;Load:&lt;/b&gt;&lt;br&gt;&lt;span style=&quot;color: rgb(0, 0, 0); background-color: transparent;&quot;&gt;&amp;nbsp; &amp;nbsp; &amp;nbsp;- Batch Processing&lt;/span&gt;&lt;br&gt;&lt;span style=&quot;color: rgb(0, 0, 0); background-color: transparent;&quot;&gt;&amp;nbsp; &amp;nbsp; &amp;nbsp;- Full Load&lt;/span&gt;&lt;br&gt;&lt;span style=&quot;color: rgb(0, 0, 0); background-color: transparent;&quot;&gt;&amp;nbsp; &amp;nbsp; &amp;nbsp;- Truncate &amp;amp; Insert&lt;/span&gt;&lt;/font&gt;" style="text;html=1;align=left;verticalAlign=middle;whiteSpace=wrap;rounded=0;" vertex="1" parent="1">
          <mxGeometry x="200" y="331.5" width="100" height="62" as="geometry" />
        </mxCell>
        <mxCell id="LyOnRgsCxliph8Pk22Rh-29" value="&lt;font style=&quot;font-size: 9px;&quot; color=&quot;#000000&quot;&gt;No&lt;b style=&quot;&quot;&gt; Transformations&lt;/b&gt;&lt;/font&gt;" style="text;html=1;align=left;verticalAlign=middle;whiteSpace=wrap;rounded=0;fontSize=11;" vertex="1" parent="1">
          <mxGeometry x="200" y="399" width="100" height="20" as="geometry" />
        </mxCell>
        <mxCell id="LyOnRgsCxliph8Pk22Rh-30" value="&lt;font style=&quot;color: rgb(0, 0, 0); font-size: 9px;&quot;&gt;&lt;b style=&quot;&quot;&gt;Data Model: &lt;/b&gt;None (as-is)&lt;/font&gt;" style="text;html=1;align=left;verticalAlign=middle;whiteSpace=wrap;rounded=0;fontSize=11;" vertex="1" parent="1">
          <mxGeometry x="200" y="423" width="110" height="20" as="geometry" />
        </mxCell>
        <mxCell id="LyOnRgsCxliph8Pk22Rh-31" value="&lt;font style=&quot;font-size: 9px;&quot;&gt;&lt;b style=&quot;background-color: transparent; color: rgb(0, 0, 0);&quot;&gt;Load:&lt;/b&gt;&lt;br&gt;&lt;span style=&quot;color: rgb(0, 0, 0); background-color: transparent;&quot;&gt;&amp;nbsp; &amp;nbsp; &amp;nbsp;- Batch Processing&lt;/span&gt;&lt;br&gt;&lt;span style=&quot;color: rgb(0, 0, 0); background-color: transparent;&quot;&gt;&amp;nbsp; &amp;nbsp; &amp;nbsp;- Full Load&lt;/span&gt;&lt;br&gt;&lt;span style=&quot;color: rgb(0, 0, 0); background-color: transparent;&quot;&gt;&amp;nbsp; &amp;nbsp; &amp;nbsp;- Truncate &amp;amp; Insert&lt;/span&gt;&lt;/font&gt;" style="text;html=1;align=left;verticalAlign=middle;whiteSpace=wrap;rounded=0;" vertex="1" parent="1">
          <mxGeometry x="350" y="329" width="100" height="67" as="geometry" />
        </mxCell>
        <mxCell id="LyOnRgsCxliph8Pk22Rh-32" value="&lt;font style=&quot;font-size: 9px;&quot;&gt;&lt;b style=&quot;background-color: transparent; color: rgb(0, 0, 0);&quot;&gt;Transformations:&lt;/b&gt;&lt;br&gt;&lt;span style=&quot;color: rgb(0, 0, 0); background-color: transparent;&quot;&gt;&amp;nbsp; &amp;nbsp; &amp;nbsp;- Data Cleansing&lt;/span&gt;&lt;br&gt;&lt;span style=&quot;color: rgb(0, 0, 0); background-color: transparent;&quot;&gt;&amp;nbsp; &amp;nbsp; &amp;nbsp;- Data Standardization&amp;nbsp;&lt;/span&gt;&lt;br&gt;&lt;span style=&quot;color: rgb(0, 0, 0); background-color: transparent;&quot;&gt;&amp;nbsp; &amp;nbsp; &amp;nbsp;- Data Normalization&lt;/span&gt;&lt;/font&gt;&lt;div&gt;&lt;font style=&quot;font-size: 9px;&quot; color=&quot;#000000&quot;&gt;&amp;nbsp; &amp;nbsp; &amp;nbsp;- Derived Columns&lt;/font&gt;&lt;/div&gt;&lt;div&gt;&lt;font style=&quot;font-size: 9px;&quot; color=&quot;#000000&quot;&gt;&amp;nbsp; &amp;nbsp; &amp;nbsp;- Data Enrichment&lt;br&gt;&lt;/font&gt;&lt;div&gt;&lt;font style=&quot;font-size: 9px;&quot;&gt;&lt;span style=&quot;color: rgb(0, 0, 0); background-color: transparent;&quot;&gt;&lt;br&gt;&lt;/span&gt;&lt;/font&gt;&lt;/div&gt;&lt;/div&gt;" style="text;html=1;align=left;verticalAlign=middle;whiteSpace=wrap;rounded=0;" vertex="1" parent="1">
          <mxGeometry x="350" y="399" width="110" height="91" as="geometry" />
        </mxCell>
        <mxCell id="LyOnRgsCxliph8Pk22Rh-33" value="&lt;font style=&quot;color: rgb(0, 0, 0); font-size: 9px;&quot;&gt;&lt;b style=&quot;&quot;&gt;Data Model: &lt;/b&gt;None (as-is)&lt;/font&gt;" style="text;html=1;align=left;verticalAlign=middle;whiteSpace=wrap;rounded=0;fontSize=11;" vertex="1" parent="1">
          <mxGeometry x="350" y="483" width="110" height="20" as="geometry" />
        </mxCell>
        <mxCell id="LyOnRgsCxliph8Pk22Rh-35" value="&lt;font style=&quot;font-size: 9px;&quot; color=&quot;#000000&quot;&gt;No&lt;b&gt; Load&lt;/b&gt;&lt;/font&gt;" style="text;html=1;align=left;verticalAlign=middle;whiteSpace=wrap;rounded=0;fontSize=11;" vertex="1" parent="1">
          <mxGeometry x="500" y="337" width="100" height="20" as="geometry" />
        </mxCell>
        <mxCell id="LyOnRgsCxliph8Pk22Rh-36" value="&lt;font style=&quot;font-size: 9px;&quot;&gt;&lt;b style=&quot;background-color: transparent; color: rgb(0, 0, 0);&quot;&gt;Transformations:&lt;/b&gt;&lt;br&gt;&lt;span style=&quot;color: rgb(0, 0, 0); background-color: transparent;&quot;&gt;&amp;nbsp; &amp;nbsp; &amp;nbsp;- Data Integrations&lt;/span&gt;&lt;br&gt;&lt;span style=&quot;color: rgb(0, 0, 0); background-color: transparent;&quot;&gt;&amp;nbsp; &amp;nbsp; &amp;nbsp;- Aggregations&lt;/span&gt;&lt;br&gt;&lt;span style=&quot;color: rgb(0, 0, 0); background-color: transparent;&quot;&gt;&amp;nbsp; &amp;nbsp; &amp;nbsp;- Business Logics&lt;/span&gt;&lt;/font&gt;&lt;div&gt;&lt;div&gt;&lt;font style=&quot;font-size: 9px;&quot;&gt;&lt;span style=&quot;color: rgb(0, 0, 0); background-color: transparent;&quot;&gt;&lt;br&gt;&lt;/span&gt;&lt;/font&gt;&lt;/div&gt;&lt;/div&gt;" style="text;html=1;align=left;verticalAlign=middle;whiteSpace=wrap;rounded=0;" vertex="1" parent="1">
          <mxGeometry x="500" y="370" width="110" height="59" as="geometry" />
        </mxCell>
        <mxCell id="LyOnRgsCxliph8Pk22Rh-38" value="&lt;font style=&quot;color: rgb(0, 0, 0);&quot;&gt;&lt;b style=&quot;&quot;&gt;Data Model:&lt;/b&gt;&lt;/font&gt;&lt;div&gt;&lt;font style=&quot;color: rgb(0, 0, 0);&quot;&gt;&amp;nbsp; &amp;nbsp; &amp;nbsp;- Star Schema&lt;/font&gt;&lt;/div&gt;&lt;div&gt;&lt;font style=&quot;color: rgb(0, 0, 0);&quot;&gt;&amp;nbsp; &amp;nbsp; &amp;nbsp;- Flat Table&lt;/font&gt;&lt;/div&gt;&lt;div&gt;&lt;font style=&quot;color: rgb(0, 0, 0);&quot;&gt;&amp;nbsp; &amp;nbsp; &amp;nbsp;- Aggregated Table&lt;/font&gt;&lt;/div&gt;" style="text;html=1;align=left;verticalAlign=middle;whiteSpace=wrap;rounded=0;fontSize=9;" vertex="1" parent="1">
          <mxGeometry x="500" y="430.5" width="110" height="50.5" as="geometry" />
        </mxCell>
        <mxCell id="LyOnRgsCxliph8Pk22Rh-39" value="" style="shape=flexArrow;endArrow=classic;html=1;rounded=0;endWidth=15.833333333333334;endSize=7.916666666666667;width=15;fillColor=#cce5ff;strokeColor=#36393d;" edge="1" parent="1">
          <mxGeometry width="50" height="50" relative="1" as="geometry">
            <mxPoint x="130" y="259.16999999999996" as="sourcePoint" />
            <mxPoint x="200" y="259.16999999999996" as="targetPoint" />
          </mxGeometry>
        </mxCell>
        <mxCell id="LyOnRgsCxliph8Pk22Rh-41" value="" style="shape=flexArrow;endArrow=classic;html=1;rounded=0;endWidth=15;endSize=9.975000000000001;width=15;fillColor=#cce5ff;strokeColor=#36393d;exitX=1;exitY=0.5;exitDx=0;exitDy=0;" edge="1" parent="1">
          <mxGeometry width="50" height="50" relative="1" as="geometry">
            <mxPoint x="290" y="259.58" as="sourcePoint" />
            <mxPoint x="350" y="259.58" as="targetPoint" />
          </mxGeometry>
        </mxCell>
        <mxCell id="LyOnRgsCxliph8Pk22Rh-44" value="" style="shape=flexArrow;endArrow=classic;html=1;rounded=0;endWidth=15;endSize=9.975000000000001;width=15;fillColor=#cce5ff;strokeColor=#36393d;exitX=1;exitY=0.5;exitDx=0;exitDy=0;" edge="1" parent="1">
          <mxGeometry width="50" height="50" relative="1" as="geometry">
            <mxPoint x="440" y="259.58" as="sourcePoint" />
            <mxPoint x="500" y="259.58" as="targetPoint" />
          </mxGeometry>
        </mxCell>
        <mxCell id="LyOnRgsCxliph8Pk22Rh-45" value="" style="image;aspect=fixed;html=1;points=[];align=center;fontSize=12;image=img/lib/azure2/general/Folder_Blank.svg;" vertex="1" parent="1">
          <mxGeometry x="63" y="200" width="49.29" height="40" as="geometry" />
        </mxCell>
        <mxCell id="LyOnRgsCxliph8Pk22Rh-46" value="" style="image;aspect=fixed;html=1;points=[];align=center;fontSize=12;image=img/lib/azure2/general/Folder_Blank.svg;" vertex="1" parent="1">
          <mxGeometry x="63.01" y="276" width="49.28" height="40" as="geometry" />
        </mxCell>
        <mxCell id="LyOnRgsCxliph8Pk22Rh-47" value="" style="shape=flexArrow;endArrow=classic;html=1;rounded=0;endWidth=15.833333333333334;endSize=7.916666666666667;width=15;fillColor=#cce5ff;strokeColor=#36393d;" edge="1" parent="1">
          <mxGeometry width="50" height="50" relative="1" as="geometry">
            <mxPoint x="601" y="259.17" as="sourcePoint" />
            <mxPoint x="671" y="259.17" as="targetPoint" />
          </mxGeometry>
        </mxCell>
        <mxCell id="LyOnRgsCxliph8Pk22Rh-51" value="" style="sketch=0;outlineConnect=0;fontColor=#232F3E;gradientColor=none;fillColor=#000000;strokeColor=none;dashed=0;verticalLabelPosition=bottom;verticalAlign=top;align=center;html=1;fontSize=12;fontStyle=0;aspect=fixed;pointerEvents=1;shape=mxgraph.aws4.document;strokeWidth=15;fillOpacity=100;strokeOpacity=100;" vertex="1" parent="1">
          <mxGeometry x="103" y="296.42" width="17.23" height="23.58" as="geometry" />
        </mxCell>
        <mxCell id="LyOnRgsCxliph8Pk22Rh-52" value="" style="sketch=0;outlineConnect=0;fontColor=#232F3E;gradientColor=none;fillColor=#000000;strokeColor=none;dashed=0;verticalLabelPosition=bottom;verticalAlign=top;align=center;html=1;fontSize=12;fontStyle=0;aspect=fixed;pointerEvents=1;shape=mxgraph.aws4.document;strokeWidth=15;fillOpacity=100;strokeOpacity=100;" vertex="1" parent="1">
          <mxGeometry x="103" y="220" width="17.23" height="23.58" as="geometry" />
        </mxCell>
        <mxCell id="LyOnRgsCxliph8Pk22Rh-53" value="&lt;font style=&quot;color: rgb(0, 0, 0); font-size: 9px;&quot;&gt;&lt;b style=&quot;&quot;&gt;Object Type: &lt;/b&gt;Tables&lt;/font&gt;" style="text;html=1;align=left;verticalAlign=middle;whiteSpace=wrap;rounded=0;fontSize=11;" vertex="1" parent="1">
          <mxGeometry x="40" y="396.5" width="100" height="20" as="geometry" />
        </mxCell>
        <mxCell id="LyOnRgsCxliph8Pk22Rh-54" value="&lt;font style=&quot;color: rgb(0, 0, 0); font-size: 9px;&quot;&gt;&lt;b style=&quot;&quot;&gt;Interface: &lt;/b&gt;Files in Folders&lt;/font&gt;" style="text;html=1;align=left;verticalAlign=middle;whiteSpace=wrap;rounded=0;fontSize=11;" vertex="1" parent="1">
          <mxGeometry x="41" y="421" width="109" height="20" as="geometry" />
        </mxCell>
        <mxCell id="LyOnRgsCxliph8Pk22Rh-55" value="&lt;font style=&quot;color: rgb(0, 0, 0);&quot;&gt;CRM&lt;/font&gt;" style="text;html=1;align=center;verticalAlign=middle;whiteSpace=wrap;rounded=0;" vertex="1" parent="1">
          <mxGeometry x="59" y="235" width="60" height="30" as="geometry" />
        </mxCell>
        <mxCell id="LyOnRgsCxliph8Pk22Rh-56" value="&lt;font color=&quot;#000000&quot;&gt;ERP&lt;/font&gt;" style="text;html=1;align=center;verticalAlign=middle;whiteSpace=wrap;rounded=0;" vertex="1" parent="1">
          <mxGeometry x="60" y="316" width="60" height="30" as="geometry" />
        </mxCell>
        <mxCell id="LyOnRgsCxliph8Pk22Rh-57" value="" style="line;strokeWidth=2;html=1;strokeColor=#B3B3B3;" vertex="1" parent="1">
          <mxGeometry x="41.5" y="360" width="104.5" height="10" as="geometry" />
        </mxCell>
        <mxCell id="LyOnRgsCxliph8Pk22Rh-58" value="" style="line;strokeWidth=2;html=1;strokeColor=#B3B3B3;" vertex="1" parent="1">
          <mxGeometry x="200" y="296.42" width="104.5" height="10" as="geometry" />
        </mxCell>
        <mxCell id="LyOnRgsCxliph8Pk22Rh-59" value="" style="line;strokeWidth=2;html=1;strokeColor=#B3B3B3;" vertex="1" parent="1">
          <mxGeometry x="350" y="296.42" width="104.5" height="10" as="geometry" />
        </mxCell>
        <mxCell id="LyOnRgsCxliph8Pk22Rh-60" value="" style="line;strokeWidth=2;html=1;strokeColor=#B3B3B3;" vertex="1" parent="1">
          <mxGeometry x="497.75" y="295" width="104.5" height="10" as="geometry" />
        </mxCell>
        <mxCell id="LyOnRgsCxliph8Pk22Rh-63" value="" style="image;aspect=fixed;html=1;points=[];align=center;fontSize=12;image=img/lib/azure2/power_platform/PowerBI.svg;" vertex="1" parent="1">
          <mxGeometry x="674" y="180" width="36.5" height="48.67" as="geometry" />
        </mxCell>
        <mxCell id="LyOnRgsCxliph8Pk22Rh-64" value="" style="shape=image;imageAspect=0;aspect=fixed;verticalLabelPosition=bottom;verticalAlign=top;image=https://is1-ssl.mzstatic.com/image/thumb/Purple221/v4/f6/99/c9/f699c969-345d-3363-8e99-47cf64ce74d9/TableauAppIcon-0-0-1x_U007emarketing-0-8-0-85-220.png/492x0w.webp;" vertex="1" parent="1">
          <mxGeometry x="715" y="180.67000000000002" width="48" height="48" as="geometry" />
        </mxCell>
        <mxCell id="LyOnRgsCxliph8Pk22Rh-65" value="&lt;font style=&quot;color: rgb(0, 0, 0);&quot;&gt;BI &amp;amp; Reporting&lt;/font&gt;" style="text;html=1;align=center;verticalAlign=middle;whiteSpace=wrap;rounded=0;" vertex="1" parent="1">
          <mxGeometry x="672" y="232" width="90" height="30" as="geometry" />
        </mxCell>
        <mxCell id="LyOnRgsCxliph8Pk22Rh-68" value="" style="shape=image;verticalLabelPosition=bottom;labelBackgroundColor=default;verticalAlign=top;aspect=fixed;imageAspect=0;image=https://cdn.prod.website-files.com/601064f495f4b4967f921aa9/632b60f8c1aa184a0e5766d9_202209-ms-sql-icon-3x.png;imageBackground=none;" vertex="1" parent="1">
          <mxGeometry x="169" y="78.72" width="130" height="38.57" as="geometry" />
        </mxCell>
        <mxCell id="LyOnRgsCxliph8Pk22Rh-71" value="" style="shape=image;verticalLabelPosition=bottom;labelBackgroundColor=default;verticalAlign=top;aspect=fixed;imageAspect=0;image=data:image/png,iVBORw0KGgoAAAANSUhEUgAAAgAAAAIACAYAAAD0eNT6AAAAAXNSR0IArs4c6QAAAERlWElmTU0AKgAAAAgAAYdpAAQAAAABAAAAGgAAAAAAA6ABAAMAAAABAAEAAKACAAQAAAABAAACAKADAAQAAAABAAACAAAAAAAL+LWFAABAAElEQVR4Ae2dB7gsRbW2DznnHIRDElEkgyCIBDGgqCBgRkDFLGLi+hvYYgLxKmDOgAiKggQRFBBEBEWSIDkccs4gGfy/D/bcs88+E7q7qkN1v+t5vj17Zrqq1nqrpru6urp6likYBNImMLvcX1paQVpMWlhaqM/rIuOfzaJX/98zv3eafnbf+IcP6/VJ6XHpEekp6Z5x3Tvp/7v13vL3TodBAAIQaCQB7/wwCDSZgA/qq0urSMtJy0o+2C8jLS/54D+r1ERzB+JG6Qbp+gn/9z67Q59hEIAABGohQAegFuwUOomAz+J9UF9ZepH0wvH//d5qqz2hwK6RLpUum/B6uf5/RsIgAAEIlEaADkBpaMl4AIG59Pla0vrSBuOvPujPIWHPEfBlBncC3DG4RPqHdL7kzzEIQAACUQjQAYiCkUwGEJhNn/tgv6HUO+C/WP9zsBeEnOZ5B/+W/i65Q3CudIXESIEgYBCAQH4CdADyMyPFYAI+4K8nvXxcL9OrJ+Rh5RB4QNn+UzpLOk1yx8CTFTEIQAACIwnQARiJiA2GEPABfx1pM2lT6RXSxBn2eotVSMCXCM6WTh3XhXplhEAQMAhAYGYCdABmZsInwwksqq9fLb1u/JUD/nBedX57pwr/s+TRgROl2yQMAhCAwLME6ADQELIQ8Ez87SQf9D28zzV8QUjQfKfBb6SjJP+PQQACHSZAB6DDlT8kdLeLl0o7Sj7oryph7SLgDsCx4zpPr/9tV3hEAwEIjCJAB2AUoW597xn7b5PeIq3YrdA7He3Niv4Y6XDJkwoxCECgAwToAHSgkkeEuIK+317aRfIMfqzbBHxr4a+lw6Truo2C6CEAAQi0j4DXvv+I5HvKPfSLYDC5DTytdnG6tJu0oIRBAAIQgEDCBDaW7z+XfLvY5B0+72EyqA24vRwhbSUxaigIGAQgAIEUCPjsbQ/J94QP2sHzOWyytoEr1Y72lrj9UxAwCEAAAk0k4HX2fyw9LGXdubMdrLK2gQfUrr4jrSFhEIBAggQYzkuw0oa4PKu+8217n5K8Ol9X7CEFeod0t3TPhNe79L/1oOQD1jOSH9HrV7/3+vpOO8g8V6L3G/FIygLSxFd/78+83LEfU7y05EcW+3VuqQvmDsOfpe9Kx0ueO4BBAAIJEOjt3BJwFReHEPAT9t4pfUJ6wZDtUv3qXjl+/bhuGH+dptfe/z7AN80Wk0PuCLhjsLy0muT1FHqv8+v/tpnr5ADp59JjbQuOeCDQNgJ0ANKuUV+H/YDkGf0+2KRuPju/tI98dt82c8eg1xlwp20dybdhLiqlbrcrgG9KP5CGjbCkHif+QyBpAnQA0qw+n1F+Unq3lOqZpIfm/zGuf+r139ItUtdtBQFYV3KHoPe6YqJQ3KHzPIGDJV+ewSAAAQhAoCCBpZTuQOlR6b8J6XH5+nfpIMkrDa4iYdkJuN53kL4lnSf5kb8p1f/D8tcjAp4fgUEAAhCAQA4Cvp68n+QdaQo7fk+uO1f6mrSNNI+ExSPgiYevlPaVzpBS6RDaz/+V3J4xCEAAAhAYQsDD+3tLHkpt+oH/Wvn4Q2knqQ3XsRVGMuYO1iskdxL9kJ+mtxXPC7CvvqMCgwAEIACBCQTm0/+fke6Rmroz9zD0adJHpRUlrDkEVpcrH5P+KDV5dOBW+fd+aQ4JgwAEINBpAp6U+XbpJqmJB/7/yK+jpV0kzvIFIQGbVz7uKB0luf6a2K6ukl87S0xKFgQMAhDoHoGNFPI5UtN20D5o/FJ6vcS1fEFI2NwZ8IH2N9IjUtPamu8G2UTCIAABCHSCgO8HP1Ty6nRN2SF7NbdTpHdJnnCGtY+ALzO9WTpGelxqStvz7+Bn0pISBgEIQKCVBOZUVHtKD0hN2fleKl/GpKkS1h0CiyjUPaSLpKa0RU989e9jdgmDAAQg0BoCr1Mk10lN2Nl6RrZXbPPCMxgEPAT/E+lBqQnt80L5samEQQACEEiagIc1j5SasGO9TH58WFpIwiAwmYBvQd1d8noOdbdXXxY4RFpKwiAAAQgkR2AXeXy3VOfO9AmV7wlgW0rMuBYELBMBn4H/VvICT3W2X18W2FXCIAABCCRBYCV56fux69xx3q/yvSqfJxxiEChKYKoSflOqe97KifLBz8PAIAABCDSSwGzyai+pzuV7vdDKp6UFJQwCsQi4PXmhIa/+WFfH1p1aX6LAIAABCDSKwAvkjZ90V9fO0QureFb3XBIGgbIIeIa+L21dKdXV1k9S2YwGCAIGAQjUT+B9cqGuFdc8Y3onadb6MeBBhwh4tOudUl0dAY8GvFtiXosgYBCAQPUEllCRx0l1nAldoXJ3ltgBCgJWGwF3BN4huT3W8Tvw3ADfaYNBAAIQqIzAq1TSbVLVO70bVKbPfFgsRRCwxhBwR8DPtLhaqvo34XkvW0kYBCAAgVIJzK3c/VhTL51b5Y7uLpW3t+TyMQg0lYCf8ue5KHdIVf4+vG7AQRJPGRQEDAIQiE9gTWV5sVTljs13FHxB8iItGARSIbCIHP2G9JhU5e/lryrveRIGAQhAIBqBtyqnqm/vO0FlrhgtAjKCQPUEVlCRh0k+Q6+qI+AJgp4fg0EAAhAIIuAhxQOlqnZeLscz+18mYRBoC4FNFMjfpap+R+5wHCxxW6wgYBCAQH4CnuV/mlTVTuselbWn5AlVGATaRsB3rOwi3S1V9Zs6W2UtI2EQgAAEMhPwWui3SFXsqDyh8NuSr5tiEGg7gaUV4C+lKn5bLuNmaUMJgwAEIDCSgGcxPy5VsYPybVMvH+kRG0CgfQTc7i+TqvideTLirhIGAQhAoC8BXy/0hKUqdkh+St+XJK5RCgLWWQK+rfWLUlV3C/jOBC6xdba5ETgE+hNYTB//Vari4H+eylm7vxt8CoFOEnihov6nVMXv72SVw+W2TjYzgobAzARW1UdXSmXvfB5RGZ+WWMVPEDAITCLgO27GpCelsn+LfnjWGhIGAQh0mMBLFbtX2St7h+Oz/tU7zJnQIZCVwAbasIq5AfeqHG63zVorbAeBlhF4k+LxWXmZB3/fj+wlSueUMAhAIBsBzw3YT/IdMmX+Pj33YGcJgwAEOkTA6+qXvTqZbz/iISUdalSEGp3AFsrxeqnMTsBTyv+DEgYBCLScgGcA/1Aqc4fivI+RPLEQgwAEwgh4wt5xUtm/2a+oDB6vHVZXpIZAYwl4ktFRUpk7El9S8Gp+GAQgEI+AD8z+XZW9PsehKsP7CQwCEGgRAd9v/zupzIO/F/V5cYuYEQoEmkbAK/pNk8r8HZ+i/BdoWuD4AwEIFCMwn5KdKpW50zhB+S9czD1SQQACOQgsrm1Pksr8PZ+j/BfK4RObQgACDSTgH/FZUlk7C08k9GzlWSUMAhCohkDvkoBX1Czrt32+8mYeTzX1SSkQiE7Ak4f+LpW1g3hAeb8xutdkCAEIZCWwjTa8TyrrN36B8qYTkLU22A4CDSGwlPy4WCprx3C58n5BQ2LFDQh0mcCqCt6/x7J+6xcqb192wCAAgQQILC0fy1za17ckeV4BBgEINIPAonLjNKmsTsBFynuJZoSKFxCAwCACnojnYbuydgReQ2D2QYXzOQQgUBsB/y4Plsr67Xt54mVqi46CIQCBoQQW1LdlPVHMS5J+bGjpfAkBCDSBwEfkRFkPFLpUefvyIgYBCDSIwLzypazH+f5HeW/foFhxBQIQGE7glfr6IamM0QBfDuAWweH8+RYClRHwg3b+IJXxY79b+W5aWSQUBAEIxCKwvjK6Uypjv+B1ApgHFKumyAcCBQl42c5jpTJ+5Fco35UL+kUyCECgfgKry4XrpTL2DycoX+YDCQIGgToIePGdX0pl/Lh9rY8JP3XUKmVCIC4B/47/JZWxnzhc+bIIWNz6IjcIZCLgGfll/KjPVb6+rQiDAATaQcC/57OlMvYX32oHIqKAQDoE/p9cLePH7ImEvpsAgwAE2kXAE4VPlMrYb3y2XaiIBgLNJbCzXPMa/LF/yH9Snt5JYBCAQDsJeM7Q0VLsfYfz26OdyIgKAs0hsKFc8W15sX/Av1eeczcnTDyBAARKIuBOwDFS7H3IU8pz25J8JlsIdJ6AZ+TfKcX+4f5aeXqngEEAAt0g4N/776TY+5L7lCfPCOlGGyLKCgn4uvwlUuwfrG8h5OBfYUVSFAQaQqCsTsB1im+JhsSIGxBInoB/qKdKsQ/+vubPsH/yzYMAIFCYgBcRK2MdkTOVr/PGIACBQAJl3O53lnxiJa/AiiE5BFpAoKxOwM9awIYQIFArgU+o9Nhn/l7Gc4Fao6JwCECgSQTmkjNlPE54ryYFiS8QSInA5nI29lO9LlCeC6cEAV8hAIFKCHiekfcPMU84uDOgkqqjkLYR8PKdt0oxf4xXKr/F2waKeCAAgWgEllZO10gx9zv3Kr+pEgYBCGQg4Ads/EWK+SO8S/mtlqFsNoEABLpNwLcb3ybF3P+cq/x8mQGDAARGEPhffR/zx/eI8ttkRJl8DQEIQKBHYC3943v6Y+6Hvt3LnFcIQKA/gTfo45jL/D6t/LbvXxSfQgACEBhIYEt985gUsxPw9oGl8QUEOk5gdcX/gBTzB/ehjjMlfAhAoDiBdyhpzP3Rg8rv+cXdISUE2knA9+THXunv6+1ERVQQgECFBPZTWTE7Af9SfvNU6D9FQaDxBGIv9uMnfs3a+KhxEAIQaDoB70eOl2J2An7a9KDxDwJVEXitCop53f/fyo+FfqqqPcqBQPsJeH8Se4TyLe3HRoQQGE7A9+XHvOXG99yuOrxIvoUABCCQm8BUpYj5NFLfZfC83F6QAAItIvAbxRJraM0z/rdtERtCgQAEmkVgM7nzuBRrn+UHks3SrBDxBgLVENhNxcT6ITmfvatxm1IgAIEOE/iAYo+533p/h1kSekcJrKS4Y97y50l/9KQ72pgIGwIVEzhM5cXqBDysvFiltOIKpLj6CHhW7ZlSrB/QpcrLtxFiEIAABKog4EmBV0ix9mF+PPlsVThOGRCom8Cn5UCsH46X+V2z7oAoHwIQ6BwBLxfs/U+sfdn/dI4gAVdOoO5hcq+C5YUw5o4Uua+feQ0BDAIQ6DaBpRX+UtIy0sTbgH2L8V3jukmvHnKPZe9VRj+KlJknF24o+XZDDAKtI+DOx2lSrB6z7yDAIACB7hGYXyFvJx0onS7dI2Xdr1ynbY+VPi+9RAodev+l8sha9qjtzlFevkSKQaB1BHZRRKN+AFm/n6a8Fm4dIQKCAAQGEfBB/13SqdITUtZ9xajt3Hk4VNpKKnLwtV8x5wNwV4CAYu0isJjCibWIxpPKa5N24SEaCEBgAIFV9Lkv83noftTBPPT761XGJyQf1PPYutrYQ/ih5Tu9FwjypQwMAq0h8DNFEuPH4Tw+2xoqBAIBCAwisLK++IXkDn+sfUfWfO5WmZ+T5pWymrfPmv+o7XxZAYNAKwhsriiekUY1+izfn6985mgFFYKAAAT6EfCT8sakR6Us+4Qyt7lZPvjSZRabXRv9Q4rlzzZZCmUbCDSZwFxy7nIpxo/CO4Q1mhwsvkEAAkEEPAv+ainG/iJmHr+TT76MOcq8f4rVcblKecW6W2qU33wPgVII7KNcY/0QP1WKh2QKAQjUTcB3CO0pxbqOHmufMzEf30Lo0cxR9nFtMDFdyP9fHFUY30OgqQSmyrFYvWHfHhN6u05TOeEXBLpMwKOER0ohB8qq0no+wntGVJbvJPhLpHgeUz6rjSiPryHQSAJHyKsYP0yvtvWCRkaIUxCAQAgB38p7uhRjP1FlHvvKZ49aDDJPYHxIiuHTMYMK4XMINJXARnIs1sQ/35aDQQAC7SLgg/+FUoyDZB15fGtEdewVMbaXjSiLryHQKAJnypsYP0rP+mfov1FVizMQCCbg2+ti7SNi7GeK5jE2hIT3WxdIRfOemM75zDqkLL6CQGMIbC9PJjbeov8/rXxe0piocAQCEIhBwAeyE6Wi+4WmpXvfECjef3k/FsPntw0ph68g0AgCvkfft6/EaPA/aEREOAEBCMQk8CVlFmP/0JQ8vCzxpkMAfT9SvDcpnzwLEw1xia8gUA6BjyrbGD9MLxu8aDkukisEIFATgW1Vbqwz4hj7mVh53Ki4Fh/AdBF9frsUo6z/GVAGH0OgdgKe1OMlNGM09N1qjwYHIACBmAQWUmZeWS/G/qGJefiup0H2Dn0Rw+cHlc/SgwrhcwjUSeDrKjxGIz9L+Qy7xabOGCkbAhAoRuBHShZj/9DkPDzC0c+8PztNiuH7wf0K4DMI1ElgSRUe42ldTymftesMhLIhAIHoBDZWjrFuC45xEC0rj2mK0wsb9bMX60Pv30LL9uJqy/UrgM8gUBeB/VVwaMN2+p/UFQDlQgACpRGIdfYbYx9Tdh6eBzXIvH+LUf5BgwrgcwhUTcAPyfC1qdCG7RX/nle185QHAQiUSmBr5R66b0gpvScwzz+A6LL6PMZIKaMAAwDzcfUEvqoiY/xAfXsQBgEItIvAnxROjP1DSnl8aEgVjkXiwSjAEMh8VQ0B36oX4+z/DuWzYDUuUwoEIFARgVVUThtv+xvVGbl0CF+PDtwqjcpj1PeMAgyBzFfVENg3QkN2Q39/Ne5SCgQgUCGBA1TWqANZW78ftjjQeyNxObDCuqQoCMxAwPf93y+F/oAvVx6zz5AzbyAAgdQJ+Na3G6TQ/UOq6YfdrjebuFwSgY3nTbEugCBg1RPYR0XG+HHuWL3rlAgBCJRMYF3lH2P/kGoe14/gu30kPt8YUQ5fQyA6gXmV4z1S6I/zYuXBU66iVw8ZQqB2AvvIg9D9Q+rph61p4hGSiyIw8ijsAhIGgZEEYh1sd1FJngAYap757wVCMAhAoF0Ehl0Db1ekg6PZbPBXz3aOYtz55CWWdx9SDl9BIDoBn7mH9s49UzZWhyR6gGQIAQgUJuCz23ul0H1E6ukPGUEw1ijANJXjeQUYBEonsI1KiPHDfHPpnlIABCBQB4HVVGiMfUTqeQy7HbBXL54DFSNOzynAIFA6gRNVQmiDvUx5cPZfelVRAARqIfBqlRq6j2hDet+r77P8Yebv/yWFxnvmsEL4DgIxCLhnH2Nhj7fGcIY8IACBRhJ4n7wKPaC1JX2W2/R2isRr/Ua2BpxqDIHQs+6PKJLQPKYpj6MaQwRHIACB2ASWj51hwvlleb7J0Yrvyggx7hUhD7JoMYGQg7eX6t01AhsvkOFRBAwCEGgngUEPw2lntMOjmm/4189+6zuhDsqw3ahNdtYGfuAQBoG+BEI6ALspx9D7TR9QHj/t6xkfQgACbSEwT1sCiRDH3BnzOFTb+c6JEJtDiXcNyYC07SYQ0gHYIwKaHyuPhyLkQxYQgEBzCczZXNcq98wH5SzmZX1/mGXDEdv4RM0TCzEIzESgaAfgJcrphTPllu+Dp7T5t/MlYWsIQCBBAn7mPfYcgf/kAPEdbftEju37bbqqPnx5vy/4DAJFOwC7RkDniX83RsiHLCAAgWYTeLDZ7lXqnS97ZjU/Jvg3WTcest27h3zHVxDIRcDXsO6TQm/L2TBXqWwMAQikSuATcjx0f9GW9KvkrETfyhcauy8n+GmtGARmIFBkBOCNyiG0MZ2nPP45gye8gQAE2krgmrYGljOuJ7V93lHP85XmrJzlTN7ckzDfNvlD3kOgSAfAk0pCzZP/MAhAoBsEru5GmCOjvE5buBOQ12LsL3fPWyjbQ2AyAS/o4cl7IUNSnvUfevvgZL94DwEINJfAXHLtMSlkv9GGtMcWrCI/bj3GZdd1CpZPspYSyDsC4Mf+zhbI4ldK704ABgEIdIPA4wrTQ9ldt78VBOBr+EcWTDsx2TsmvuF/COQl4OUpQ3vivoUQgwAEukXgawo3dN+RevpNAqp8vQj8blAerAkQUAldTrpuhAb4ry4DJHYIdJjANoo99QN4iP/3K/7QBZEuiMBw4w63QUKfRCDPJYAdJqUt8vYnRRKRBgIQSJ7AGYrg7uSjKB7AcUoauqhPjP2nnw+AQSA3gcuUIqQH7NmvS+YulQQQgEBbCHhp25B9SMppXxOhEhdSHl5JMITDTUrPZYAIldGlLNYIbHRusCd1CRixQgACMxHYVJ+EHLxSTesV/bI+A2AmaJM+8CTqUA4vnZQnbztKIOslgDdF4HNEhDzIAgIQSJeAZ8H/I133C3vuNf2L3P/fr0AvoR5qO4VmQPpuEQidfPKocHn4CoMABLpN4C0KP/QMNqX0voVv8YhV7qXY/TyBEAYekch68hfRdbJKkcBKcjqksTltjAdapMgOnyEAgRkJzK63l0qh+5RU0h8wY/hR3h0egR+XAaJURdqZZOkFMvyfdh3jPQSaRMAriX6ySQ6V6Mu9ytvrH8S2GJcBto3tFPm1k4Cv24X0tj1c5WErDAIQgECPwGn6J2S/kkLaD/WCjfzqpZW9rkAIA1ZmjFwpbcxuEQXlHntIQ4uxhGUb2RITBLpKYF0F7rPjkP1K09P6CX6hy6YPax+HBPJ7RumXGVYA37WfwKhLAFsLQWgj/n37MRIhBCCQkYAP/j7798lFW83POvFzU54uMcDQeVVeC+CVJfpH1i0g8APFENLT9q0vi7aAAyFAAALhBNZUFndJIfuUFNK+MxzVyBx8WTV0USCvKYBBYCCBa/VNyA/ujIE58wUEINAlAqspWN9+FrI/SSHtfhVWqkdXQ5j4MkzoCG+F4VJUlQRWUWEhjctpP1Glw5QFAQg0koD3JTdLofuTpqc/RjGOuqwas4I+EIEptwPGrJHE8vI9uYNsm0Ff5Pic6/85YLVwUy/+5HUkVpTmnBCfJ5beKd0u3SZ5sRSsnQRc977mv1w7w/u/qE7Uf2+VPLmuKvtDhIL8jIKzI+RDFi0jcLTiCelxX9kyHoQznMDC+vq1kodAfevoPVLW9nO1tj1C+ri0ocTDSgShBeaD/jVS1naQ6nbHK8aJHdwqq+7fgXzPqdJZykqDgK8Lhd6mc3AaoeJlAIEFlNaznU+RPOM51g78RuXl9rO5RGdAEBK0peTzFVKsNtHUfL6jGIeNpJZddV8PZPy40s9btpPknxaBl8jd0B/cG9MKGW9zEPA13Z9ID0uh7WRU+ktUxu6SFz/B0iCwuNx0vY2q25S/94FzjwZUxxYROG/ZgDhwoUEEPhXYqHyNt833+Taoqip15fkq7TDpSanqnbfnCnhltTrPtlQ8NoKAf/cXSFW3jyrL+5fiW2cEh6q+nkMFed2BkPg/X5WzlJMGgd8GNqjz0ggTLzMS8Nn3vpLPekJ2NDHSXiwftpCw5hFYUC75cb8x6rmJefippl+WmjYa9cdA5k6PQeD/CNys/0J+gL4uhbWDwGYK43IppD2UkfbH8olrl81pY/PLlbNKaicfVb6vlP5ZUv6j2qdn9h8hTZWaaJ+VU6NiGPb9g0rPyFoTa7YGn5YPbExuaK+uwW+KjE/A6zjUMdw/bGc18TtfZ14jftjkmJPAPNr+z9LEuon1/6cn+OIJodtLfymprMk+P6Zyfip5BcMm28vk3GTf875fv8kB4lt1BHYMbExPKL3PBrB0CfjM2mc8eXcidWzviYg+KGD1EPBw+MlSGXW/z5CQfFD2nSKho5WT/fbZ/t+lvSTfyZCCuQ58eWJyLHnefyyFQPGxfAIHBDYk/3iwdAl48R7XYZ6dR93betLprhJWLQFPQDteKqP+v5YxFI8KbCDtI50k5Vl/ouf3jUp3uLSHNFVK0c6Q0714irz+NsWg8TmMQL/rPhuHZfnsJKDALEheEwEf/D0h6CU1lV+0WK9b8TPJ/h9UNBPS5SLgfYdHibbLlSrbxgdqs89k2/TZg9552tbq2Ur6Z0VpBWlpye3CbcTmB+jcL7mjcJV0tfSAlLqdqQBeHhCEO1FYxwm4R+8fSJEeZC/N2zvOMNXw55fjqZ3599rcxNd3pVoBCfntg+kvpYncY/3/feXrs3osH4FttHloHSyar0i2bhsBTwQJbUSrtQ1KB+LxDvfoCHUf2nZipH9ccWzZgTqrK0S3FY+2xKiryXn8XPnOWldgiZe7gPwPXY1zq8QZ4H4ggfcq/eQfZZ73Hlaj9x5YCTUk/1xgvedpI1Vs62Wsn18Dx7YX6d/296Qy6tCXE3rD9G3nWFZ8VwTWzcfLcox80yDg66chP25PwsHSIvAquRt65hDSZspK6wVp+s1xSat2muXtt+ROGfXl0SfqKryu3YkKqZ/Dwl0gh5QJnBrYgMZSDr6Dvvt2v+ukkJ1Gk9N6ZAOLQ+AryqaMuvYthL6NDQsn8EllEVJHF4e7QA4pE7g1sAG9LuXgO+h7WWd0ITuhmGk9H2CtDtZr7JD3UYYx66WX15+U79yxne1wfr6G32Nb5NWLflEfHW1AiwU2Hje4qR1ll2LY68lp3z9fZEeRUhrf1ogVJ7C3kpZR32coX5ZyLl4v/VIurA+fkULqixUB+5HtwGehy0k+KEZMAEynofxerobsKFJKu3U61dIoT/csqY2crXw9ax2LT+AaZRny23x3fJfIMQUC7w9sOL6HHEuDgHv5oWcKITuZqtOeq3jpnOZrm94flNFGvGCPF+bByiFwlLIN+X3tX45b5NpEAhPvuX1RoIP/DkxP8uoIfF5FdemAuKHi9QgXlo3Artrsu1LsNuJJZr7rpA0r7ymMRlrofph1XBpZreU4NbEDsGZgEaENL7B4kmcksIK22y7jtm3abI82BVNiLDsq7x9LE/cNMYrzsrs++HutEKw8Al7aOMRWDUlM2nQJ3CbXQ4aOtkk39E55XtakrpC2U0Xax1TLi3eqpvMH+yYl8Uzw2PXhg9Ky+d0hRQECntwbUn9eCj72yE+BMEhSJQE/zzv0eh8/8CprrHhZlyhpyA4i5bQfKI6t9Sl9C69vm4xdv9OUp0edsGoIeHJl6L58+WpcpZSmEHi+HAn54dNrbEpNDvfjhYH1HNJGmpD2uOF4OvvtKxW5R0hi19FNynPlzlKtL/BbAutyy/pcp+QqCfSu860YWOj1Su+dB9ZsAls0273SvdtKJcxZeinxC5hfWS4yrtgz6LdQvr+TYq/Gd7vy9O2X10lYtQQ83yLEmAcQQi+htL31t0OH6KYlFHOXXe36THgfSF8qndHARuDrrqtLG4zLk3J9We15kv2eaE/ozV2SD7J+AIxn118knS09LGW1TbXhCVLsBXns2yukYQei2fT9JtLa0lJSih0zuT2TOXaPfJwq+aFUdZi5bxFQMHcCBMBLMekX5XTI8N93Ugy6gz6HDg2GtJGmpP14g+rdB71tpR9IPmiEMvI1fB94PiGNuo7rWyPvl0LLnJzeB711pEHmk44PS7dKk9O26b0nU/5CCj25Uha5zfUfwvK3uUskQdIEDpH3IQ3GDQ5rNoHF5F5IHbcl7U8aUE0ryoevSKF33gyrk6eU/wmSb/n02fZE8wHaB+ph6Yt85/v7N5pY0KT/ffnCSzMXyTvVNL7t0ZeeqrQ3qbAQXh5JwjpE4HTFGtJgdugQq1RD9dBySB23Je3faqxAnw3+UCrjVrth9XOZytxJ6l1m8KWDYdsX+c4TgTeXBpk7ISdKRfJOPc0jinv9QWBK+HzjQM7XleATWTaYwLWBDcb3nmLNJhB6VpD6Trjn/x01VJPPfA+WPETf86OO1/NVfhmjDj7AjTrL/WjNsdfBe2KZFyv+WaUqzPNGJpad93/XJ9YRAm6UoTumJTvCKuUwPybn8+4I2ri923qV5mv8N0ptZOmYfPvgq6Vh5uv+ZYw6pMZ0x2GQIn43h/J6Wgrhs3BEf8iqoQR88PfZScgMXDe0uxsaH25NJ+DFnrDn2vrcFYDwbXWe3Odhb5+RtdF8KWNn6eQRwfluA8/077p5FK4Kc73cGVjQ0oHpSZ4AAXcAFg/007e9PBOYB8nLJxDSySvfu2pL8GppZZpv3ztDel+ZhdSctzv+u0jHZ/Bj2F0BGZK3ZpO1KozEd/yE2DIhiUmbBgF3ALzASIiF9jRDyiZtdgK9NR+yp2jvlm73ZdmLlPF50sZlFdCAfN3h31X6VUZfQk8yMhbT+M2qHAUJ7QAwAtD45hTuoHeEiwZmU8ekqkCXO5ncw4LYcwQ8Y70M86I2p0ttPnvydeU9pMOlrDb5NsSs6dq2XZUc6AC0rfWUEE+MDgAjACVUTAlZ0lGbDvVQ/ft2KeZEpzWV32nSElJbzQf/j0g/bWuALYordF4WE7tb1BgGheIOQOjwnGf3Ys0nQAdgeh3toH99Buud5FnSnpKv2xc1/4aOlRYrmkEi6T4jP7+biK9dd/PBQABlz5MJdI/kMQi4AxA6ByC0pxkjDvIYTcD3f2MzEvCQrGeoHyjdJP1N+qS0ipTVfEeBJ8LlSZM17yZt93k5s3+THMKXoQS8KmOILRiSmLRpEIhxCeChNELtvJeXiwB3awxuBv4tvFQ6QLpG+pc0Jvm6/jD7ur7cZNgGLfjuK4rhyy2Io0sh3B8YLCMAgQBTSO6dXuiw5cMpBIqPUzwk6KeEYdkI+JatfaSLpOulg6RXSLNLPdtK/3y496alr477cy2Nrc1hhY4AzN9mOMT2HAF3AEIrmg5AOq3pvHRcbZSnK8obL2V7inSz9ENpO+lnktfXb6v9QYHt1dbgWh5XaAeAEYCWNxCH5w6AVywLsbJuqQrxibT9CZzd/2M+zUHA93L7Njhf93fHoM3mtQwWbnOALY6NDkCLKzdWaO4AzBmYGSMAgQArTO6DFvMAKgSeeFGLyn/P/MfSI0AHIL06q9xjOgCVI6+1QC8O8o9aPaDw1Ah8RA63faQjtTrJ4u9jWTYasg2XAIbAactXMToAXAJIqzUcm5a7eFszAd/m6HUSsLQIhK78OW9a4eJtEQIxOgCPFymYNLUQeKVK9WQ2DAJ5COymjTkg5CFW/7Z+WFOItXlyawiXVqWN0QH4b6uItDOYeRTWQdLJ0nLtDJGoSiTgiYA7lJg/WccnEDoCQAcgfp00Lkc6AI2rkugOeSb3vySf+fOjjo63Mxm+tzORtiPQpxRGyMmZjw1YywnE6AAwq7yZjcQL1uwtnSmt1kwX8SohApvK10US8hdXp0wJuQzAyUIHWpA7AHN0IM6uhfgCBXyOtJ9E/Xat9suJ189N2LKcrMm1JAIeBShqdACKkksonTsAodeKGAFoToX7R+vbti6QNmiOW7V54gmq35Iuq82DdhXsSaRYOgRCOgCOkk5AOnVdyFMPEz9RKOX0RCHXmabnwn+hBDy57+fSNqEZtSj9FxSLH9ZjW13aXvJkNneO2LkJQk7bPOf2bF4vAY/ahJh/I+zfQwgmkPbS8Up2RRfR0gnE2HYX36IA7y1Yf0XqPIU0nvvgEa5+9jx96JGS06TeZKkUYqrbR58sFLmk9FWlq9v3JpR/nzhUaZ4DEBJ3aAeiylgpqwAB7yBDRwB8ixlWDwFPyjpCOlJigtb0Orhb/+4iDbo8dZO++7a0teS1/XeXTpAek7DBBHzwX3nw13zTIAJzypdBHeAsbvY6Dlm2ZZtECdAByFdx7uz4QBvyw8pX4uCtX6GvLpbeOniTTn7jg/gbpeszRn+Ptvu59HppCWlnyR2qByRsZgK+lII1n8BcgS76dzSoAx2YNcmbQiDGHIC2rRA2VZWzrrTOuDyj3guhLCRN/FH5IUg+SNwp+UDckx+5e79UlrkT4tn9HsLmOvaMlH3Wsqv0txk/zvzOdfqbcbmut5K2l94gLSlhU6YsC4QkCMwd6CVLvAcCTCF5jA5A6pcAfDa/keSzRivrGc782tby5Dt3GHrma8pnSsePa1rviwiv6yuPX0hrRMirbVn4bOWD0q8jBeY7CE4alztbXB54Dmzqv/fnomj/39AOwCPtR0SEPvh1dQ6Az+q9UM4N0jnj/2c9+GvzgeZOlc8cD5Suk06XPLxs1kXNeX5Osp8c/Gem6Db8NumHM38V5RPzx54j0LYRv7bW61yBgdEBCASYQvIudgB8xv5N6UbJQ+nLS2XaFsr8OOkK6f1S3oPJqkrzV+lLUpEZ2EqWy8zlVZIZpWC+DOMh+lhn/v1i9qUF7DkCjACk0RIYAUijnmr10h2AhwI9SOWMwAfPT0o+EO8lLSBVaaupsO9LF0ovz1Cwr++/T7pI2jjD9jE2OVyZrC39SfqE5AmGTb4WeL7882WRk6UyzWdDvrSDTZnyKBCSIBC6f2vy7z6JCkjBSXcA7gl0dJHA9FUk30yFXCAdIPm6fZ22pgr3ZQHfvrfkAEeW1ue/l34gzTdgm5gfuw3sLL1Tun9Cxr/S/y+R/jHhsyb86+v9B0ubStdW5NCDFZXT9GLubrqD+PcsgcUCOXAJIBBgCsndAbgv0NHFA9OXmdxn0b7Of4bkA29TzH757NqdkpdOcmoHvb9E2nbS52W9PUUZ+6zfs9/72aX6cBPpXVJoZ7Ff/nk/O18J3KHbU3o8b+KA7ekAPAePDkBAI6owaeh+mRGACiurrqJijACE9jTLin1BZXy05Ov8s5VVSGC+no/g0YCPSAtJh0j2OfTHqyxGmnv4H5J8vf+WEVv/V98fJrkT5cmNdewcpqnc3aWNpHOkqm0Uo6r9qau8u+oqmHJzEVg019Yzb0yHd2YmrfvEHYB7A6NqYgfAB9a/S9sHxlZFcq/YdbB0o+Sz7CrsXBWynvQ9yQf3rHa7NvT8iZWkr0hVnA3a1zdLq0k/l+panORilY1NmeIRIaz5BBYNdPHOwPQkT4BAjA5AFWereVD2zqpTu13OIxZlmyeyfVHaVLoyoDCfBX5OWlbaTjpSinnN0L59TVpf8hyEoySva16n+bJM1+0GAbin6xASiT/0xIwOQCIVHeKmb0kL/UGHNrQQ/yen7R38fbaIzUjAB9VdJJ9Rx7InldHvxzWXXjeUfH3eHYwXS66PUbc9ulPis8p/Svbtb9JlUtOMDsBzc1aaVi/4059A6H75jv7Z8mmbCHjnHHoJoCkjAAsoFt++xsF/xhbqIf7vS5+SYp6lz1jKcxPyztKHVs/cvpaXVpB8qcPm+Rj26TbJZxlWnssQ2rwWO0+lPizNX0vpzSg0ZuexGRG11wsuAbS3bqNFFqMDsJS88az2OnfiLv+n0gslbDqBW/Xvu6Wy75OfXuKM//ns/vpxzfhNeu8ek8unSCnMKymL7vFlZUy+0QksE5ijO+ZYywl4DoDv+/ZQblHzymBLFE0cKZ0npu0UKa+2ZPMbBbKWVNfBvy0cJ8bhyx1dNV9CauKlma7Wx6i4Vxy1wYjv6QCMANSGr90B8KzqmwOD8RBvXbaBCt6/rsIbWO4D8skL+uwshc7vaGB4tbp0okr3qEYX7XddDDrRmH39f74A3z2a64m+WMsJuANg8+zeEKurA2D/vyf5Ugb23JoCPus/HBilEPDEqGNKybnZmfqAQJtqdh1N9C707N/zwkJGhSf6wv8NJtDrANwY6GNdHYD3yu8NA31vQ3Jfn/649AoptC7bwKPMGA4uM/OG5n2S/Lq0ob7h1swEQvfHt8ycJZ+0kUCvA5DiCICHub7axkrJGZMfFuTLIN+SnsmZls3zE/BtiufnT5Z0im8k7X33nA8dAbiue8i6GXGvAxB61hja4yxC/0NKFHqrS5Fym5LGC+N4mWMvlMPZWbW14kczd8V8++PpXQm2JXGG7o/pALSkIYwKI1YHYOqogiJ/P7fy+2DkPFPKzj/Ql0ufkZ5IyfGW+Hqc4jitJbEMC+O/+vJjwzbgu0YSCO0ATGtkVDgVnUCvAxB6CWB1eeZ78auyd6ggrz/QRfuFgl5H8lA0Vh+Bj6rott8RcKhipJ3V18aKlrxa0YTj6a4NTE/yxAjMK3+fkdzjL6rQXmceZL7uXdTPlNP9JA8kti2dwIEtbof3KbZYnWzP1Un5dxfLdzMt27zS5qNSiM8vKNtJ8m8Ggd4IgJeIDV34oapGs6p8XbsZ+Cr3wtf7seYQ2FuuXNgcd6J68n7lxnrwUZFWktnKKsWXSIuaTwSvL5qYdGkR6HUA7PUVga6vEZg+a/IuL8W6piA9PysotiudwOMqwQsuPVh6SdUW4JGNX1dbJKVFIvCiwHxuUXrfVox1gMDEDkDoTPKqOgCv70C9DAux6/EPY1PHd9eo0D0knzm1wc5WEJ9uQyAdjSF0Pzyto9w6GXZqHYCFVEubdLKmpgf9qun/8l9DCPhsec+G+BLixuVK7BE2VoELoVhv2hcGFh86EhxYPMmrJJBaB8DPmPckly6b7wDAmkfgO3LpC81zK7NHV2vLraXQuUCZC2TDUgiEdgAuLsUrMm0kgdkneBV6CWAJ5bWc5GtIZdlaZWWcUL6Ly9dYnF1nr5PWk5aUqryVU8WVZr42f5N0qvQXyYsmVWFfUiHuVO8jpcTSt3354H+bhKVLwG0vdDI2HYB06z/Y89uVQ8jtI28I9mB4Bj8I9C8ktialfe1wTCO/nUdbHCD57o8mxVWGLx7SDOWlLHLZ27R16K1YZbDol+ef5as7lWUatwE+9zu7r0zIytvX//vVcdbPPI9l4ZJ9JPsGEZh4CcBuhY4CeE36Ms0LDmFTpoQs9OEz/TOlT0ruCLTd3GZOkD5bYaBHqCyfUd9RYZlFivqOEr1SurtIYtI0jsBGgR7dqPT3B+ZB8oQIpNYBoHf6XOMqymFOJT9GKruj1rSfgIfjvyztWqFjZ6ssz1n5dYVlZi3K1/nfLH1EavtqhlmZtGG7lwQGwfB/IMDUksfuAKxfMoAFS84/leyLdgA+oAA3TSXIEvw8UHn6KZJV2V0q6C3SjlJTRgMOlS+eKHaUhLWLQOgIAB2AdrWHkdFM7gBcMDLF8A08qWzq8E2CvvVtgNiUKUU4uK4/3XF45uZOUNV2tAp8vuS7BO6vuvDx8s7Q6xbSrtI9EtYuAvMonNBJ0nQA2tUmRkYzuQPwL6V4bGSq4RuUObw81/CiO/Oth/Lzmutl2byJWri973qowx5UoV+SVpL2lTwMX7Z58tfJ0mbSltJfJKydBNZVWHMEhkYHIBBgaskndwD8aNnQUYCNS4TgnShWbOlZJlA+13JCb5MKbX8eAdhHWl56vfRbybctxrTLlNnnpFWk10h/k7B2Ewgd/ne7vKrdiIhuMoGJ6wD0vvu7/nlp702B15cXSJM1iW+j4Sy2WAegymvfWeuzju18GcDtvu7Jb0/KB9+dYC0g+Sx9c8m/n/WlPKM812n7cyT/ds+Q/i1h3SIQ2gFw2/FtgFiHCPTrAPwjMH4PRS0olXG2Xtf100Ak0ZMXYTt5tCe6UwllOEvDfH1I/pw0LrvmunJHd+q45tWrOwm936tv27tNukm6WXLHGOs2gZcFhs8oUSDAFJP3digTfXdPMMRmU2LPNPcOLbbdHjvDRPO7NVG/cTsbAZ+J+cBunZUtCVt1mIAv7/mSUoidHZKYtGkS6HdWeKNCCT3AeCizDLukjEwTzJPJOglWGi5DoCQCWwfm68th5wbmQfIECfTrADiM0MsAZc0D8F0KXTeva+9JXhgEIAABEwjtAHi/+jAou0egrA6AbzmbrwScdACmTLlSXB8tgS1ZQgAC6RHwPjx0xJXr/+nVexSPB3UA/hqYu+9H9azm2Ha9MvTkpy6bZ3tjEIAABExgHWnxQBTsUwIBppp8UAfA14MeCAxq28D0/ZL/Vx8e3++LDn12XIdiJVQIQGA4gdDhf+fOCMBwxq39dlAHwJNCTg+MuowOgF06NtCvlJM/IudPTTkAfIcABKIS2CowN19SvCkwD5InSmBQB8DhnBIY06pK79tTYps7JkXug4/tRx35uU64/l8HecqEQPMIzC+Xtgh064+B6UmeMIFhHYAYZ5pljAJ42dQjEmYe4vpPQxKTFgIQaBWBVyuauQMj8rMisI4SGNYB8LrQ1wdyKaMDYJe+KXVt2cqrFfOJDh6DAAQgIAJvCKTgk6kzA/MgecIEhnUAHFboKIBvT/ESprHNB0Ovod4l+5aC7Vqnp0v1S6wQyENgdm3sBz2FmA/+/wnJgLRpExjVAQidBzCn8GxTEqJvlJRvE7O9S04d2kTH8AkCEKiFgNf+Xyyw5D8Fpid54gRGdQBOU3yhZ507lsTIa6T/pqS8m5btZ+SQ7wDAIAABCJjAGyNg4Pp/BIgpZzGqA3CPgjs3MMDtlH6ewDwGJd9LX/hJam02P5zp520OkNggAIHcBF6fO8WMCW7R20tn/Ih3XSMwqgNgHscEQvGtKmVNBnQj3jfQvyYn97r/H5ZCR2GaHCO+QQAC+Qisq82n5ksy09Z+WqsXVsM6TMATSUaZOwBfH7XRiO930vdHj9im6NcHKaGHwzYtmkGD0+0n385vsH9dd21BAfBE16lSGc++ULaVmzudd0oXSTx1snL8mQp8a6athm9U1v54eKl8myQB7wzcWywqP2lq3hIjX0Z5+xHGRf1rYro/Kp7ZIjL7eMv4hNTZHIFcV1B6T8p8vOVMr1R8b5dmkULsq0ocUl9tSXtfCMTxtB61vTmQ571KH/obGHeHl5QJZLkE4PhCLwP47KisywD27zZpZ+lJv2mBXa8Y3ib5bAxrFoFt5I47xLtIvsulzfZ8BXe4dKRU1jyeNvMrI7YtlelygRn7eSJt2VcGouh28qo6AKb85pJR+66AD0g+W0jZ3Dv3JY17Ug6ipb5vpLj8MKpFWhrfoLD82z1ECh0JGJQ/n2cn8I7smw7c8rcDv+ELCAwgcIU+DxmKe0zpQ+9bHeDaDB/voXeeNBfia11pfdBfb4Zo4r3hEsD0NlFk+NNprpHqahtNKNejHkWMSwDPtZvQSwC+jPqgFNIW7lf6uYpUImnaRyDrCIAjD70M4EYXo/c6qhZ+pA3eJ7kTkJL5zP8V0gUpOd0hX9+pWFfpULz9Qh3Th4wC9CNTzWevVzELBBblESzPXcEgMKXKDoBx714R8x+rHF9DT2WZy6vl68ulCyWsmQTKWtCqmdH292olfbx+/6/4tAICMU6gGP6voKJSKSJPB+B8BXVtYGBrKf0GgXlkTf5rbbixdFXWBDVt5wk5G0r/rql8is1GYN1sm7V+q7IuUbUeXGCASyv9qwLz8KJpfwrMg+QtIpCnA+DrTodGiL2qUQC76oOqD65H+U3DzMNw/yNtLz3QMN9wZ0YCHvZeYsaPOvtuqc5GXm/g71Hxswe6cLTSey4WBoFnCeTpADjBYVLotXUPzZe5JoD9nGieNONZzFtLl0/8osb/T1fZPpPaX3LHCms2AXcAYq7J0Oxoh3sHh+F8yvjWB37Pawq1n4VmQPp2EcjbAbhB4fvgFWILKfEOIRkUTPtnpfMw7uelus64r1PZO0lbSZdJGAQgAIFRBLbTBsuP2mjE955ndNaIbfi6YwTydgCMJ8ZlgI/VxNnD7l+WnifZB3doqjDPn3iXtLrEJJwqiFMGBNpD4EMRQjlEeTDaGAFkm7Io0gHwdSQPq4eYZxJ7gl5d5skwB0mrSp7d7QmDoTEpixnsJr37rvRSyRMfD5OekjAIQAACWQn4pMEjhiH2tBLHOHEL8YG0DSTga0t5zc+l96S69+RNOGn7j+q9H3Vbp/mA7A6NNZfkH9qrpXWktSVfrshqt2jDi6V/SidIPuunxy0IGAQgUJiAVzedpXDq5xJ65r/3TxgEZiBQpAPgDA6RQjsAPvP+lNSUhunLAyeNSy/P2kr66/XQF5EWHpcnMHoOQU936P9LpXskDAIQgEAsAn6Gii8dhhqT/0IJtjR90Q7A2eJxleSDY1GbQwndu/1c0QwqSDdNZVgYBCAAgaoJ7KoCfeIRYncr8fEhGZC2vQSKzAEwDQ9t/yQClj2Ux9wR8iELCEAAAm0i4JOzT0QI6HDl8USEfMiihQSKdgCMwh2A/wQyWULp3xGYB8khAAEItI3AWxSQL0GG2DNK/N2QDEjbbgIhHYD7hOawCHi8Gl7RSxERiicLCEAAAo0i4El/Mc7+PRn5mkZFhjONIhDSAXAgB0ruZYbYKkq8c0gGpIUABCDQIgKvUyy+EynUfKszBoGBBEI7AJ4IeMrA3LN/8TltGupL9tLYEgIQgEBzCewdwTU/B+WMCPmQRYsJxDjoxuhlriHGb2wxZ0KDAAQgkIXAy7TRplk2HLHNt/S9J2tjEBhIIEYH4GTlfuXAErJ/4VGA0AUvspfGlhCAAASaR8BzokLtLmVwRGgmpG8/gRgdAPcyvx0B1brKY9sI+ZAFBCAAgRQJbCSnXxPB8e8rj8ci5EMWLScQowNgRIdK90dg9QXlwShABJBkAQEIJEfg6/I4dP/ne/5/kFzkOFwLgVgdgIflfYz7Td0DflMtJCgUAhCAQH0EfOb/8gjFH6Y8bouQD1l0gECsDoBRfVN6KAKzrygPLxOMQQACEOgCAZ/1fzlCoH7qn0cRMAhkIhCzA3CvSowxCuDnC+yeyXs2ggAEIJA+gTcrhPUihOGz/6sj5EMWHSEQswNgZN+QfDkg1PZRBn4SFgYBCECgzQS8Cqr3d6Hms//9QjMhfbcIxO4A+JG4MSagLKN8PtatqiBaCECggwTerZhfECFuP/THC7NhEMhMoIw1+D0K8EFp3sxe9N/wU/r4h5IfZznMFtaXW0krSnMO2zCx7x6Uv17N62zJvXsMAhBoF4EFFE6ss3/PncIgkItAGR2AO+SBD9x75fJk5o0X0kf7Su5M9LNl9eGXJT9NsM2TBs3za9L3pCclDAIQaAeBzysMj3aG2pHKgGv/oRQ7mD72JYAewgP0z6O9NwGveyitFwiabF4q80JpN6nNB3/HvZR0oPQnaVEJgwAE0iewukLYM0IYHh30iRAGgdwEyuoA+D5UjwKE2mzK4DvSxMUx1tT7P0hLSl2yLRTs76S2d3i6VKfE2l0C7tTHuGR5hPK5srsYiTyEQFkdAPvkXun9Ic6Np32pXt85/r/9/bm04Pj7rr1sroA/3rWgiRcCLSPwesXz6ggxeZTVz1DBIFCIQJkdAN8REGtiyv7Ky3MCXiVtIHXZ9lbwc3cZALFDIGEC/u1+K5L/HkW4MVJeZNNBAmV2AIzTDwmaFoHr0srDs2V3jJBX6lksogC2Tj0I/IdARwl8UnGvHCH2O5XHfhHyIYsOEyi7A/C42H4mEt8PK5/XRsor9WzWTj0A/IdABwnMo5hj7Q+/qLx8qzAGgcIEyu4A2LGjpL8X9nB6Qk9+84x4DA60AQikSGAuOR26PorjvkL6kf/BIBBCoIoOwH/loNcE8CsWh4DvjsAgAIFuEvi0wn6qm6ETdUwCVXQA7K9HAI6O6Th5QQACEOgggb8o5hM6GDchl0Cgqg6AXf8f6YkSYiBLCEAAAl0g4EV/uA24CzVdUYxVdgCuVUxeIRCDAAQgAIH8BLwc+AX5k5ECAv0JVNkBsAdfkli1qn9d8CkEIACBQQRu1xdfGPQln0OgCIGqOwC+LfD9EhMCi9QWaSAAga4S+KgCj7Gyalf5EXcfAlV3AOzCGdKR/geDAAQgAIGRBP6oLX4zcis2gEBOAnV0AOzintLdOX1lcwhAAAJdI+D1/gc9Er1rLIg3MoG6OgA++H82cixkBwEIQKBtBPZVQNe1LSjiaQaBujoAjv7H0lnNwIAXEIAABBpH4FJ59L+N8wqHWkOgzg6AJwJ6QiBrA7SmOREIBCAQicAzyud90pOR8iMbCMxEoM4OgJ1xD/erM3nFBxCAAAS6TeCbCv9v3UZA9GUTqLsD4Pi+InmpYAwCEIAABKZMuUwQPg8ICJRNoAkdAD/U4h3Sw2UHS/4QgAAEGk7AQ/7vkh5ruJ+41wICTegAGKOXCfYTrjAIQAACXSYwpuDP6zIAYq+OQFM6AI74B9KJ1YVOSRCAAAQaReAcebN/ozzCmVYTaFIHwHcF7C7d0WriBAcBCEBgZgKP6KNdJT/xD4NAqaTDbAAAHspJREFUJQSa1AFwwHdKvvUFgwAEINAlAp9SsFd1KWBirZ9A0zoAJnKcdGj9aPAAAhCAQCUEPOGPy5+VoKaQiQSa2AGwf37yFY8NnlhT/A8BCLSVwNwK7HRphbYGSFzNJNDUDsCDwvUG6aFmYsMrCEAAAlEJrKTc/ir5FYNAJQSa2gFw8B4B2KMSChQCAQhAoH4CHgHwSACdgPrrohMeNLkD4Ar4lfSdTtQEQUIAAhCYMmVFQaATQEuohEDTOwCG8HGJNbEraQ4UAgEINIAAnYAGVEIXXEihA+ClMd8i3dWFCiFGCEAAAiJAJ4BmUDqBFDoAhnCz5E4Ai2SYBgYBCHSBAJ2ALtRyjTGm0gEwoj9L+9TIiqIhAAEIVE3AnYBTJW4RrJp8B8pLqQPg6viq9MsO1AshQgACEOgRWFn/nClxd0CPCK9RCKTWAfivon6PdHaU6MkEAhCAQBoEuByQRj0l5WVqHQDD9bKZr5eu9hsMAhCAQEcI0AnoSEVXFWaKHQCzuUd6jXS332AQgAAEOkKg1wmY2pF4CbNEAql2AIzkWmkH6XG/wSAAAQg0iEDvcuWhJfjkTsAZ0lQJg0BhAil3ABy01872csH+sWEQgAAEmkLgM3Lkp9Lu0mElOOVOgO8OeF7kvBdRftZy46+Rsye7JhGYvUnOFPTFP65Vpc8XTE8yCEAAAjEJHKzM9h/P8Bm97jb+/y7jr7FeVlFGp0tbSjflzHSqtt9cWk9aR5oqLSPNKU22O/XBNMnzrs6XvDLrhdJTEgaB2gnMIg/cEfBIQBdU5PkIXlK5C2yyxDiHWOSxWbVxlny7sM1YHnDj2361Q/x+rVjdXiabPztUKqONXKN8s4wErKXtviFdEcGP+5XH4ZIvw84lYQkS6NdQEwzj2R/V7nL8dyk6j88QgEArCJyuKHyW77P+yebPdpPcCYhtvZGAfp0Aj/K+UzpP+pf0CWl1KdQWUgZvl46WbpS+Ii0rYQkRaEsHwMg9HPVW6Y9+g0EAAhCokICHxLeXHh9SpjsBPlGpohMwi8rZVbpSOkxaXyrLllTG/0+6VvpfaQkJS4BAmzoAxu0fn4ek/uo3GAQgAIEKCFyqMl4pPZChrCo6Aa+TH2dLP5dWzuBTrE3mVka+1HiVtIfkTgjWYAJt6wAY9SOSfwD/9BsMAhCAQIkEfLB7hXR3jjLK7gScIF82zuFP7E0XVoY/lM6Q+l2W0MdYEwi0sQNgrg9K7pF7WA6DAAQgUAaBG5Wp9zO3F8i8zE5AAXdKSbK5cvU+2Iu2YQ0k0NYOgFF7luq2EksGmwYGAQjEJHCzMttCuiEg0y50AhYTn99LHwrgRNKSCLS5A2Bk7pl7eC7kR+p8MAhAAAI9At6vbC1N630Q8NqFToCPM751+YsBnEhaAoG2dwCM7EbJQ1GMBJgGBgEIhBC4TYl98Pe1/1jWhU6AWX1B8l0CWEMIdKEDYNTuBLxMusRvMAhAAAIFCHgk0fuRywqkHZXEnYDdJE+ea7P5LgE6AQ2p4a50AIz7DmkL6VwJgwAEIJCHgM/4N5N8r3tZ5lUCPyDRCSiLMPnOQKBLHQAHfq/0Kukcv8EgAAEIZCBwubbZUvLEv7KNTkDZhMn//wh0rQPgwH13gDsBZ0gYBCAAgWEELtCXnkN067CNIn/nTsAHpUMi59u07Hw5YP+mOdUlf7rYAXD9PiS9WjrebzAIQAACfQicrs+2kvIs8tMnm0If9SYGtv1ywKdFhzkBhZpIeKKudgBM7nFpZ+m3foNBAAIQmEDgKP3vBWyyLO87IVnUf3sjAcdGzbV5mTESUFOddLkDYOS9TgD3p9bUACkWAg0k8G359FbJ+4e6bW054EsQbTdGAmqo4a53AIzcvewx6T3SkxIGAQh0k4D3BT4Z+KjkIfi6bV05cKq0aN2OVFS+RwK4HFARbBdDB2A67J/q3zdKnh+AQQAC3SOwu0Iea0jY68uP06SuHPx72Lkc0CNRwSsdgBkh/0FvN5VunPFj3kEAAh0g4GeHzN6AOH3m/ydpkQb4UocLXA6oiDodgJlBX6KPNpF8+w8GAQh0h8BOCvUIqc5OQNeG/Qe1Li4HDCIT8XM6AP1h+p7fLaST+3/NpxCAQEsJuBPwC2m2GuLr6rD/INRcDhhEJtLndAAGg/RcAA8J/o/UhAlBgz3lGwhAICaBtyizI6UqRwJ85v9HqavD/gq9r3E5oC+WOB/SARjO0bOCvVLVGySvIIhBAALdIFDl5QAf/E+RFusG2txRcjkgN7JsCegAZOP0e222oeT5ARgEINANAlV0Ajj4Z2tLdAKyccq1FR2A7Liu0aYvkQ7JnoQtIQCBxAmU2Qng4J+vcdAJyMdr5NZ0AEYimmGDR/XOz+x+n/TEDN/wBgIQaCuBMjoBHPyLtRY6AcW49U1FB6AvlpEf/khbbC1V+YSwkU6xAQQgUBoBdwJi3R3Qm+3PNf9i1eVOAE8RLMZuhlR0AGbAkevNWdp6LemYXKnibOzHGb82TlbkAoFSCbxCuXsSbdXm0brY5rsDDpdCbhH0wd8T/haRsOIEfHcAnYDi/EgZkcAuyutByXcNVKlzVJ5HIrKYe81V+tbksubIAmzCNu4oNzmeKn0bm8Bl2L8b60uvY1+lby7rEWlP6XmS5+2UUb6fFFjkFkEP+/vRwmX41NU8eXaAGhRWP4GpcuFMqY4fokcjRj0xjA7A9LqhAzCdRd72Oqa2NszW1Jc+QHrtjLx5h25/rspcXepZkzoBHPzLaw90AnotntdaCfisYB/JTxUM3ZkVSX+cyl1P6md0AKbXCR2A6SzytrOxfo1Ln71YquvA79+bn+LX76x8BX1+rZQ3zizbH6l8s1wO8LD/vSX5kMXPLmzD5QA1MKwZBDaSG1dJdf3wPCKw3SQUdACm1wcdgOks8rbRsUntyh3Oug789v06abNJPk1+W+dIwDpyhmH/4u0tT/tkJGByy+d9bQTmV8nflp6W8jTimNt6joAnYPkaNh2A6fVAB2A6i7ztbUxtaRbpNdJfpLzpY23v39VB0nxSFqtjJMCdI878q20jjARk+TWwTWUEPBnqYinWjq9IPpeq/BNr9qGI32WloQNQvD16BvuFNbelS1S+f1d5rcpOAAf/4m0s9HdPJyDvL4PtSyXga5OemfywFNq4SR/OkA5AOMM62qEX39pPmksqalVcDmDYv/72xeWAor8Q0pVGYDXl/Gepjp0nZU7nTgdgOotU2oXntawR6ZfpkYDrSvod+rkhDPs3o30xEhDpB0M28Qj4+umu0j1SKjvftvlJByCdtuffyful2IuWldkJaNvvJeV46ATox4M1j8CSculnUp2TBFP+YYf4Tgeg+R2Ap/Tb+J60mFSWraiMyxoJCGmfpI3bPukElPULIt9gAp4sdIbEj746BnQAqmNdpF377oK1pSqszDkBRWInTTltkzkBVfyaKKMwge2U8mqJHUD5DOgAlM+4SDu+Re1/F8mXyao0OgHNbA9F2tCwNHQCqvxVUVZuAnMqxSel+6VhDZnvwvjQAQjjF7v9Paj2vo+U9Z5+bRrdVlSOXA5oVruI3c6cH5cDov90yDA2gUWVoRc5qWtJ4TJ+eE3Kkw5AM3b0vq3vh9LSUhPMIwHXSk1qq/gSvz4YCWjCrw0fRhJ4gbY4QnpaYkcQjwEdgHgsi7RLt+dfSCtJTbMV5dA0qUhcpInP7ZmS6oKRgKb98vBnIIEX6ptfSXQE4uxg6ADE4VjkgOcVKaua4DfwBzXiixX1/TSpSHykicftJNXBplJZ6yrQCRBcLB0C7ggcJvkWKXY0xRnQASjOrmi78xLCRZbvVbJabAWVyuWA6ttJr339UfznHq/5MldW5HJALT8vCg0hQEcgbMdEByCMX28nPerVI1YnSBuENPYa09IJqKadTG5HEw/+veqnE9AjwSsExgm8WK+HS55MNflHxPvBTOgADGYTo9148qpHqtaQUrepCmCaFIMLeYzm6GH/3pm//p3B1tc7LgfMgIQ3EJgyZTlB+Jp0j8ROZjQDOgCjGRVpR76dz3evrCy1yd6oYIrwIE0+bsMO/r32RCegR4JXCEwi4PuoPyhdJbHzGczAyzAvIo1acMbfezsvRwvPwQx8//zHpYWktpmfQXCuRP2Xy+BkMR505j+5TdEJmEyE9xCYQMA7re2kP0vsuLIxeESsPLz4H5hlbjN/EasdpNmkttq7FRi/oXIZ5Dn499rZevqHywE9GrxCYAABT575rnSfxI4MBqFt4AG1Iy/e4x1w282Xiq6XQpmRfjDDIgf/XrujE9AjwSsERhCYS9/vJPl2rGckdkowyNMGzlOb2UOaX+qK7apA8zBi23y8PNt/nsDGVObdAd8I9I3kEGgkAU/S2le6SWKnBYNBbeBOtQ/vBNswm19h5LaLlGIQGz4PYxNy5j+5IhkJmEyE9xDIQMDXbl8t/Vri2nfYDq0tB4SH1Ra8/LTnkPjhVF21dRV4W+q0aXHEPPj32qc7AWXdBbV/rxBeIdBWAvMqMF8icGfAB4Gm7TTwp7w6eUz1fZz0FqnOJ/Kp+MbYt+QJbS4+gzIO/r1GQyegR4JXCAQQmEdp3yQdKT0ksSNsH4NHVa++73p3ybc6YjMSuFpvafdxGZR58O/VHp2AHgleIRCBgDsD20tecfAuiZ1iugzuUP39TNpB4kxfEAbYKvqcdh6XQRUH/1510gnokeAVAhEJeH0Br+v+Wcn3gLMEcdydZOyDju/2+Jf0VWkTyfWHjSbgUZHYddHl/Ko8+Pdql05AjwSvECiJgM8iXyHtJ10qdXkn15TYb1U9HCXtIS0vYfkJfEdJmlKfqfsR41a//DX4XApuESxKjnQQKEDAQ6e7ST+W/i35aXCp78Ca7v/1YuzLMz5rnSph4QT+qiyaXu8p+FfHmf/k2mckYDIR3kOgIgILqJzNpL2lE6SybtNJYWcYw0ffnXGWdJC0izRVwuITuElZxqivLudR55n/5BbBSMBkIuPvZxnwOR9DoAwCsynTF0obSWtO0NL6H5uRgJduvli6ZPz1XL36MstTElYeAc+TeEzK+8TI8jxKL2cf/N8omWNTzCMBXgV10RIc+rry9ElOckYHILkqa6XDiymqtaQXSRM7Bm18utzkCvQDTa6V/ATH3sHerzdLWPUEfEuk6wQrRqCJB/9eJHQCeiTGX+kATALC20YRcG99xQlaacL//ryM3ryyjWoPKDdPzLtNmib5YG9dN/7qM32sOQSWkiu3N8edpDxp8sG/B5JOQI+EXukATIDBv8kR8BwDz3R3R8DySMLk/3uf9UYTZtc2TmfzMO/8z/43+I+XSPbtjrZHpQelhyQf2O8ff+/PrLslH+x9APEB33IaLB0Cbk+eA4DlI5DCwb8X0br651TJ+4rYluzlgNggyA8CKRGYS856+HdUhyClmPA1PwEfFLo8ea9I7D74z50fda0p3Akoa1Ly/rVGRuEQgAAEIFCIgCeqcvtq9k6QD/5eLTRF4+6AFGsNnyEAAQiUSMCXcoqcCXctTYpn/pObDSMBk4nwHgIQgECHCfxDsXftYJ433pTP/Cc3bUYCJhPhPQQgAIGOEviF4s57QOzS9m0485/ctBkJmEyE9xCAAAQ6SGAvxdylA3qeWNt05j+5aTMSMJkI7yEAAQh0jMCGijfPQbEr27b54N9r4nQCeiR4hQAEINBBAl4r4n6pKwf2LHF24eDfa+q+HFDWRFBuEexR5hUCEIBAQwkwD2B6B6hLB/9ec/RIwF1Sls5R3m2+0SuEVwhAAAIQaB6B7eVS3h17G7fv4sG/1xoZCeiR4BUCEIBAhwh4mehbpDYe1LPG1OWDf6+pr61/GAno0eAVAhCAQEcI7Ks4sx4s27YdB//pjZxOwHQW/AcBCECgEwSWUZR+GFTbDu6j4uHgP3PzLvPuACYGzsybTyAAAQjUTsBPdxt1wGzT939SvKmu7V92Y2EkoGzC5A8BCECgQQT8OOl7pTYd5AfFwpn/6IbHSMBoRmwBAQhAoDUE3q1IBh002/I5Z/7ZmysjAdlZsSUEIACBpAnMIu9PldpysJ8cB2f++ZsnIwH5mZECAhCAQJIElpbXt0qTD56pv+fMv3hzZCSgODtSQgACEEiKwFby9ikp9YN+z38O/uHNr8yRgP3C3SMHCEAAAhCIReCdyugZqXcQTfWVg3+sFjFlCiMB8ViSEwQgAIFGE9hb3qV64LffHPzjNy9GAuIzJUcIQAACjSSQaieAg395zYmRgPLYkjMEIACBRhFIrRPAwb/85kMnoHzGlAABCECgEQRS6QRw8K+uudAJqI41JUEAAhColUDTOwEc/KtvHnQCqmdOiRCAAARqIdDUTgAH/1qaw7OF0gmojz0lQwACEKiUwJhKa9LdARz8K63+voVxd0BfLHwIAQhAoH0EmjISwMG/OW2rzJGAzzQnTDyBAAQgAIG6OwEc/JvXBsvqBHhRKj+sCoMABCAAgYYQqKsTwMG/IQ2gjxtldQK8PPX2fcrjIwhAAAIQqIlA1Z0ADv41VXSOYsvqBDwiHzbL4QebQgACEIBAyQTGlH8VEwM5+JdckRGzL6sTcKd8XDain2QFAQhAAAKBBMoeCeDgH1hBNSQvqxNwhmKZrYZ4KBICEIAABAYQGNPnZYwEeBLYRgPK5ONmEyirE/C5ZoeNdxCAAAS6R6CskQAP/b64ezhbEfFaiuIuKWbn8Enlx3yAVjQPgoAABNpEYEzBxNzZ9/KiE5BuKyljJOAG4VgwXSR4DgEIQKCdBBgJaGe9hkRVxkjAASEOkRYCEIAABMohQCegHK4p5xq7E+BLAWumDATfIQABCLSVwJgC6w3hx3zlckC6LWZduf5AxHbhO0QwCEAAAhBoIAFGAhpYKTW7tIXKf1SK1SlklcCaK5TiIQABCAwiMKYvYu3sJ+bjkQCGgAdRb/bnO8o9L/E7sT6L/n+18mFtgGbXN95BAAIdJjCm2Ivu4IeloxOQbqPy/fzD6jbPd29OFwOeQwACEGg/AS4HtL+O80Q4qzb2Nfw8B/pB216kfGbJUzjbQgACEIBAtQToBFTLu+mlLSUHb5MGHdjzfL5N04PFPwhAAAJdJzAmAHl27Fm35XJAmi1rh0jt4ZQ0w8drCEAAAt0iMKZwsx7Y82x3h/JlYmB6benkSO3hBemFjscQgAAEukeAywHdq/NBEa+qLx6T8nT2+m37xUEF8DkEIAABCDSLwJjc6bcjD/2MkYBm1XMWb74RoS1claUgtoEABCAAgWYQYCSgGfVQtxeeEPiIFNr527DuQCgfAhCAAASyE6ATkJ1Vm7f8voIL7QB8s82AiA0CEIBAGwmMKajQnX+/9FwOSKe1rCxX/ZCffvWY9bPr0gkXTyEAAQhAoEeAkYAeie6+nqTQsx7sB223QnfxETkEIACBdAnQCUi37mJ4/g5lMujAnvXzt8dwhDwgAAEIQKB6AnQCqmfelBLnkyMPSVkP9v22+2FTgsEPCEAAAhDIT2BMSfrt3EM/Y05A/rqoOsWvA+v+iqodpjwIQAACEIhLYEzZhR7w+6WnExC3nmLn9r4I9b5YbKfIDwIQgAAEqiXA5YBqeTehNC/p26/jluezjZsQCD5AAAIQgEAYAToBYfxSTH2LnM5zwJ+87TtTDBqfIQABCEBgZgJj+mjyTj7Ge18OeNHMxfFJzQSOVfkh9btvzf5TPAQgAAEIRCTASEBEmA3P6gD5F9IBOLLh8eEeBCAAAQjkJDCm7UMODIPSMhKQsyJK3vy9gfV8bsn+kT0EIAABCNRAgJGAGqBXXOQWKm9QZy3L5zwZsOIKozgIQAACVREYU0FZDgR5t7lT+b64qiAoZyCB0DsBbhuYM19AAAIQgEDyBMYUQd4DfJbt6QTU3zSWC6xbryaIQQACEIBAiwmMKbYsB/W82zAnoN5Gs1BgvT5Tr/uUDgEIQAACVRAYUyF5D/BZtqcTUEXt9S9jtgh12j9nPoUABCAAgVYRGFM0WQ7qebfhckA9zWT2CPVZj+eUCgEIQAAClRMYU4l5D/BZtr9d+bJYULXVuUBgXT5VrbuUBgEIQAACdRMYkwNZDup5t6ETUG3NLhVYj/dX6y6lQQACEIBAEwiMyYm8B/gs23tOwJpNCLADPqwVWIc3d4ARIUIAAhCAQB8CY/osy0E97zZ0AvrALuGjbQPr7/ISfCJLCEAAAhBIhMCY/Mx7gM+yPZcDym8AewTW3V/Ld5ESIAABCECgyQTG5FyWg3rebRgJKLfWDw6st5+V6x65QwACEIBACgTG5GTeA3yW7ekElFf7ZwbW2WfKc42cIQABCEAgJQJjcjbLQT3vNr4c8MKUQCTgqxcBekDKWxcTt98pgThxEQIQgAAEKiIwpnImHiRi/c9IQNwK3CBCPa0d1yVygwAEIACB1AmMKYBYB/6J+TASEK9lhD7u+Um5Ml88d8gJAhCAAATaQmBMgUw8eMf6n05AnBby58D6OTeOG+QCAQhAAAJtJDCmoGId+Cfmw+WAsNayjJJ7Gd+JTPP+f0CYC6SGAAQgAIG2ExhTgHkPLlm2pxNQvOV8LEKdbFe8eFJCAAIQgEBXCIwp0CwH9bzbcDmgWAu6KLA+nlb6RYoVTSoIQAACEOgagTEFnPcAn2V7OgH5WtLmEerh/HxFsjUEIAABCHSdwJgAZDmo592GTkD2lnV0hDpgAaDsvNkSAhCAAATGCYzpNe8BPsv2zAkY3cT8lEUP32fhOWibZ5R+pdFFsQUEIAABCEBgZgJj+mjQASbkczoBM7Oe+MlxEbj/bWKG/A8BCEAAAhDIS2BMCUIO9oPScjmgf028TB/77H0Qt6yff6R/9nwKAQhAAAIQyE5gTJtmPfDk2Y5OwIx1MIfeXhKB9RPKY6kZs+YdBCAAAQhAoBiBMSXLc3DPui2dgOn1Ebrsb4/5IdOz5D8IQAACEIBAOIExZdE7yMR8ZU7AlCkvFttHI/D15YMXSRgEIAABCEAgKoEx5Rbz4N/Lq8udAD+s5/JIXD2BEIMABCAAAQiUQmBMufYO3DFfu9gJmEUsj4zIc1PlhUEAAhCAAARKIzCmnGMe/Ht5eU7AGqV53byM943I8YzmhYdHEIAABCDQRgJjCqp34I752pVOwHvFL8Ytf2bvpwauK2EQgAAEIACBSgiMqZSYB/9eXu4EtHky27sUX+hqfz1Wfv2+hEEAAhCAAAQqJTCm0iYejGL9f7fy3ajSSKop7D0qxmfsMTktVo3rlAIBCEAAAhCYkcCY3sY6oE3M5yHl+6oZi0r63T4lcPpA0kRwHgIQgAAEkicwpggmHrxj/e+z5U9JnjGfqvlWv8OlWEx6+ZylPGdLFQp+QwACEIBAewiMKZTewSn261HKe5EEUfmuhktL4HKv8lwhQR64DAEIQAACLSUwprhiH/x7+d2mvLdLhNus8nMP6WGp53/M1+0T4YCbEIAABCDQIQJjijXmwW5iXr517pfSclJTbUM59g9pot8x//9OUwPHLwhAAAIQgMCYEMQ86E3Oy2fW+0gLSU2xleTIEVKs+/snx+z3F0hzSxgEIAABCECgsQTG5Fm/g1jMz+5XGV+SlpLqsrVU8C8kP4o3ZmyT85qm/JeVMAhAAAIQgEDjCYzJw8kHsjLeP65yfiO9UqpiZvyCKmc36QypzDP+Hqu7VM7qEgYBCEAAAhBIhsCYPO0dyKp49cHyp9IbpZiL5HjW/fukY6X/SFXE4jJ8ueMlUiFL+f7JQgGTCAIQgAAEGkVgTN7sU4NHPoBeJnlSnh+76/+vl9xJsCabRw8WlVaUVpaeL60vbSAtL1VtT6pAd2T+UHXBlAcBCEAAAhCIRWAvZVTFcLkP+lnkg6vvp+/JZ9pZ0lW1jf3ZVsIgAAEIQAACyRN4myLw9fqqDqKplnOPGG2afG0TAAQgAAEIQGACga30/wNSqgfnsv2+XmxeIGEQgAAEIACB1hHwNfVbpbIPpqnlf76YcKtf65o7AUEAAhCAwEQCS+jNiVJqB+my/D1MLOadCIj/IQABCEAAAm0l4LvU9pS6PC/Aixnt3NYKJi4IQAACEIDAMAK+z/06qayz66bm60f6en0BDAIQgAAEINBZAh7+HpMelZp6wI7ll2899MhHFasWqhgMAhCAAAQg0HwCq8rFE6RYB9sm5fO04vK1fs9/wCAAAQhAAAIQ6ENgO312hdSkA3iIL6crlnX6xMlHEIAABCAAAQhMIjCr3rsjcLYUcvCtK61XPvRoBov6CAIGAQhAAAIQKEJgMyXywbRJywkP6lj40cAe6n+RhEEAAhCAAAQgEIHAisrDE+gukAYdgOv6/Lxx35bWKwYBCEAAAhCAQEkEfE3969JVUh0H/adUrg/6e0vumDTOeBxw46oEhyAAAQhAIDKBpZTf5pIvFfia+7qS5xDENM/iv0j6m+R7+E+TfEtfY40OQGOrBscgAAEIQKAkAgsr39Uk31bo1+dLK0uLSvONaxG99sxn8w9JD0r/ke6SrpaumfTqdQqSsf8Ph6UGHwUY40EAAAAASUVORK5CYII=;" vertex="1" parent="1">
          <mxGeometry x="687" y="276" width="60" height="60" as="geometry" />
        </mxCell>
        <mxCell id="LyOnRgsCxliph8Pk22Rh-73" value="&lt;font color=&quot;#000000&quot;&gt;Ad-hoc&lt;/font&gt;&lt;div&gt;&lt;font color=&quot;#000000&quot;&gt;SQL Queries&lt;/font&gt;&lt;/div&gt;" style="text;html=1;align=center;verticalAlign=middle;whiteSpace=wrap;rounded=0;" vertex="1" parent="1">
          <mxGeometry x="672" y="340" width="80" height="30" as="geometry" />
        </mxCell>
        <mxCell id="LyOnRgsCxliph8Pk22Rh-74" value="" style="shape=image;verticalLabelPosition=bottom;labelBackgroundColor=default;verticalAlign=top;aspect=fixed;imageAspect=0;image=data:image/png,iVBORw0KGgoAAAANSUhEUgAAAgAAAAIACAYAAAD0eNT6AAAAAXNSR0IArs4c6QAAAERlWElmTU0AKgAAAAgAAYdpAAQAAAABAAAAGgAAAAAAA6ABAAMAAAABAAEAAKACAAQAAAABAAACAKADAAQAAAABAAACAAAAAAAL+LWFAABAAElEQVR4AexdB9gdVbU9KaQTSCWUQEhoofdAgAQignSkKCoEQTqKYm8PIiCgPAUstAcoAVQUEanSIhB6CL0GUkgCpJLeC28tzMWbm1tmZp+pd+3vW/8/d+bsffZeZ8qZ08Y5iRgQA2JADIgBMSAGxIAYEANiQAyIATEgBsSAGBADYkAMiAExIAbEgBgQA2JADIgBMSAGxIAYEANiQAyIATEgBsSAGBADYkAMiAExIAbEgBgQA2JADIgBMSAGxIAYEANiQAyIATEgBsSAGBADYkAMiAExIAbEgBgQA2JADIgBMSAGxIAYEANiQAyIATEgBsSAGBADYkAMiAExIAbEgBgQA2JADIgBMSAGxIAYEANiQAyIATEgBsSAGBADYkAMiAExIAbEgBgQA2JADIgBMSAGxIAYEANiQAyIATEgBsSAGBADYkAMiAExIAbEgBgQA2JADIgBMSAGxIAYEANiQAyIATEgBsSAGBADYkAMiAExIAbEgBgQA2JADIgBMSAGxIAYEANiQAyIATEgBsSAGBADYkAMiIHsMtAiu67JMzEgBnLOQA/4vy2wNbAN0B9YF+gMrAOsDVAWALNW/Z+K/2OAt4C3gReB6YBEDIgBMSAGxIAYyCgD7eHXAcCvgNeAjz1gJWy8DFwBHAYwD4kYEANiQAyIATGQAQb2hg/DgYWAj4d+PRtzkMcNwGBALZggQSIGxIAYEANiIEkGOiCzc4DXgXoP7DiPjUXeZwBtAYkYEANiQAyIATEQIwNtYPss4AMgzod7GNvvw5dvA+oeAAkSMSAGxIAYEAO+GTgOBscBYR7OSaalbxwnIBEDYkAMiAExIAY8MNALNu4EknyYW/Kirxt7iFsmxIAYEANiQAw0LQN8658BWB7Iaeh+BJ+PbNpSU+BiQAyIATEgBiIy0Ap6lwJpPLx95nktYuC4BYkYEANiQAyIATHQgIEuOP4Q4PNBnKatkYiFMUnEgBgQA2JADIiBGgz0xX6uxJfmAzuOvF9FTBvWiFm7xYAYEANiQAw0NQObIPoJQBwP4CzYZGxbABIxIAbEgBgQA2JgFQMb4f+7QBYe1HH6MAkxaobAqkLXPzEgBsSAGGhuBrohfH54J84Hb5ZssztAYwKa+5xX9GJADIgBMQAG7gCy9IBOwhcODNTsAJ3+YkAMiAEx0LQM7IPIk3jgZjGPy5u21BW4GAAD+pqWTgMx0NwM3ITwh8ZJQfe127p9tu7pttt4HbfFBp3dxj06uHU7tnGd2rb+JNuFS1e4mfOWuEkzFrp3PpznXhw/yz319nQ3Y+6SON2ibVZKjgK4cqBEDDQdA6oANF2RK2AxsBoD/KIep/55lc4d1nJHDejtjh24sdsWD/6WLcLdaj7Go/mlCbPcHc9Mcnc+N9nNXrDUq39lxmZheweAgwMlYqCpGAh3VTYVNQpWDDQFAwsQJT/t60X4tv/1g7dwX96nj2vfppUXmwuXrHC3jpzgrn3wHTd19mIvNiuMsAXg8xX79FMMFJ4BVQAKX8QKUAzUZWAujq5dN0WAg61btnBnHLj5Jw//jqua9gOohUqyYMlyd/ndb7kbHhnnlq9YGUo3QOJDkebeAOmURAwUhgFVAApTlApEDERi4Hlo7RJJc5XSZr3WdlecvLPboU8yM+tenTjbnXXdKDdhGhsvvMk4WNoWWOTNogyJgYwz4KeNLuNByj0xIAZqMsAFgAbXPNrgwJDt1nO3fGug27h7xwYp/R1eb5127gsDN/lkwODYKfN9GWbtZTrwrC+DsiMGss6AWgCyXkLyTwzEy8AmMP8m0D5sNscP6uMu+vIOrhWa/9OQFSs/dj+65SX35yfe85X9+zDUD4h9+oEvh2VHDFgYUAuAhT3pioH8MzAHIawA9g8Tyhf32sT94oSdXMuUHv70lTML9t9+fTdl9iL32kSGYZbOsDAJGG22JANiIAcMqAKQg0KSi2IgZgaehP0NgEBjAfjmf+kJO4ae2hdHDJxdOGS7Xu6NyXOdp+6A/vDzd3H4KptiIGsMtMyaQ/JHDIiBxBn4GDmedtKQvvet3X6tmpnz2EVf2t5dcnw2Hv4lR9kFceXJu7g+Pb2MQ9gMdvcu2dZ/MVBkBtLpvCsyo4pNDOSQgXd+c1Dndu3aTpi/eHkXLr7z9Nsz3HszFnzylr9x9w5u4FY93GG7bujWwQI/WRXODjj8ksd9TBG8HjGemtU45ZcY8MWAKgC+mJQdMZBjBiZed8R3W7gWl+U4hE9cv/Bvr7nrHnrXGgYHFKwPaEqglUnpZ5oBdQFkunjknBhIhoEWH7c4MZmc4s3l3MO2cj06t7Nmsg4MDLEakb4YyDoDqgBkvYTknxiImYGJ1x21Gz4LxkVwci+d2rV2px/Abnyz7Ge2IANiIOMMqAKQ8QKSe2IgfgY+/lL8eSSXw/GD+3zytUFjjp8x6ktdDGSeAVUAMl9EclAMxMsABgIdEG8OyVrntwgO321Da6bbw0B3qxHpi4EsM6AKQJZLR76JAf8MsKn/CuA1YD7m0S/4zLCHtxl226vu7ff5XaBiyNF79LYGwnvjTlYj0hcDWWZACwFluXTkmxjwx0AbmPoNcAOwJ9AT4L61Zs5b6l4cP+uTT+5ye5/+PVJb3hf+eJFe67Z3wx8b7xYt5SKHkeU5aBISMVBIBlQBKGSxKigxsBoDfNDfD3wBqDn192MsB/TShFlu9NiP3BG7bZTrSgBXCHzlvdluzAfzViMi5I+xSE/eJGKgkAyoC6CQxaqgxMBqDFyOX0NW21PnxxNvTXcX3s4egnzLTn27WgPY0mpA+mIgywyoApDl0pFvYsDOAPv8Tw9rZvij461vz2Gz9J6+33qdrDZ7WQ1IXwxkmQFVALJcOvJNDNgZOAUmQnf18VO7f3ligj33FC1sup752wBrp+i+shYDsTOgCkDsFCsDMZAqA5+Nmvvjb06PqpoJvXU6cOiDSVQBMNEn5awzoApA1ktI/okBGwMbR1V/f+bCqKqZ0OOqgEZRBcBIoNSzzYAqANkuH3knBqwMRH4NxpcB3bLlK63551m/5oyJPAcl38VAiQFVAEpM6L8YKCYD8y1hLViy3KKeqi4rMEYxzSE05i11MRA7A6oAxE6xMhADqTJgqgDMXrAsVectmc9ZuNSiTl1VAKwMSj/TDKgCkOnikXNiwMyAqQIwYbpJ3ey8xcD4qQss6tTNb/DWyKXfFAyoAtAUxawgm5iB9y2xj52S32fg2Klm3ydbuJOuGMg6A6oAZL2E5J8YsDHwjkX9hXGzLOqp6r6AJY2NYuLOmLfUxUDsDKgCEDvFykAMpMqA6SH2FJYF5jcC8ib0+ekxM6xum7izZi59MRA3A6oAxM2w7IuBdBl425L9jHlL3Mv4QFDe5IXxH7mZ8N0oY4z6UhcDmWZAFYBMF4+cEwNmBp6FBdNk/r8/M8nsRNIG/v602WdyRu4kYqCwDKgCUNiiVWBi4BMG2BH+moWLO5+b7BYuWWExkagu1y64+3nT2Ef6+zIwO1HHlZkYSJgBVQASJlzZiYEUGHjMkufsBUvdrSMnWEwkqnszvmRIn43yuFFf6mIg8wyoApD5IpKDYsDMwCNWC9c++I7Lw6qAXP3vuofGWsOl/sM+jMiGGMgyA6oAZLl05JsY8MPAAzBjas6eOnuxu+Ie03hCP5E0sPLru9500+cubpCq4WGOenywYSolEAM5Z0AVgJwXoNwXAwEY4BPxjgDp6ia5/uGx7tWJpnpEXfvWg6++N9v9YcQ4qxnqkytzH4IPR2RDDMTJgCoAcbIr22IgOwz82erK8hUr3VnXjXIePrJjdWUN/XmLlrkz4dvylV4WLfjLGhlohxgoIAOqABSwUBWSGKjCwL+xz7ywzYRpC9w3bxztVvh50FZxM/wuPvS/ecNo995089r/zPxNwDxmInwU0hADyTPQKvkslaMYEAMpMMBXYzZrH2rNm98HmDZnidt/+16uRQurNZs+V/z74S0vubtGmaf9lRz5MTZeKP3QfzFQZAZUAShy6So2MbA6A1wP4GvA2qvvDv+LYwEmz1zoPrNDL9cypVoAWyF+/KeX3Z9Hvhc+gOoa07D7ZGB59cPaKwaKxYAqAMUqT0UjBuoxwNV82O332XqJgh57Y/Ic9+bkue4z2/VybVon25vIPn+OR+AiRR7lp7D1hEd7MiUGMs1Ayg14meZGzomBIjLQFkG9DvTzFVyfnh3dVaft5rbbeF1fJuva4Wh/Dvjz1OdfymsMNrYFlpV26L8YKDoDagEoegkrPjGwOgNsBZgAfGn13dF/zV6wzN32xHtu1vxlbrfNusXWGsDliH97/xj37T++4D6a732W3lfBwFvRWZCmGMgfA2oByF+ZyWMx4IOB+2DkIB+Gym306NzOnXHgZu4rg/q4jm1blx+KvM0VCG95bIK7BqsRzphr/sJfNT/uwc7Dqh3QPjFQZAZUAShy6So2MVCbgQ1xiB+86VY7SfQj63Zs447YfSN31ICN3E6bdg09W4Cj+/lJ3zvwJcJ/op9/zsLYWuanI8rtgSnRo5WmGMgnA6oA5LPc5LUY8MHAkTDyDx+G6tnotnZbN3DL7m6nvl3dZr06uY27d3Rd127jOq1qIZiPN/yP5i11E2cscO9+OM+9MG6We3rMDDdzXixv+5Wufh477qzcqd9ioBkYUAUg/6XcEyEMArYBtgK2ALoAHJHVCaDMB2YDXOOcC7qzr5MDwUYCnPokaV4GrkboZzRp+L9H3F9v0tgVthgQAzllYFf4/WvgVWAlwEVeooC6rwC/AmhT0nwMtEHIXPkuyvmTZ52HELOfQQrNd84oYjEgBhJmgIu3fBd4A4jrxstWge8A5oViYEOSHwbYWsSyj+u8yppdtoCxlUwiBsSAGMg0A13h3c+Aj4CkbqQzkdcwQDdJkNAksgfiTOr8SjufBxGruj+b5MRWmGIgjwzwBjUUmAqkdcNkReCbQLLLvCFDSaIM8Fy7B0jrPEsjX7Z0ScSAGBADmWNgM3j0BJDGjbFanhws6G3luMyxLYfOytC5Vu38i2MfpxjsoqIXA2JADGSJAU5L4mj9OG56Fptz4NMXs0SUfPHCAGeOLAAs50Zedd9B3Brv4uU0khExIAYsDLCZ/VdA1m+ml8FH9Z9aSjo7umvBlVFA1s+5OP27MTvFIU/EgBhoRgY4HYk3ojhvdD5t3wJf+fCQ5JuBi+C+z/Mir7a+lO9ilPdiQAzklQE+SPM4AOtu+K1KQF7POucGwnV+9z6vD22ffrPLrQ8gEQNiQAwkxgCb0v8I+LyZJWnrVviuGQIgIWfSEf7y87dJnitZz+tZ8KEKbc5OZLkrBvLMQB76/BvduH+R5wJoUt9vQNyNyrUZj1/QpOeDwhYDYiBhBr6A/Ipwk+VywkclzJ2yi84AZ5kU4bxjDFwVkx/y8RUPu0QGARIxIAbEQGwMcE49P87j68aVth32ofaNjS0Z9sUAPxzFz96mfb5Y8l8E//8K7A+wC40DaJ8ELDbLdSfBVjdAIgbEgBjwzgBvWk8A5TedImw/hpgYmySbDLBs7gPydq6xhellgNNPPwu0ByqlD3b4rFDfXpmBfosBMSAGfDBwMozk7SYc1N+hPgiSjVgYyNJqfysQ4TyA59ViYDowFhgNcJ3+3wJnAvsB3YEgwkWqgp6nQdKdGiRTpREDeWZAb2zJlh4/7PM2EPSmFti7tp3WdlsMOsD1HTDI9dpqW7fuBr1du87rfKK/eO4cN/uDSW7KW6+6cc8+7sY89qBbsmB+YNshEk5F2i0BrhooyQ4DLJMXgA6eXOID1HLvYAvYPp58KTdzI36cVL7DsL0QursCbxpsSFUMZJoBy0Wc6cAy6tzP4Nd5Pn3r1qef2+dr33LbHXyUW6tdtdbRNXNbtniRe/Xev7uRN1zpZr7HFy+vwvgu9GpRxiwMcGrbUwAfZj7kcRjZE6DdqMLR9udHVa6j1wnH2IqwRZ00YQ6x62EAwO8GSMRA4RhQBSC5Iu2MrCYAXXxkuVa7dm7IN37i9jzhdNeyFcdBhZcVy5e5p4df40b87mK3fIm3e9xMeNIHiKWJIXyUTa/BythPPbHApvrvA38w2tsX+o8ZbdRS3wUHWOFpUytByP1XIv23QuoouRjIBQOtcuFlMZz8BsI43Eco3Tbp5756w52u/2cOdi1atoxssmXLVm7jnQa4vnvsi26BB9zShfwmjFnYzMxKwNNmSzJgZYCr/bFZPPpJsroHX8FPtiTQblRh0zqvBY4DiEM+hFGOKzjAk3G2AIwC+OEgiRgoFANqAUiuON9AVv2t2a3ff3s39LrbXceu3a2mVtOfO/UDd/MZX3BTx9BNs7wGC9uZrciAhYG1ofwS0NdipEz3BmyfAowGdi7bH3bzISj4ejjXypsVnvs95jMNtnYAOIVSIgYKw4CvN4PCEBJTIHxrMj/8+eYfx8OfMXdebwN3/NW3uU7de/qgYFsY2cmHIdmIzMAV0PT18OdAETaDcxDrjoBFRliUA+quRLoTAT64fQgvipsAvTD5YFM2MsOAKgDJFMWXrdmwz/9LVw73/uZf7tc6vTZEHje71m3alu+Ouv2lqIrSMzPweVg42WzlPwa4Ot4JwHxgX8B6z0iiAgA3P3lbPwn/OWPBh7DV4js+DMmGGMgKA9aLOStxZN0PLmBiEg7467m5uRGhoQ+9d9zNDTrt3IbpAiQwxxwgDyVZk4Fe2HXdmrsj77kEmqXxHEMiW/mP4mz8YxdCUnIfMvqNx8x+DlscZCgRA4VgQE1a8Rcjmw/ZdxiZa071+8ZdT0ce7R82RA4GvOKgXdz8GaYWVDbDrgfMCJu/0kdmgOfYvcBBkS2srsjBb3sBy1btfgP/LbXQf0L/yFW2kvrH5qxnAfbh+5AxMMJKAFtEJGIg1wyoBSD+4huELCI//Oke5/lHneoXJbw2HTq6fc/8fhTVch2eW4xdkhwDZyIrXw//hbDFpv/Sw38DbFse/lB3STX/M6+ScH4ru6MYjw/ZAkZ8tir48Ek2xEAkBlQBiERbKCUOiIssXOGPi/wkLTsecZxr25HrqphkG5O2lMMwsBUSXxZGoUFa9ne/XZbG2vxPU2lUAJjvm4CXfi0ag5wEmMf1fGJJf8RAigyoAhA/+XxjiCxc3jfoCn+RM6mi2KZ9B7f5IHM3/pZVTGuXfwbWgsmbAa7B4EPug5FrKwztV/E77M+pUHg9rJLH9BwX8XeP9q6CrT4e7cmUGEicAVUA4qfcVAHg2v5piYe8TbGnFXcO8z0PPnOqqQ+ZDiNfAypHz3/GaPzfVWwaTYZWPxUak0JrVVfghzZuBaItw1ndpvaKgUQZUAUgfrq7W7Lgh33SkvW2MLfgm2JPK+6c5TsQ/v7Io89nwVblgjf9sG8TYx6PGPV9qM+Cka8AK3wYgw1y/z+ebMmMGEicAVUA4qfc1JHeZcON4/ewRg5de1vv+Y6r0UniY4D8DgdaecriBti5vYqtIVX2hd3FFoAsyEg4cbFHR34CW+k103kMRKaajwFVAOIvc9NDkIMA05K2nfj9IpOk57zJ7dwoXwlP+XbuQ8bBSK2BctYKwETYHuvDSU82LoCdJz3ZYuWLXQHdPNmTGTGQGAOqAMRPdTNz7OvNNP5Syl8OR8Bljkb3IVzt73hgXhVjLbBv3yr7w+x6OEziBNIyXk4NZJeAD9kIRjjIUCIGcsVAMz+ckiqoRZaMlsyvdk+2WAyuu2T+3OCJq6dcit18gEj8MsDV/q73aLJ8tb9KsxwIwvwsMsKiHJPuJNjlugm+hHN1T/NlTHbEQBIMqAIQP8umJ/hHk9+L38MaOXw0yZw3p6XRCJuq2U+qFgGQYBRWqG4EfA2wHAVbF9bxaUidY0EPZaX/v9Lf27DjD5U7Db8vh651sSRD9lIVA+EYUAUgHF9RUn8QRamkM/Xt10qbif+f4ifv3nD8HOAx4H3gGuAAYC1AEp4BvrUeFF6tqkblan/VElkrAFyEx3QNVHPK4z6em2M82WOF988Alx+WiIHMM6AKQPxFxKbGyDLu2ccj61oVxz3DZ7ZX4bcBTgceADjV7I/AYUA7QNKYgS2R5LLGyQKn+C5Svl0nNVtsBtc5HuRQFpv/y/2ejx9fBthd5UN2gJFf+DAkG2IgbgZUAYibYePqZ28/+oDjx3mSlqWLFrp3RsY6dqsrYjoRuAuYCdwNDAU0cwAkVBEuODMc8LXaHythbI2pJ7vg4Lr1EgQ49kiANGknGQ0HOJ3Pl7BVgRVbiRjINAOqAMRfPK9YsuDD/7X7/2ExEUn3lXv+lmTFgw+1Q4GbgKkAAz4esD58YKIwcj4i2d1TNNNh56vAxw3s7dfgeKPDK5HAezNSo0wjHv8V9B6MqFup1gI7OEjTOniy0q5+iwGvDKgC4JXOqsaeqro3xM6RN1zpViwvfZQthGLEpCuWLXUjr+e4vVSkPXLlJ2NvBlgZuB84BegBNKsMROA/8hj8abBVudpfNfNDqu0Mse9FpP0oRPo0k7IyxBapaZ6c6Ak7rNDqHuuJUJnxz4BOTv+cVlrkwLd6/ayV6df4PfO9se7p4Y1aa9dQi7zjyT/+3s2aPCGyvkfFNrD1OeD/gA8B9iefDWwINIuwS2Q4wP54H8LV/u4MYIgD2fYOkK5ekqz3/1f6zkrRSUCjlpFKvVq/D8CBb9c6qP1iIG0GVAFIpgTutWYz4ncXu0kvP28101B/4kvPuUev+mXDdCkk4ANwP+B3wGSAX5YbBmwBFFmSWu2vksM9sMM63iBvFQBycB/wG254kothZ4AnWzIjBrwywL4qSfwM8Gb6tDWbTt17utNve8St0yueF+B506a4a744xPF/zuQN+Ps34K8At4siRyCQIG/rQeJlfzwrUI8HSYw0PwPOC5i2WjKOqu8GcJR93oStH88AO3py/F3Y2RkwrQniyReZEQOfMqAWgE+piHXjWVh/x5rD/BnT3C1nftHNnfqB1dQa+nOmvO9uOu3oPD78GcvWwPkAWwWICwBfN2+YSkU4gIwDyXwJ30SDPvyZ5xBjxs9BP48Pf4a9BPgysJA/PMhmsJHaoBoP/stEQRnw1a9YUHq8hsWFbw60Wlwwc7p76a7b3Ebb7+rW3YBr7Nhl0kuj3B+/diT6/d+zG0vfQg+4MBg4AzgJ2BTgg2gSkBdpAUf/AviqxHCa21CArQBBpCMSsRnccn/4A/QfBfIqM+A44Ws6306wxZeAVwGJGMgEA7zRSJJhoAuyGQ+s4yO71m3aukGnnesGfvXrrk37aF21HO3PAX/s81++lC89hRaOG7hjFZ7A/xUZjvYs+PZ7T/7xLZbNz2EGon4O6Tn7wiL7Qvkxi4GM6N4OP4725Msc2GGlboInezIjBkwMqAJgoi+08oXQ+GlorToKHBew75nfdzsecVzgigAX+eE8/5HXX1GUt/46DFU9NA177wT+DvwbWAZkRbaEIy8A0Wp1a0bBysTVa+6uu+eXOPq9uinqH2SloytQhFolK+4vA36a25x7CrbYQrUckIiBVBlQBSBZ+nkzGQN0951tmw4d3RaDD3Cb7r6PW3+r7VyXjTZ27db+T2PD4nlz8KCf6D588xU3/rmRbszjDyW5yI/vUH3bmwWDdwFsHXgQWAykJewm4gNiV08O3Ac7hwIfh7T3PNLvElKnPDl5NHd3lRtMeXsQ8h8BWLpEykPgi8B55Tu0LQbEQHMwcDrC5A1ZyB4HfHO9GxgKdAaSlouQoa/zgqv9cSBhWFkXCnw7tfjxg7CZ5iA9B5ZaOCnXZffTfjmIWS6KATHgmYGWsDcSKL8hFGGbMXHa2k3ARwWIj5WBfwAnAHwoxi0DkYH1wVt+Hh0Z0eHPQ6/cTpTt3SLmnWW11nDuSQ/clPicCFvsJpGIATHQZAz0Q7wcmV66GeT9/1zE0resDEszHq7DPva35z0+9mVzUNypAGcZ+Bau9vcu4Iun6w0O/tboB7tUWhnyz7JqHzjH+HyVEwcYSsSAGGhCBo5DzL5uJGnb+WKd8mOLx97AlcAkIG1frfmz+ZazCL4J+FqR6UaPvIyFLVYoosobULRwxFaTIssxCM7CT6UuK5USMSAGmpCByxBz5Q0hb7/DTFfjoNM9AMbNB1XeYq30dyVi4KC97wKbAlGETfWVdqP+ZhcCuxKiyvpQZExR86feOVEzz5GezwrbAsTdP0exy1UxIAY8McAH4jWA5Yabtu5o+N8mIh/bQG8YwFHnacfhI//XV8WzNf4HkZ5INAXwkTdtXBAk0zppvuLBF5Zp0aUjAnwL8FVur8IWv4IpEQNioMkYYBP5zYCvm0kadi70UGYcQ8BmdTavW99C0+CgMk+2cLDbg90frOhVCvfdA1TqRf3NihjHXljkBihHzZ96/HxztVgtPmVVd2c4xrEhFr7Kda/IaqDySwyIgXgZ4AhjLv1afkPI07a16bmSXVYG2Kz+NFCUygAX12H3R+kBeRa2fZUxm5G5gJBVxsOAxac/WR3Imf53jHyVc83z/OCcxS93xYAY8MQAHwz/A6wAym8MednmG69l8BnUqwoH2n0D+DfAikZe+KjlJwdCXgXwoV0rTdj9rExYhZWusPlWpj/F6kTO9HnNPuCBtxKPbEHplTMO5K4YEAMeGeA67DOB0k0hT//ZhByndIPxocDdgM/m1zxxXOnrv8BFqVUBm5GFo9ErbYf9vWnk3POryHEcH3rgrsQ1V1Fkt6BEDIiBJmWgH+JmX3jpppCn/1xIJgnpgkxYGbgTWAjkiSNfvk5H3L7eGNl8b/FrPPSbVdh077Orit1fEjEgBpqYAb4FnAHwJm+5MSet6/OhFLT4OyHhF4DbgHlA0jGnlV/U1f5A0WrCFgTrW2zcrT+rOZzBHxzE5+s8YOvWLhmMUS6JATGQMAPrIL//A3zdXJKwcx/89dEsHYXqdlA6ArgJKMKSxLXKy+cDdxtwVSufoPs5hbCZpS2CfxEIylejdG/DFiu2EjEgBpqcAU6Pa3TDyNpxHwPTrMXOaXEHAtcCHGCVNY6i+jMfsXDQni/hIMuovlCPzd/r+3Imx3b6w3efgztvzDEXcl0MiAFPDNwKO5YbdD3dN2D7l8DuwNke8/E1NQ0ueZFWsLIv8BuAI/HrcZKHY5wRMQL4OsCZEhb5B5QtMb9uybxguj4GU5aXxXEF40fhiAExEJKBd5G+/KYQdpsP4/eAZwH2kw8DjgbWA8qFzfZsvg9rv1b6UbDFt/CsCePcA2DFh9MXa/mfl/0rEAOXJP4OsCkQRlgxmgVYYv1tmAybIO3tRj7Ly2I2bPVpAs4UohgQA1UY6IZ91hHGnFoYVHoi4RSg/CZk2b4waMYppmMf+DDgecASa1Z0+UbOeLYGGsluSGD1O6mZH41iycrxdeHIBMDKa0mfFfcsVqThlkQMiIE4GTgYxks3gij/WXlgJSKMHIHEUfKqpsO308FhMk85LfvWOeaC0zCtFa9qfCS9jy0c9ZYk/gGOW3xiV4S+aw8SKmQf/Pa5cNUFFfb1UwyIgSZgYBhitNyg34nI0Y3GfMt9HgdbnSP6kabaJsi8VBlgRaY8pjxuj0cMlZWBB4xxsZtHUp0BPrR9nSc8//arno32igExUFQG7kVglptI1PXZuawv3x4teZfr3pDzAuJAOw64+zfg882unKMktyciDs5d5/gQS74cRyGpzkBr7GZLkoXfcl2WmVpbqnOtvWKgcAxwsNp0oPwmEHabb7BRhd+W9/mwOzaqIxnT4014KHA3sAQIWyZFSs9plpLaDPTGIZ9Le/+9dlY6IgbEQJEY6IdgrA8Ljna3yEVQtvpQ0mdlpmjzxTngixWb4cA8oBRrM/xn5acjIKnPwDE47PN84FRDiRgQAwVngHOALTeOpdBvb+SIo499jo7nNEO2bBRReiEoTtuylFmedB8vYiHGFJPPMTXstukfk58yKwbEQEYYuBx+WB4IvgZobQY/fL7dnpURfn27wXEOlvLKm+4w3wQW2B5bSt4CfJXxq7BlrdwXmG6FJgbyz4B1ANFVHik4G7Z83bz4BrOlR9+yYOpIj/z44jluO5ch5h5ZID8nPuwCP32OGeEgTokYEAMFZIBN7wsBy038RI+8sNn+HqM/5bGMhq02Hv1L05TvxZPKecr69goQz4oqB5tulGYh5CRvfurXV5muhK3DchK33BQDYiAEA3xbsN4ofPcT+n7Q5WGVwEZF5rtiZC3ztPVfB2HDgC0aEdekx32fL9PAY9EG1jbpqaGwxcB/GTgDm5ab+Rzot/yvOW9bXPbV4le5LqcYcqphnuVMOF8ek2WbXSO/APgQtdjJiu4LiOMngO+KKEzmWjhYdCrgq5wegK04rvVckyznxUCeGbCOGn4kxuCtvpXf+MbCz7Vj9DVO0xzHwId2eTyWbVYmSrIVNvjwZFeJxWZWdF9GHJy+xq4tiXNc4ptN+L7Kh10LEjEgBgrCwGuIw3JzuCRGHvjA5oPb4l+57g0x+hqXaT7InvPIwb2wVWt65KY4xhs8v/i3AijnLm/b5KwPIHHOOsunvOw5uJDdhhIxIAZyzgAfsNYbPUelxyl7wbjPVQLZtZAn4fiF8huwZZv9uGwWDiKlJYlHILFP/i3+h9UdD98ZR7NLWxDwIhCWv1rp34atTs1OquIXA3lnYAgCqHWRB92/QQIkXOTBz1I802ErL4OZfC+RfEzEssrzksT/ihhz0dQ2R0DzgNJ1YP3P7jmJGBADOWbA+onWSQnFzmbwZlslkK0z7wLWG3VJ/3pPZbUu7JwA3AlYp4+WfIv7//6eYs+7mVMRgE+uj8s7IfJfDDQzA39H8JYbAvWTEg5W8zkQ7qykHI+YDx/YlrIp12VFIo4mW9r8AvAXwOfbZbnvPrZvhn+S/zBwO/754JQ2ZgN9AIkYEAM5ZGAyfLbcDL6fcMw+VwlcBN+3Sdj/oNkdgYSWcinXXQZbewbN2JCuHXQPA64FfE49K48l6vY7hriKpsoWnAlAVC4r9Z6FLbbQScSAGMgRA+y7r7yYw/7eL+F4WyC/+zz4XYpzFGxl7ebFQXocp1Dy0fr/AthKWrg4j9Vvn/psOYoi3aF0KPAdgCsQHgJwPETeZR8EsBzwxXEa51jey0D+i4FUGTgSuVtuAJw9wH7qpIUD+Hw+ILO0SqDvCg6nwqVRwTkF+VrOLd+6s0KepJw5wG6DxVXi4IPzEeBsIIkBsMgmFvkZrPrimZwMisVLGRUDYiAWBjh/33ID4PoBaUlRVwnkuARLmZTr8q13y5QK6E8e4yiPKer2yBA8fBZp5wT0n5XgJwG2EGwK5Elaw9kngKicVupNhK0itI7kqQzlqxiIzADfYiov4jC/054GxPzD+Fsv7VjYSqM1o7zw+LD2OcixfLW/8nzi3mYrxhSgHt9JH/tJwKD3QLpqb/1B/R0N/R8DHLCaB+kDJ9k6EjS+Ruk4wFAiBsRAxhloCf+CvuXUuujPSDlGPrD54K7lX9j9N6QYD5vpR3mM5V7Y4oM4DdkWmYblPs70nJ3QIwARbZGGsyV8+cIWMvaN7whkWb4I53zFTDunZTlY+SYGxIBzW4ME60W/UwaI3As++BzMxK6FNITjEKzlUdKfBlscSJiWnIOMS75E+b8S+lwA6bsAlyTm7yh2SjpBH0gnGPMp5VftPysWvwAGAGlVzJB1TfHZmsZWrP5VcuqJfUcBPNf/DLDCOwH4CFi6CtweB7Alhd1I5wFHA9SViAEx4ImBr8JOtRtV0H0LoZ/G4LJq4V9kjKU8Zg4uTPrhyYedz0oMB3emKXci83JOw26/XuE8B+R9HRgBhOWJ50ZQuQcJw/oaJT37yq8EBgOtgCxIJzjxNhAlnmo6L8EWW1R2Bf4XeAuoli7ovpXQfwX4FUCbEjEgBgwMXAXdoBdftXQcPJQVYUXkeaCan1H23QdbSb2l+e7GuD7lQuEDzdqn/Ns6MbAp/1TgfmAJUKt838exY4AwMhWJa9mLaz/z5LoJBwBpV6h3hg/1OA3LAd/mw+oETc9KIgde8vqRiAExEJIB6wPz1yHzizs5B12x6THoDaRROo7GT0I47qCRL0GPs5mZb3Jpym7IPKi/tdIF7YZZF3l9Gfgd8CDwL4CVBzYztwHCClu1avmUxH4+MP8IHA60A9IQPlSTiNVXHjPh7zCgCyARA2IgAAO8ubDPzXIRHhcgn6STcF62JaZyXVYmtow5AD7oyvO0bLNpnF0JacsP4IA1jrRu5hw7YfHdp+5c+PIX4FggyUodW75YkfIZSxK2WHYnAUm13CEriRjIJwN7wm3rRdk3g6Hz4mfzvTW2kj4HKcXVLNsLtjneoJSX9T8HVmVBHoATlljYMpWWsBXB4ntcumyZ+AfAQYps9YhbeG6m0R3ig7+R8L1f3ATJvhjIMwPnwnnLxcbadlalJxybAljiK9eN48HKiso9Hn0cDVtxVVRgOrCw2X0+UM5f2O1fBM7Nf8JTjL6HjTVKerb0cPzNNwE+qOOSz8EwB95F8TFtnTnwm1MbJWJADFRhgNNrLBfpvVVsZmlX1pvWOb7Awn+5bhJdFUHLdpCHuPjgSUs6IONxQDm/Wd5mZWAE8HWAMyV8y+UwmOX4G/l2GfxXl4Dvs0L2cs8AB4s1unjqHT8/Bwz4HFw3FvH6Gm28FWzxoV2P3zDHWJnIivwMjoTxvTItR6B3TDmYfZG/z5HwlTHG9Ztv608B3wU2BXwIp/G9CMTlcxJ2b4b/WWgd81EesiEGzAx0gwXeLCwX30FmL+I3wAc2H9yWOMt1WaGwCm9EHFdQbteyzZaYLL3hsP/VEs/j0M+CsAXJ2pVh4cGH7guIgcsf9zcS6rvC6iO2sDbuBgeqBBhPBKkXgwE+vMNeQOXpWXlgJSIPkrVVAi8CaeVcWrY5gDDOPuCw5cs3d+ub87CwmcaYfnPY5sC7FYClnLKg+zpi4FiWnYAociqUshCHxYfhiCFLleUo5SAdMWBm4HxYsFxI75g9SNZAVh66visjRyZLY8Pc2HdvOa+oO6hhLskn6IMsvwc8DVhbzqz8+NBnq9gvgT2AMA9Etij4yD9NG2kOMAV9EjGQPgPWaXK3pB9CKA9aI/WzgK8bD6e5hblx0lm+HY8BfPlwPY1mTPhQscTHcRHsc86y9IBzQwE2KVvX0bBw5Ut3GuLgm/FhQL0m8oNxvAiVH/LGRaIkYqApGeCDi03HlhsIpx/lTTaDw/MAS9zlumeFJOBGj3nzDc7XgMSQYdRNPtoY47/qWs/eQXaDlSoD1q6P8nMrre0ZiKdUGShfRXFD7LfeM9KKqVq+sxBPX0AiBpqOAZ741S6KMPv2zClrZ3uIvcQT31aDrhKY9SmJPoqzK4xY+8q5gmBepQscZ2XgTmARUDpP8vqfSxLfBBwBPArkNY5afj+GmMK24kFFIgbyzcCX4H6tiyLIfjZ7ts8pBbzgfS++U/6mVI0WLko0FQjCbZA0F1TLJAP72KwaxP96aXbNQBw+XOD1wSZ1vk3PAerFrGPp8XMCykaSIAOqcSVIdo2sfo3959Y4FmQ3m3nzfKNeH/6/AnQPEmyANBxg+D810vF8vxc4qMbxsLu5RO5AYFlYxQTS/w55sIUlqsyGIsuErQhFknYI5kCAFSRWCthS0PTSum1713OL7V23vlu5zr16u/brdndrtevwCS/LFi90i2bPcHOnTHIzx73ppo15xS1fsjgOzlgxZyseK2mSBBhQBSABkhtk8QSOczR6VLkaimH7v6PmFZfe52H4Dk/G+cAaBHABlkrhA5EPRh/CteB3Bt72YSwGG2/AZn+D3X9CN2uzGgzhVFXlILshACsDjJWtQ00lHbut5/rtc7Bbf7vdXau1GjWe/YeaFcuWug9efdaNG3m/WzCTz2yvch6sxbHUt1cni2JMFYB0S5I3INZ22xvcOAm6fzToZ0X1BjhysidnxsHOjgAHGZaEi6ewteQ/rzWlvdH/szJxVXT1WDXZqvI+YLm+z4H+b2P1MlvGW8GdvYGjAVZINwIKK3zYbzHkSNdnz8+6Fi1bRorz4xUr3PinH3JjRtzpVi731gg2E870AeZHckpKoRiw3CBCZaTEVRngGyQfShbZBsp828u7rI0AXgL6egrkRtj52ipbrGg9Deyy6rf13/0wcAjA/uIsylfg1C1Gx7aF/utGG3lV531xAMCWAVYIfJ2TMJW+8K1/5y+d7dbuuaEXZ2ZPGudG//l3bsl8vst4ke/ACrtGJTEzoApAzAQ3MH8GjrMJP6rMhWIXYGVUAxnTY1fIYwDfxnwIb+BcOY7jAn7iwyBscGrWdsAUT/biMGNtTWFsGwBZreDEwVk9m2xNYkWA59PW9RJm/Vjn9Td2uw/9tmvTkfVtf7J47iw36uYr3Lypk30YfQ1GeI1JYmYgWttPzE41kfndjbFyEFpRHv6k4kngUm54kutghzfuH3qyRzOnAVl++NPHIfxjkH9DVw///xLIlqn/AdjaxnEVPwVeAHIlfPOP4+FPEtp17uJ2O/6brm2ndXxwwtannXwYko36DKgCUJ+fuI9aKwDPxu1gCvZ/hjxZsfEhHMV+O+CrRYHdCmxRyLKwubqP0cERRv0iq7+F4H4O7AKQ6+8B7F7KdEWcff5s9vf95o+4P5V263T9JI+WrVt/us+wwenRkpgZUAUgZoLrmGcbHN8mLPKcRTmjusvg1wnAwoz5Nw7+fCtjPlVzZ0i1nSH3qQIQjLDxSPa/AKeCbgx8A2DryQogU8IBf776/OsF1qV3P9dvEIfHmOWzZgsy0JABVQAaUhRbgl1h2cp/ESsAJJxvWd/nRkaEN3RWSuZlxJ96blgrABNgnJUdSTgG3kfy3wHkn7MwTgX+BSwFUhU2/XO0f1LSd+CBProCtoe/bMGTxMiA9QEUo2uFN21t/udomw8KzNJViI2j7bMgHJdQbV2BLPhW7gMH9VorAHr7L2c02vZ0qPHjUAcB6wFDgTuBRUDiwnn+Uaf6RXG2VZu2bvN9D4uiWq7DZ9Og8h3a9s+AKgD+OQ1qcUDQhDXSFbH/vzxUDkL7KjC1fGcK2xzsdUEK+UbJkoPU+MCxyCMWZemuwcBs7LkZ4NoC3YDDV/3mDJ7YhSv8cZGfpGXDHQe61m3bWbPl+SyJkQFVAGIkt4Hp3Rocb3R4VKMEBTg+DTGcmWIcC5H3V4DUm3EDcjAkYLpayVjpYh+2JB4G2AJwN8AWAVbUWBm4CfgIiEW4vG/QFf58OsBWgB6bb281yWWBJTEyoApAjOTWMb0BjllXGitq/38lbRx1f2PlzoR+c4Q3xyPkRawVgDcR6Id5CTbnfi6G/6wMfBXoBRwIXAt4bfHi2v5piYe8t0jL92bJVxWAdEp6D2O2K6E/2mgjT+rnwNl3Enb4QeR3dcJ5WrLjVEdrn+kIiwPSjcwAZ77wfDsD4MvBPsAvgHcBk/DDPmlJ5/XMeWsQYMyFpwpAzATXMG9t/uebWiJ9iDX8T3r3AmR4ErAioYxnIJ8TATaJ50V2hqNcFdIiqgBY2POjy8r9E8APAb4BsxsqsrTv0iOyrlWxQ1fz85tTpSUxMqAKQIzk1jE9oM6xIIeeCZKoYGmeRDyXJhTTWchnSkJ5+crmM0ZDrFw9ZrQhdb8MsALa1mLSw0C8yNm3btshsu4qRVUArAw20FcFoAFBMRwm57sY7TbDAMBqFA3DzrjHPtyAPP5WLfOM7xti9O9F6Mc2GM3oWzOrs0WgWUXPp5hLXgTHTHAV81thX+cq+8PsivshGMaXJNMuR2Zsmjc1i9ZxeByOnVvneFYP8S1xL6Nz/zbqSz0eBtj9FVmWL+FYw3Rk+RLzZbooHc+bJ1dVAJIv692NWfKieM1oI8/qb8H578UQAJvAhwLzYrAdt0kOKrW2t46I20nZj8SAqQKw8KPpkTL1obTwIw6lMUker0VTwEkrqwKQNOPOWSsAL8BljhpuZrkawd/vmQCOL+A4gzzKEKPTS6E/0mhD6vEw8L7F7LypkyzqJt25U8x5m2I3Od8kyqoAJF/Q1gpAszb/J19S+cnRWgHgOWV608wPVbnzdILF45nj3rSom3RnjnvDpA9lcw3C6kDR9VUBSLaE2yO77Y1ZqgLwn9UBDzLyWKnOaVfWfvRKm0n87oRMrJXKR5JwVHmEZoDTADcMrVWmMG3MK27FMjbwJCsrli5x09551Zrp61YD0q/PgCoA9fnxfXRHGFzLaLTZKwAcRHmZkcNq6q2wcziQt6lHe8PnNtUCCrFP/f8hyEog6SDk8U+Ar++mSikHAX7w6rMJuLx6Fu+/8oxjJcAoLxv1pd6AAVUAGhDk+bD1TY0jesZ59ilP5lh5uhnoEJPTfWH3yphsx2V2iNHwQugn/4QwOl1A9daI6YvAKIDrMRwOeLk/jxt5v/t4Bce4JiMrVyx3zNMoXAPhKaMNqTdgwMsJ1iAPHf4vAwP+uxlpizeHZpbzEfyuMRPAFQc/H3MePs1bKwBcdc78quYzoCazxSnB5wJc9vcvgPfze8HMqW780w/BdDIy/skH3MJZfFcxydvQnmKyIOWGDKgC0JAirwmsFYBmflMbiJJgP30Sch0yWT+JjIx5dIX+TkYbav43EhhRvRf0hgETgF8DmwCxyZgRd7rZk+JvPJw18V33zqN3+YjDixEfjhTZhioAyZVuN2S1qTG7Zu3/Z788m/7ZT5+EcBFzrgjYIonMDHnsC13rNawKgKEAIqjymw23ABMBtmh1AWKXlcuXudF//p1bPHdWbHktmvORe+Evv3crl3O9LrPcYbYgAw0ZsN48GmagBJ8ywP5/ywOFfWLN2gVwBWLv+ymTyWxwlsFZyWQVOZchkTX/ozgb/14w2pB6YwZ43R8CcLbFaOArgHUwMEyEkyXz57hRN18RSyVgMR7+z8P2kvlzwzlVPfWb2N2sLzvVGYlpryoAMRFbxax1AOBY2JxZxW7Rd7E//uSUgvwl8uWsg6yKtQLwGAJLbnRYVlmMz692MH0qwOls9wDW8oIJm8ybOtk9ec2FbtYk3k78CJv9n7z2Qjdv2vt+DDrHLji+8EhiZsDyRhqza4Uzfy8iOtgQ1Z+gyzeHZhL2k3IyMZvk0xK+se0JLEvLgRr5cowC77iWa/ib0P9NDfvaHZ0Bnq9sPTob6BndTHyaLVu3dv0GHeL6DjzQtWoT7YODHO3PAX/s8/fU7M+AOXqwH6BlgMlGzMKpJ5JkGLC2ADRbkxgfbDcCaT78eWbsArCv9qf8kSHh26Tl4c9Q1P/vt0C5cM+3gaFAe7+m/VrjA/udEf90E5971G2+72Fuwx0HBq4IcH4/5/mPG3kfRvub1/uvDOwS7NDDv5KVmH5bbyAxuVU4s30RkbXNjaPgny4cM7UD4hvU72sfTvQIm8kHA08mmmv9zG7A4ZPrJ6l7dCqOshVBTa11aQp0cBBSfQc4FGgZSCNjidgK0HOLHVy3Tbdyndfv7Tp06e5at+vwiZfLFy/85EE/98OJbub4t9wnqwvaF/mpxsAk7GQlanG1g9onBvLKwHFwnDfaqFgKXfYnNouw330BEJWvOPRYgeNshKzIeDhiiZNdSpLoDLD1lNc1B+ZaykG6/+Xva9GLQ5piILsMcJ6v5UJ/PruhefdsLVjM6k2VXRJZELYoWc4n6p6ShUBy6ENn+MyFeyYA1jKQ/n85fAB8qkUaJEiKxwCbji0X+++KR0nNiH5u5KqcZw4oOhrgxOTy/ZbtY2ErbTkVDlhioC4rEZLgDHBA6jDgI8DKvfRX53AaOGV3lEQMFI4BvtEuBCwX/YmFY6V6QBzn4PNhfcyqbC7Cfwv/5bqsVKR9s/qzMZ4J0JcEY4Af8BoOsBuu/DzQth8+VoLXwwGJGCgkA1z5y3qz2LqQzKweFPvX2c9u5aqkz0FyJWEljN0opWPW//fBVlrNlcx3ijGWcm5gSlLBADk+BBgBWM8V3/or4NNdwGCAI+Z920/a3sWIQSIGCsvAmYjMclFxtbZcjiwOWaLsX7fwVK47DrYqB+xthn2cXlSezrJ9NmylIdsiU4vf1G229SSCllNbJBwKvAZYOfatz5HxbIkofxlgRcXndePb50b26HtaFWlkLRED8TNgvUAfjt/F1HPgan+NbhZBj7MLgV0J1YQP7aB2GqXjLAXOVkhazkGGjXyrd3wl9NPuwkias0b59UCC8wBOjazHXRrH6NP5AH2sJmzdYotAGr5Z8rwVPjfDi021MtO+JmLA+jZR9CYyDq5iv7rlZlKue2Gdc4tvG2y+L09v2Wa3Am/AScqdyMzi8xtJOpvxvLaEf9cA1jE6lvKopcv18E8Fgkz/5Tn4R6CWraztvxW+0meJGCg0A2yGZp+d5QI8ssAM+X4gjwJXjW4sfPv1WeHgAMOkpBUy4ufcLOdTM80oqVUug3Hgn4D12rSUQy3dEfDrUCBs0zjTXwrUspuF/eT7BxFig4pEDOSPgSFw2XrhbZC/sAN77LtJnm90QeQIJLKWS0mfN7XBQTL1kGZ3D36zu6UZhc3NhwFPAaWyy8p/nkN3A3sAVuELw0wgK7GV/JgLn3jdScRA0zDA2m7pAojyn0tjFlXYf85+9Ci8VNM5KyRRN3jMeyxsVQ46DOlOoOTW84kPmq6BcipOIi7c821gAlDtvElzHwf4Xgb0BnzKxjD2OJBmbOV53w9f+voMULbEQB4YuANOll8IYbdvz0OQEXxsDZ1njdyUc/kAbIVtMu0InTEefbgRtuKWB5FBedxhtzlmoVmEY0uGAR8BYXmKO/0Hq3zrgv9xCa+HY4H3gLjjqWWfcQ4FJGKgKRngG3ytiyPIfr7xFVHYbx4k/iBp2J/Pm30U2QtKPhceirN5nVPUrC0mv4xCUs50doa/HGS2FAhy/iSZZhR8Og5gBTgp6YSMLgCSrgixG4KtLxIx0JQMsO/eenPZt4DMDURMPh+6pdX+olLluzIS1xS7wQjQej59LipJGdfj2+7+APvRVwJWnnzqs9vlIYDjD9IUzibg27h1VlIYbngPlIiBpmTgKEQd5mKpTMsbR9Fq0L6b3a/3cGbxbSzt7oggYfwMiSrPkTC/l0Cfb4NFEraKJP1QC8r5Yvg2HChfuCcr3G8DR4YB7BIKGk+UdOyCkIiBpmTgEkQd5aIp6bCmXjS5AQGV4rP+Hwtbvgbe+R6QeHYMBTfSyB31iyI9EMh5QB4X7slaGbD77CDgx8DfgCeAtwA24Vuv0StgQyIGmpKBEYjacgH5eLvNEvGcnmTho1yXrSODPAfHWQTleVi2F8HWth79Y8sJ3+AtPg3z6E9apvoh4ysB61gIC4+1dN+BX98EOgBFEbZg1Io3yH62MEjEQNMx0BIRzwGCXCS10pxeINZ6Ihafb2sc1ORb2I98D1CrPMLuHw1bbTw5yTe0sPlXpvddYfIUWiAzeyPVXwGfY0cq+Yn6m2/MbOpuBRRNeA+Kygv1lgG+WumKxq3iKTAD7GOzXDjU3bEg/MTxYG202l9U6lhRmQJYy66kf1FURyr0LjP6xDdm9pfnSViJPgx4GijxmZX/bIHigMMBQJHFx31s/yITpNjEQDUGTsJOy82KN+zW1QzncN/ZRi7KeSQvW8bMQRZXCWRrQjkPYbe5TkJehG+MbEqfAISNM+70c+ETuyA2BppBWHmfCVh4HdYMRClGMVDOwNX4YbloijJgy/fgujPLSY5x2+dgxXHw0zKboyv0+cZpOZ/ysJ4EB6MNA5Kerx6E1yQW7kHomRS2dAThqFYaToGUiIGmYsD6xvarArDFFoxngVo3hrD7+RbLN5IkpCMyGQOE9bFW+hsNTlunk9Kn3Qz5x63Kri4ONlsK1OIvrf0vwKehQFxdTjCdefkhPLTwPw/6RWnNzHxhycH0GeCCG9ab2RfTD8Pswc9hwXLjVmp3NgAAQABJREFUKNedDlvrmz0KZ2AgkvscdHZsuOw/Tf07bJVzEXZ7FvSzNkCNFbn9AS3cAxIyLhyAGfacq0y/S8ZjlHtiwBsDfHBUXgBhf2/qzZt0DPl+eB6TThjuIg9lWSr7qJWYN4w+/CMl7qply4GIfKPmGhclXrLyfzF8YktEFhfugVupCctsEWApJ47pkIiBpmCAJ7vlYpmWc5Y4iGuskYNy/tgfn5aw6XcUUO6PZfs+2KrsxmDfN78hwBaTvwDPARMB9oVzGpUlP+qeA6QtPeDA+YDPqaBWXkr69Ok8gD5KqjPwBHaX+Iry/7bqZrVXDBSPgT8hpCgXSUmHc9HzLD4H0LEiwQpFmuJ7IOPZCGZ34JfAGKBU7nH997kgEdwNJZyxcQ2wEIgrvqh22bJyKsAuO0l9Bi7F4ag8U+/9+uZ1VAwUhwHr2y/fRvIqWV/tLyqvZ0HRcgNMS5dvt5UtDlE5CKOnhXvCsJX9tIfBRes53Df7YcpDMWBjoBvUVwKWi+VAmwupafdEzj6beC9ILZI1M+ZDlC0zlnJNQ5etUUlJS2TEB8XTQBqx1stzBXzigMMBgCQ8A12gQg7rcdzoGMd+SMRAoRk4GNE1uhDqHWflgZWIvInvB+RoEMD+9ywJKzhTgHrll7VjHEfAMSl8OMcl7KJhHhOArMXfbAv3oAhik9dh2VK+18bmmQyLgYwwcD78sFwk/KBIHoX92pa4y3UXwBb7jrMoHKxX7mteth+F35t5JrQ37F0GzAayxsME+PRtoDMg8cMAH+CWcubMD4kYKDQD9yI6y0Vyaw7Z8T1Ijv3tWZYb4JyljNPSnQO/j/ZA7M6wwfN0KZBWLLXy5YyN44DWgMQvA2zCr8V7kP1s3Wzv1yVZEwPZYmA63AlyMdRKk7f5smym5023Vjxh998HW2kMWkO2gYVN3mOBsLFlIT1vwnxrD9slwDI5FBgBZCGOch/YN/1PYDAgiY+BvjBdznuU7ay27MXHmiw3DQP8VnmUi6JcZ4+csfVzDzGX4mflKenV/qLS7XuhoxIHSf3nGzwrb42kLRLwzU8L9zRiqjmOv48wLeeo726o5mBdUeaCATY9Wi6OJdDP05zkveCvz6Vy2b+eJ7kQzlrKO23du+B/mxqEc1Gc8wGfszp8xUufzgPooyRZBv6K7KKWIxe16pSsu8pNDCTHwK+RVdSLg3rPJ+eqOSffzeDsV8+b8A3aZ/eH5dyJqnsLYijvcmETrRbuyduZmJy/xyOrqOfa48m5qZzEQPIMPIkso14c1Pt98i5HztHnQDj2p7NCkUdhmVnKPAu6XOVtMMAWAfanZ8Gnch847uAQoLyigp+SFBjgdToNKC+foNtsIZWIgUIywLfBhUDQi6FauhNzwozPqXDsQmB/eh6FX2ysVo7aZ+eFMwzYOsEZB5JsMXAS3Al7jvPtP2tfpMwWq/Im1wzwRhX2oqhM3z8HDPSCjxysV+l71N/sR8+jbAGn5wNR45Zede64psBlQG9Akl0GLodrQc/hMUibl8G92WVcnmWagTPgXdALolo63vjCTs1KmhA2wXKaXjX/o+xj/zlbTvImLKfHgCgxS6c6bxPA57mAFu4BCTmRb8DPBUC9c5rLL2uwZk4KVG5GZ+BGqNa7EBodezh61olpnm2MsZwD3jjyOif4TI88lHPSjNusBLJvWAv3gIQcynrweRjwDDAT4Ewmrmb6B2BfQJJxBjSwxk8BcZ70NgZTl0D3xwb9uFW3QgajgQ6eMmJl4ipPtpI0wzdUDlrs7jvTTq1bu8/06uX26tHDbd25s9uoQwe3zlr/aSCZs2yZm7xwoXt9zhz35IwZbsSUKW7+cg6fyKWshNf3AL8C2DcsEQNiICUGVAGwE782TFib8Dmw7k67K7FY4FPoKWBXT9bvh51DAL7x5k04ZuGnPp3u26mTO2vzzd3hG23k2rcKNk5q0YoV7p+TJ7ur3nnHjZ8/36c7cdpaBOPDAU6XZb+wRAyIgZQZUAXAXgD7wQSnKllkQyh/YDEQo+5FsP0TT/ZnwM52wBRP9pI0sw4ymwSwwmeWdnjYf69/f3dyv36udYtol+HylSvd9WPHuv996y23BJWCjAqnjXG6JFt8WP4SMSAGMsKA+t7sBbG70cRk6Gf14b8XfPuhMb5y9dPwI48Pf8bwVcDLw39TvPX/3+67uy3R1G+R1i1bujPQerB7t27ulOeec9MXL7aY8637JgxytPjNQKYc8x2o7ImBvDLAEc0SGwPWCsBztuxj0+bDjk22wdqlG7vBgZL/aJwskyn4is5xC2bZdp113D/22cf88C93ZOeuXd29gwe7rYwVinKbhm22hh0KcEzM/wF6+IMEiRjIIgOqANhLpagVgCtATV87PZ9YGIe/3/JkKw0zuyHTza0Z883/loEDXbe2/MaOX1m/fXt30557uh7t2vk1HMzaMiS7FdgF+AxwL5DHMR5wWyIGmocBVQBsZb0B1DeymXDPGvXjUD8SRk/2ZHgl7JwEzPNkLw0zx1gzbYs+/2t22y2Wh3/Jtw1QCWDXQht0DSQkLNPfAJsBxwMvABIxIAZywkBid4qc8BHWzQFhFSrSc+TW6Ip9af/sBQfYdOtLLoahx30ZS8nOEdZ8v48Bf1uj+T9u2QXdAd/YYou4s3kPGXwbYOX3m8BEQCIGxEDOGFAFwFZg1uZ/DpTK0psx+7rZV9/dRsun2vzC4QWf/srnxnpw2/RE5VQ/jvZPSk7dbLO4ugJYnscBfOO/HJgLSMRAJQP7Y8dNwLvAUmA2wJbOnwG8niQZYUAVAFtBWCsAWRsAeBboOMhGyafaC7HFZmH2D+dZBlqd5zz/qFP9ouTdEYsKnbult4UW2YVzFzAY4FiI24DlgEQMVDLQEzvuAx4ChgKs9XIdETZ98V55HjAOOAeQZIABVQCiFwK5sy6Ok6UKAFf7+2V0OtbQ/B72vL3G3vzt4MC2yMIV/rjIT9Jy9MYbO1YEjPIk9PsDRwCPG21JvdgM8CR/Gmj0AtEBaa4EOMhYkjIDqgBELwA+MG0TuZ3LSgWAtfSbAV6cPuR+GLnah6EM2GBzd2Th8r5BV/iLnEkVxQ4YdDhkPXNr62SY1qp9VfjVrtUYaIVffwH6rra3/g+OHTmpfhIdjZsBVQCiM8wmLYsshPKrFgMedc+HLWtrRskdrvZ2MlCUaWCmznuu7Z+WeMi7T1q+K99cMcBxIXtF8PhS6HSKoCcVTwyoAhCdSGsF4EVknYW+VF64P4xOwxqaeV7tb41gsIOzIiILP+yTlniYdcBprhIx0IiBsxolqHG8J/aze0mSEgOqAEQn3loByELzv1b7a1z+HRsnqZ2id0eTem3DAY70xhcFjaK3MyOBTaDOe8gAQ5yqABjIs6qqAhCNwfZQ2z6a6qdaz366ld4GB+P09ZT9eNjJ82p/tWgwPQTXtg/Eq+VXw/2dV31OuGHC2gnSq73U9klHssXAhnCHYwCiyj5RFaVnZ0AVgGgc7gg1DpyzSNotAPwEsa9BOFzQ6HggS2saWMpGuv9hoCjjOFSe8THQwmiaXWy+XkKMrjSfuioA0crc0uTFHKcDfGNOS3jRXecx80tg6ymP9rJkapHFmXnL0xvmMXfZMovr1FWFzspg8fXfQ4jWiuLexacpmxGqAhCtXPLc/88a+42AVvsLVvbzgyWrnmriggXVDySw10PeWukvgXLKeRYL4f8bxhiizCAwZil1MqAKQLTzIM8VAI7YbbRYR1BWePGz6d/8qhk0wxTScS58ZHljzpzIulbFN+aan98zrT5IvykY4IJRFlELgIU9g64qAOHJ6waVvuHVVtNIq/9fq/2tVgyBfkwKlKpGoidncFmEdOTJ6expMokWATLR1zTK1gpAfzDVtWnYylCgqgCELwz2/1sGvrC/bFT4bM0aXBf2JsA8N2yVJw/i/9Wrtov8701LcI9MmeIWpDAOYOGKFe7fU6daXKfuW1YD0m8KBp4wRsn7qboBjCRGUVcFIDxr/CCKRcZCOY2m1WHI19p1UYqbr7UnAtbBPyV7Wf7PBZsiCx/+d7//fmT9qIr/mDTJR8XDVPmJ6rv0cscAP/DzgdFrVQCMBEZRVwUgPGvWh2gazf+8uH4YPtSaGkVb7a9moDhgXq/hqnfecctXrqyXh9djy5AX8zQKK3cjjTak3jwMWLsBNA4ghXNFFYDwpOetAqDV/sKXcbkGX9/fKN8Rdnv8/Pnu+rFs+ElGrn33XedhBsAr8HZaMh4rlwIwYK0A8FskbQvAQ65CUAUgXHH1RXLr9LmkWwD42U367UPY1FfE1f7qcdMeB80Pwv996y33wkcf1cvHy7HnkcflyMuDPOzBhkw0DwPWcQB8+Fu7V5uHbU+RqgIQjsg9wiVfI/Uy7Hlpjb3x7TgSpk/2ZJ5t2CcBzbQ4zBDEyzEA+wImWYJBeac895z7YNEik516ylMXL3ZnII+lfrob/lwvLx0TAxUM8L5mvTeoG6CC1Lh/qgIQjmFrDfVlZBffE2D1WHrh5/+tvsv062JoP26ykB9lfgXvr8AjwJa+3J6OB/SJTz/tPoyhEsCKxVeeesqxEuBBXoON0R7syETzMMDlwK3jZQY2D13ZiFQVgHDlkJf+f06ruRGwdleU2HkeGxeUfhT4Pz9qcg7A0e/HxhHnW1ic55DHHnOjPXYHsNn/kEcfdW/bF/4phXxXaUP/xUAIBqzjADhYmfcuSUIMWL7ilJCLmclmLXjCr+fxf1T5PRTZChC3nI0Mvukpk4WwcyBg7gf35E9cZnaB4X8CJwPsj4xNFmJq4B2Ypvfxxx+77bt0cWu1jFYP52j/qzHa/zsvvOA8f3NgAILngIU01quIjXcZjp0BrjUy1JALx9v8DZhusCHVEAyothWcrJ2R1NosujVs8O0yTuFqf/Szg6dMWJm4ypOtLJrpDKcuAs4CEq8Q92jXzp275Zbu6I03dh1aBcuei/xwnv/vx4xxkxayfhab3AzLZwCxZhKb9zKcNAP8dPYsgBWBqHI6FK+Lqiy9cAyoAhCcL94Irw6efI2Uc7CHy11yMF1cwtaJpwBOqfEh98PIIUBRF/xhM/8VAPv8U5WOrVu7Ieut5wb26OG2WWcd17tDB7fOWv9pbJqDr/rxQf/a7NnuaSwtPAIr/CW4uiCnAx4NvJsqQco8Lwywu5CtaVFlOBS5yJhEDGSKgT/AGz4Io+KhBKL5ucG/yrjYDLd+Aj6nkUVfZHofUBmzflfnZC64YiVAIgYaMcAKteU6Sm7BjEaR6LgYKGPgdWxbTmw+nOMUjqBdDlh8LNc9Jk5nU7LNV2qOjZgHlMeq7cZ8sOWKY2AszbtQlxScAbaqWa+njQrOkcLLGQNcTY/TXCwn9hExxtwRtscY/SuP7foYfU3L9D7ImNPbyuPUdng+HgWHnGIqEQPVGOC5Yb2uWImQiIHMMDAEnlhP6jj7mTnlz+pfSX8cbLHCUxTpgkD45mqtwJX40X/nJoPPPYtygigO7wywGd9ynbAbQSIGMsPAj+CJ5YSeGGMkRxp9K4+LD8lBMfqapGkOcB0KcPpieYza9sMHV7X8ASARA5UM3IQdluuMAwklYiAzDNwBTywn9N9iiqQn7E41+lYe1wUx+Zm02S2Q4cMeeSnnSNurXwu3gGd2QUnEQImB07BhuU44lqlIrZAlXvQ/pwywydNyQn8/hrj5hnuP0a/ymLh2wH/mncXgbEImuZDIMIDr4ZbHpu14+XgDfPcHJGKADHC9E+s1t7+oFANZYGBDDyfzvjEEcrYHv0oX6QLY8rbmfQyxBjF5EBJZ+x5LfIT5/z7y/RJwKxBGr2hpuQDM4YBEDPDlZCZgOceHiUYxkAUGjoITlhOZ/eq+m7O42h8f2ha/ynXPhK28CtcqGA6Ux5PENsv1WoArCVJ40xsGJJF3VvNYifg1VRAkSNxd4MByniaxboqKSQw0ZOAS44n8asMcwiVgM/0oo0/lFyYXxOHDK2/CdXPPAeYA5fEksc1BSrVWW/wCjvFtOAk/wuRBnn6ekG8cf9EDkDQvAxwgGub8rEzLtTpaNy99ijwrDDwCRypPzjC/b/AcyEVGf8p9nw5beZzTzYcvH8LlsSSxzYcoKx2NFu3fBGkeT8G/WhyMhC+bApTNgJeBWml97efMlwGApDkZ2AthW8+lXZqTOkWdFQZawhHrGyZHxPqSZl/tj6PNLwU4Sth6cwmrfzfy7A0EFbaqcBrih0DYvHylZz8sVz7keVwu7fDjesBXPrXsaKpgOevNtd0W4S4ynmM8dyViIDUGfIxm3cmT9xxHMBaodbMNu993y4SnMGua4epgHHAXNk5r+nHI8+CaXjU+wDECPwOsg6LCxMG8zgPWAerJWTi4BAhjO0ra4cijQz1HdKyQDLDlKcr5UtL5ayFZUVC5YeCr8LR0Mkb5z4F6vvqx+MCO4kM1HVYkWKHIg/SFkxynUC2OOPctRZ4XA74eXJ1g61yAU+bi8ptLHbOLIkzZspl+Yow+lWJltwO7HyTNw4B1/NQHzUOVIs0iA1fBqdINLMr/JzwF9XmjH+W+s/mcXQlZlzZw8MfAQqDc/yS2H0ee2wBxCVuFLgP4qV2OnLfExEGmvNHuAUQVDtjjqGuLH0F0OTjy8KhOSi93DBwKj4OcF/XS8AVAIgZSYcA60OzXHrzmID0O1qt3kYQ5dqEHn+I2MQgZvO4x5qD8zECeJwNJzorojvxYwWOTPdcSeA5gC81HAJvn2Y/O7UnAM8CfAZbhYcB6gC9pBUNs8bBWSBpxTfvMh/lJis1AV4RnPZ+GFpsiRZdVBriqHJuBG93Q6h3/ojE4PojuMfpQ7t9o2OI0wqxKFzh2JbACKPc77m3epIYDfBNudjkEBLDCETfnjyKPPM5AgduSEAywW8pyLnGtDYkYSJwBH9NY+hi9Phv6lounXJfjEbY0+hOXemnE/DSP8ZbHXm97DPLcP67AcmqXffUvA/V483FsMvLYM6ccye1gDFyDZJZzhS2BEjGQOAPnIkfLicuHmUWaZbW/LUASF46xcB1Fl2MLhgFtAcmaDGiq4JqcaE94Bk6ASpTrs6TD1rlu4bOVhhiwMfAnqJdOwij/OW88qrSG4rNAlHyr6TwAW0n2aweJm10sw4DFQDWf49w3AnlmtTUErmVKToM3HIsQZ3nQ9i1AR0BSLAY4iM967nC8i0QMJMoAB2JZTtz/MXjLJVsteZfrcgDh+gZf4lAdAqNvAeV+JrH9AfLUoKLwJboLVMYnUF6cItk/vHvSyDgDHMBqub4vzXh8cq9gDLDJiU1PlpP2wIiccIqez5XujonoRxxqrIhwsJ2F1yi6HFR4LdAZkERjgLMVHgCi8B9GZw7yODqai9LKKAO3wa8w50Bl2icyGpfcKigDBxtP2Kj9VmwC5aC0ygsg6m8u95oFaQkn2JTMm3vUWKLqvYg8udiNxM4Ap+4NA1ihiloeQfR4/VwJtAYk+WfgHIQQpNxrpWE3IcekSMRAIgwMQy61TsYg+/kQjyI3QimI/SBpxsFWmBXhovgbRGcnJPI5niFI7EwzH/gBoPnmIMGzHAJ7miromdQCm2MXUtDrtla6vQvMj0LLGAP3GU/YmyPEc6Qxz/ILh29ogyL44FOFrRnsu/PZnVEeY73tu5Fvb5/ByNYaDGyCPaOAeuXg49hk5LHnGrlrR54YYCV8LmA5H1iZl4iB2BngaPnpgOVkZZNXGOmJxFMBS57luheEyTyGtBy1O9FjPOWx1dtmqwe7byTJMKCpgsnwXIRcHkQQ9a7dRsfuKgIJiiH7DPQznqg8kfcIEWaRVvvri7itrSeNbgTVji9Fvuwz5gd3JMkzMBRZLgSqlY3PfbcgD7YsSfLHwPlw2XIusMuJY4kkYiBWBr4M65YTlQ+j9iE8PNuYX7mvaa32x+WF+e3ueR5jKY+r3vZI5LkNIEmXAfbzjgfqlZWPY28gj/7phqrcIzCwP3Ss5a/rPALxUgnHwOXGE/W5ENlthbR8aFsvjJL+mSHy9pV0Hxiyrvdd8j/Mf74RsNKhtwJfJWm30w0mNFXQzmMRLbDlhh+2CnONV6blTCKJGIiVgadgvfLEC/P7dwG94xSnZ415lfvFG2+Sq/11QX5sdo97Slh5jNxeCQwHegCS7DHAc5ADtuI+L3ge8PzjdSTJBwPWr6velI8w5WVeGWBTtrUvk/2hQSSvq/3xBs8Y+a2Dyodz3L/HIE82JUqyz8AhcFFTBbNfTkl6eAUys9wjxibprPJqPgbYj2k5QanLZv1GMhAJfE6PO6ZRhp6ObwE7DwNWjsLqs1I2DNCHe0BCjmQT+DoKCFveYdNPRh6aKpj9E+NYD+fCRtkPUx7mlQH2oYe9+ZSnnw39Rn3S7Avjm2y5nmX7etiKW9ojg2GAPtwTN9PFs6+pgsUr06gR9YKi5V5HXVYiJGIgFgb+AKuWE/ShAF7daMyj3L9xsBX3an9DkMfbHn0u97/e9gfIM2h3CpJKMs4Ay9LavVbvfCkduwX5sJItySYDbMYvlVWU/+xGkIiBWBh4HVajnJQlnYsaeJWn1f7WRywcbFeKLan/HDx2LdAZkBSLgZ0Rzngg7nNJUwWze95wIJ+l/DmQUCIGvDPAN2nryOUj6njVE8emApaTv1z3gjp5WQ6xC4PTbeYA5fklsf0i8tSHe0BCgUVTBQtcuAFC473Fci/h2Km4Wz0DhKEkRWOATd2WE5O6G9QghSPn7/Fgv+TfaNjijAXfshMM+pyaWPK30f/5yFcf7vFdmtm1x+tBUwWzWz5xerY1jDe6HzQ6vn+cDsp2czLwI+OJ+V4d2s422i6/IBbA1pZ18opyiH2mlwKsXZfnlcT23cizNyBpPgYOQciaKthc5c7K33TAcm8Z1lyUKdokGLgDmVhOyr/VcDLrq/0dBr8nGmOPwhsHMOrDPTVOmibavQliHQVEOYfC6ExGHns2Ea9ZDpUf9glTdpVpgwy2znL88i2DDPAGUXmihfn9vSoxtcY+n03qD8Aea9A+pC+M3AeEidFH2qXIkyu46cM9IEHyCQOaKthcJwK7fyz3EnYZ8t4qEQNeGODiEpYTkrqDq3iSxdX+OHaAa+jPA6wxh9XXh3uqnCTa9SkDmir4KRWF3tgL0YW9d1Sm56JtEjHghYGjYKXyBAvzm7MHKkemZnG1v33g52vGWMPwUkrLfl59uAckSBoyoKmCDSnKfQKu6LkIKN0fovzn/UQiBrwwcAmsRDkJSzqvVHjREb+ztNpfF/jDZnfrNMdSvEH/r0Sew4EegEQMBGVAUwWDMpXfdGwNDHofqZbur/kNXZ5njYERxpOxcjneG432yk/4cbBV2boQlD+OFxgK6MM9QRlTuqwwwHNXUwWzUhr+/bC+dH3o3yVZbEYGWiLoOUD5QzfsNhe3KElWVvvbAg49DISNxZqey70OA9jMJxEDVgYOgQFNFbSymD39Q+GS9V7DgcwSMWBiYBtoW0/EHVd5kIXV/vThHtPpIOUMMrAJfHoOsF6njfQ5E0hTBZM5Adgtae2SZOumRAyYGDgJ2o1uDPWOc2EeTklhk2Xaq/0NgQ9vA/X8jeMYm+N0MYIESWwMaKpgbNSmZtg6IPna1DxXxoVh4GpEYnkoPr6KibONdsp9CLva3/rIe7jH/Mt9qbfNGjwvws6ARAwkwQArmuxmqnde+jh2C/LgYF5JfAxcA9OWsno9PtdkuQgMcPT5AcA3gN8DXEGKI/bHAuxXXAJYTkDq/grwvdrfWbAZRFoh0TmAdQxDFA74Va5dgzipNGLAMwMDYG8iEOW8DaPzMvLYzLPvMvdfBk7AZpjyqEy7Evpd/2tOW83OQAcQcATAb0bzQc8TpPKk8f37eOQxymM+XJ2P3QmNhA9fPoR9x9PIHisbrHSw8iERA2kxwMo9K/SNzlfr8VnI4/C0gix4vn09lN9hBedI4TVgoCWO7w2wKTqNN+Fbka/1JlPSnw5bbM6vJ2yWvBRYDpT0kvqvD/fUKxkdS5oBTRVMmnH/+U2CScv9i/dCSRMywEFBZwJszrecQFZdnw/izzcoxy/g+PspxDsOeR7cwDcdFgNpMcA3dL6pW6/lRvpscWDLg8QfA7fBVCPe6x3ngkKSJmKAzfzfAT4A6p0YeTt2Q50yZFPZ/SnEyw/3XAyQc4kYyDID7Kt/CYj7uufYA45BkPhhgN2JljJbDH2tOeKnLDJvhf094wHLCZNFXb5hr12F/dKHe+anEDNr1ttU8Um7xEBWGWCr4PVA3Nf4MuTxg6ySkDO/+FEfa3mxC1hSYAY2QWx3AdYTJYv67ELgh4MqZRB2vA4k7fMM5HkyEGQgIpJJxEDmGGDXIN8M4752hiMPtY7Zip9rqMw1lpUqY7YyyLQ2R/V/ZDxB4r4RWOxfUMF+F/y+EliRcMycMcEbmvo4QYIk9wzsjAjGA5ZrM4juG8ijf+7ZSjeAB43lxJdDScEYYL8OH4R8MAW5EPOYZjRiYzM/hW/cQ4FpQNKx8MuF+wMSMVAkBvRVwXyU5vlw03LP4wtiy3yEKi+DMNAViZ4CLCdF1nUXIL4tV5HBvvbHU4iXK6r9GGgDSMRAERngehU/B+J+kaB95sP8JOEY4MuH9X6t8UrhOM9sas6Df9nDCWE9oeLWZz9le2AYkER/ZWU8I5BvqQKCTYkYKDQDhyC6JLoSH0U+6xWaSf/BdYRJDqysvEeF+X2af7dkMWkG+EB6DwhT8HlMy9X+eEMal0Ks7yNPricgEQPNxsBmCFhTBbNZ6qPgluVeflM2w5JXQRnYCAmb4eHPk/xJwHKyR9HlbIPfAp0BiRhoVgY4ap8PiyjXUBgdtuqxlU8SjAEu3x6G38q0XBBOklMG1oXfzdDsX3nSJvX7RfCrxUtyenHI7VgYGAqrHAMT9zV4C/JgE7ekPgPH4rC1LPgSKckZAxztn8YbsfVky4P+HHB7DqCBSTm7KORuIgzsjlwmAnFfy3y5YfeDpDYDHPtlLQdWIiQ5Y4DN0taCl/6aHN4NXnvn7FyQu2IgaQY0VTBpxmvn9y4OWe7l7EaQhGCgRYi0cSQ9GkZvj8Nwuc1O3Tu7PgP7u4126ue691vfdend3XXotrZr04GND84tXbjELZw5z82aNMPNePcDN/mlcW7CU2+6+TO4QFXuZDw8/jrAgYYSMSAGGjPAFrILgB8Bcd4T+XC7BDgP4EJfktUZ4NgMds1EFa6rws+kSwIyEOfJ3siFTZCAI3LZ/+9d2q/b0W13xB5uh6P3chvusGlo+x9//LF7/6Xx7pV/POVe/eczbtFsTtvPtHAazf8CFwHs25SIATEQjoHDkZwPoVjuSWWuPIztLwPTy/Zp0zlO5bvWQAQHOncB+O0USQAG0qwAcPlGftzHq3Tu1cUNPO1zbucvDf70Dd+aAVsIRv/pMffUdfe7eVNnW83FoT8SRjni+PU4jMumGGgiBvoh1r8DO8Qc8yTYZ5/1szHnkyfzW8NZ6z3ss7DBCpYkAANs+kpDuL7/+T4zbtm6pdv9xP3dF6/7uuszYEvXaq3W3szTVu+d+7ndjh/iWrVu5SaNHus+XrnSm32DoVnQZbPlWQCXEJaIATFgY4DX1B8BDkrbGYhL1oHhrwJLAQ6CljjHD5HxXmaZNcEu0EcBSQAG0qgAdIBfHKDmrZmtW99e7oSbv+N2+sI+rnUbfw/+Sv5ardXK9dlzK7fFkB3c+KfeSLNbgH2JbKpkk+W/Af6WiAEx4IcBNiWzhXIqwDfKuG4qXL9+f6Af8ADAbrxml31AABeEiyosu5ujKjebHk/ApIVN1X18Zdr/wF3cafec79bfZhNfJhvaWX/bTdzp9w5zWx2wU8O0MSR4Ezb3A04CWGOWiAExEA8D18DsIGBSPOY/tXoCtp4GNvt0T/NuWFtD9gB1cVXYClcqSbcAcNj9X4C1fTC547F7u6MuP82t1W4tH+ZC2WjdZi239SG7uQWYKfDBqxNC6UZMvAh6FwPHA2Mj2pCaGBAD4Rh4H8mHAzsAcT6g+f2ArwLvAKzkN7OcbAi+DXTZevOhwUbTqCZdAeAoz+N8sLvLl/d1R/zyJNeiZQsf5iLZYN6boztgPgYGfvjae5FsBFRiMz8HTHJwkqYPBSRNycSAJwZY+b4V4P8hQFw3Hb4gcWBgV4AD2TIx0Ah+JCkcy/RdwPIW/wb0NbgyQKklWQFgdwPf/jlNwyRs9j/y16ek+vAvBdCiBSoB+23vpr45yc0YO6W029f/D2DoFOD7wExfRmVHDIiBSAywefpF4CCgXSQLjZVYuRgADAT+BTTblF6+4HwO2BiIKvOg+Leoys2kx4dyUjIYGfW1Zta1T088/L/mWrZK0vX6XtOXo6443XXHYERPwpr/dUB/4K+ebMqMGBADdgY4gJndAaPspupa2B9HXwD2rJuqmAefMIa1j1G/adSTfIqeYGWVU/COveos17ZTe6sp7/ptOrZ1R//2jE+mCXowfidsnA7M9WBLJsSAGPDLwESY2xcY7tfsGtY2wh52/525xpFi72BLi0X4JtbXYqBZdFsmFCif2EdZ89rz1AMTHe0f1l/ODhhw0mfDqlVLTyNxNTFWy0/7xIAYCMcAm+ZPXAWODYhLOC7gKuAWwDI/Pi7/4rDLCoB1/MPecThWNJtJVQAOAHFc+CKycIW/Qedw2nu2ZfC5R7hOPUyhMkDOkmAToEQMiIFsM8BWgH2BSTG7+RXYfwrYLOZ8smB+Fpx40+jIXkb9plBPqgKwn5VNLu9b+niP1Vac+m07tnMDT+cYFrMcbLYgA2JADCTBwHPIZGeAI/fjlO1hnGMPsv8mZGfBOg5AFYAAZZBUBWBIAF9qJunQpdMna/vXTJCxA7t+eT/HjxEZZZBRX+piQAwkxwAX5WLN/2Lg4xiz5QqqHCP0cyDJWVwxhlTVNLsBLLI1lDmdUlKHgSQqAD2Q/7Z1fGh4aNvDB+Ti7b8UCAcE0mej8ATuZrQhdTEgBpJjgFPYfgIcAcyOMVtOFfwxwGmCvL8WUawtAORIrQANzowkKgBsGmNhRBZ+0jdvssNRnMZrEnK2m8mClMWAGEiDAU4V5HfpX445c44TGg2Y3zZi9jOK+fFQ4jooFsnfg8MSbQTdJCoAW0bw61OVjt06uw227/Pp77xsbLhjX9epe2eru1tZDUhfDIiBVBgYi1z3AG6IOffesM+35R/EnE8a5q2tAKoANCi1zFcA+u7d33G1vbwJfd5kD/Pz21R5yhtn8lcMFIyBxYjnFIDTBRfFGFtr2L4UuAUwDz6K0c+wpq3jANiC2i5sps2UPokKwBYWQjfcsZ9FPVXdjXYy+755qgEoczEgBnwwMBxG9gWSmCrIh+ZmQBHkCWMQXEOBXTGSGgwkUQHgqkyRpXu/9SPrpq3YvZ8pdLrfPe0YlL8YEANeGOBUQX4//AEv1mob2QGHOC7g6NpJcnOEYyjmGb1VN0AdApOoAHSqk3/DQ1z7P6/Stc96VtdVAbAyKH0xkB0G+EGvQ4CfA3FOFeTgo7+tyifPUwU5q+IZwCKqANRhL4kKAFe1iyztOneIrJu2Yvt1zN1xnOJzPMCZFNn7AELaBCt/MZA/BvhQ+ymgqYLBys46DoAVgPwNIgvGjTlV5isAbTvldwxHG7vvbVDCNwNs0uPa45wW8xBwJXAawPWuzbUM2JCIATGQLAOcKsjm+lExZ7s/7L8A5PWrgtZxAFwMiGuqSKow0LrKPu3KLgMcEEHwoi6XD/HjdeCNsv8vYnsBIBEDYiCbDEyEW1zx87fAKTG6uBFsPw6w5eEXMeYTh2l2ASwHLM8qtgLw/iipYMBCaoWpmj/n40jkJRmXLliCZXWTcLOm/5EPLJ3PWUCJiCoGidCsTMSAdwZ4kzgVGAlcA8TV1ceb6KXAdsDpQF5eDujnS4BlND8rANcBkgoGkniyzkWekSsAi2Yv8LGufkXYyfxcNCf1a6xaxYB9kFxlizXiUosBLzD+logBMZAOA8OR7VvA7QAX94lLvgLDXJr9GODduDLxbPcJ2LNUAPb27E9hzCUxBoAtAJHlowlTI+umrZhR3zkqeDOAg5B+BNwCvAa8D7CJ0DRoE/oSMSAGojHAqYI7AxznE6eUxh7k5auCTxnJ6Av9DYw2CqmeRAVgioW5GeNM6paszbozxubKd14gFwIcMMRmQokYEAPJMzADWR4ExD1VcF3kceeqfPhSkGVhC4BV2A0gqWAgiQrAmIo8Q/2c/OLYUOmzlHjyC3lpYVuNNbYOjAA2X22vfogBMZAUA6Wpgochw1kxZsrpcT8GHgHMi5bE6CcHOVsfBKoAVCmgJCoAb1fJN/Cu8U++6T7+OM41MwK7EiohfZ7wDLv0cind4fVwIOr8WeptAxy8CtyOaguqEjHQlAzci6h3BOKeKjgYeTwP7AlkVZ40OqZxAFUITKICYHoKLpg5133wMses5UvYcrFgpnUVy1Rj3gO5h+0j5PiBnwGTAY4r4A2M4PYk4HygEyARA2IgGAMTkYwPaFbI45SNYPzfwJlxZmKwba0AcNyD7j0VBZBEBeBF5PlxRb6hfr78d+sYkFDZeUn8yh3587lK4BwxHFQ4boBrd58HVBtwsyH2DwM484BrokvEgBgIxgC/JHgiwIfzkmAqkVLx4zlXAaxsZG0JVus4gNaIiS81kjIGkqgATEd+r5blGXrz1buecUsXxnneh3aprgLXLnjtbg7ozb3sGjCCTZGO4wb4v5H0RoKHgc0aJdRxMSAGVmPgGvziwkFsTYtTToBxvsFk6Rp9E/7MNAatboAKApOoADBLPhwiC9cCGP2nxyLrJ634/K3/dvS5ALJ+gBh4Dv0N4LiBoMJ1IW4FWgRVqEjHPLcGOEjqQID9pO0AiRgoOgN8s2jGqYJsRbY2q2ogYMXVkVQFgH1LJnnquvsd36yzLksWLHZPXfevrLsZ1L8ggxg+D2O7BDVYlm53bB9Z9jvIZkck+hkwEXgduAsg2exmmg+8A3Bq08UAuy/Y1dAekIiBIjHQrFMFreMA2AXArgDJKgaSqgA8hPzmWlifN3W2e+zKf1pMJKL76OV3uvnT5ySSVwKZcPBeI/lSowR1jh9X51jloW2wg/5wjMGGlQfxm3OZ2WR5BPAj4BaAaxqwEqOKAUiQFIqBFYjmpwDP99kxRsZWOk4VZEW7R4z5BDH9RJBEddJwEOAOdY433aGkKgAcxHK7ld1nbnjQffjae1Yzsel/8OoE9+wfWNcpjNwTIBK+yUeVAQEV+yHdSKBPwPTlyVQxKGdD20Vj4G4EtCvwcsyB7Q/7o4Gg12wc7jwPo4uNhjUOoIxA1u6SksHI6FFrZl379HSn3zvMte2UrZbdxfMWuesOGeY+em+aNUTqXwisBbCfm2++mwJJVdaQ1SfCATfMt1E3AC9Ijh6OIuzTadR3z3OU/Z68ySUhfLMaD7CLgTMWSv/fwjYrshIxkEUGeEO8Bhgas3O8Zs8Fro45n1rm+SJgeYhzvNIXahlvtv1JVgCY17tAXyvJWx2wk/vCNV93LVsl/Uys7vnK5Svdbaf/1r398EvVE4Tb+zaS9wc46KUkvLi5r1QhKP3nAzoOEpj3McAdQCOZhgRRmwanQrdXgww+j+NB/GhgxnxYFQMzhTKQAANnII8rgKiV8qAu3oyEzGthUAVP6S6BnR8abH0A3WpdiAaT+VVNsgJAlnjCeKk57vKlwe7QS050LVokHcLqhc0V/+7+wR/dC7c9vvqB6L++DtXfB1SPo2LAB905wFUBfWDg+wRMW5nsMezYt3Jnxe+/4PcXK/Zl6acqBlkqDflCBnYH+Ka7MX/EKOx24IsCX+ySkkOREbs9LNIPyuMsBoqim/TTk7VSEl9toZjQnO583CB36MUnptYSwDf/e358k8+HP9+IeXIuCE3G6gpRKwa8oL8J8MEcVL6LhJcFTVyR7jv4/euKfZU/J2JH78qdOfitikEOCqnALnZHbH8CPhtzjByAeCLAGTlJSFdkMh1oaciM/g436BdGNekKAIn7NvArXwyyO+Dzl5+a+JgA9vn/41vX+Wr2L9HBh+9vSj9i+F9eMegP+2y6bwOMBR4GngHKux7ws6GsjRR8A+jZMOXqCXgRc9T+3NV3r/GLTYz0uyiiikFRSjL7cbSCiz8DOIo/zns97xlsmj8P4Pkdt7yGDLYxZHIddE836BdGNc6TohZJvJm/DmxaK0HY/RwYeOzvz3Lrb7tJWNVI6Tna//azr/Y14K/kw3vY2BLgIJu8ybFw+DYg6PnEG8YxQJC+fVYU+DZTdFHFoOglnF58hyFrvvGuG7MLfIn4MsBrNk7hYEfLA5zPn23jdDAvtoPesH3H46MfZzWfWrVu5Qac9Fm377lHujYd2652zNcPLvLDef6c6sfmf8/CwW53eraZpDmOG2BzPt866gkfdGzp+H29RGXHRmJ777LfzbapikGzlXg88bJr8e/ADvGY/9TqJGzxheDZT/f43zgBJi1N+HwB4UvFR/5dy5fFtCoAZIkPuyN809Wpxzpu4Omfc7t+eT9vFQGuQMjlfZ+69n43f0ajFutIEd0VBxeRPLEp7Qv1K4BaN5mXcIwP/8eBoPJtJPTWZRQ00xykU8UgB4WUMRfZ+lqEqYKbIg7rIL7DYcM6mDBjxRvenTQrABvDXT4QuoR3u7FG+3U7uu0O38Ntf9SebsMd+4aeLcDR/fyk7yv/eNq99s9n3aI5CxpnGi3FLKjxgcmacxGkJYIYAHDwUalPZgK2uUIS5/OHbTpZFzpjgB6ApDEDqhg05qjZU3A2Fivq8TSV/pfdm7HJvDiOx7e8D4MbGIz+f3tnAm1VVcbxDcgggzxAURERREDDhZIuzXBIDZeZOWThSk3LHFaZrrTMbJktp8pMclyZiRoqDjhras5zUgoqICAyC8j8gPcQ5QH9P/Wyrpd337v37rPPcN/vW+v/zrin3z7vnu/ss/c+Vyqsz3BCj6TTEzRJB8AoHCM9KAXNR6ceXVzf/XZzvYf2d1vvsp3r1qen69itszoOdrA8uE/q1ro1K+rcirmL3dLpCz+78c9+Y6qrX9bcHDifBff9Y+/CrWkOK05ghA7dIwW9ToonXxVHcAyqohojK8Q+immsZA9iIS3UUEHrc2S/C5WaTSt8QKWBCRcdAfNE7Z1MS1QkcyJEVxWpjukc5a6hhV4nIf83zDHgWwmpvvSDZc7egz8thby+LG5r5bQm9yjNfg+iyLd1ul4uzZDelayl0vonnS0dJtHyKAghzYahvSJFUZlZiuMFldnKjpVO4GCd+raUpXrOal5xDEq/LrN8Zhtl/nLJXs2FvFYt/iskSy8K+6oiCZnfXNyWb2vFsAfV70jWjwKLmID1A5go5aBX+9Km++0eMcOWEp29BhgmXSI9ItkcBHazqvZrJi3lwzHQxVaFZjc3e1IPfZ3ZE3YUT9VbKJ5VMeS3kMdKpTlKOkjK/CvJNBVgBwF9TdpJqmabo8LZxWNLLBoC5pXvJuW+kZBb9tM+65SIhSdgT0ozpcnSe3nLqVr/WMLST6C/smj9kaxTckibp8it75N1Cq7UOirgOCnJ8fx2vV8l3SZlcf4WZTtdNlDZmS1trFLNVbl2lrB4CJhjYE2FJ0l/lGgxiP9/ixYDXXgZMvufuV0K/Ru8Vmn8VCrX7MZ/nvSRFDqPpcZvIxIsT8YO8yRgLQHV+DrAnor6erIheDQEcAyS//HMdwzMOTtRMmeNH9FornHfWGz4nt2kS70JVnreaKVhN/VS7DidZC2nlaYVOpy1CNirFMyTgPUJeEUKXWFxxf+SytLdkwnBwxPAMUj+f84cA+vX8bCEYxD+mm8qBRsqGMcN1zr22ndBitmOOvCUFNfvtW86du32KVYY9pdGwHrI/1XaIPlWSJLhr1P+6e0vCBk2HIPk/wdxDJL5B0p6qKC1DMXROTHqe4QNLTwmmSqrrlQNosGMuoJCx1erPH+/uqqC0hQQwDFI/v8Sx6DgogywaUP34h4qaA9NNk9K6N/pkPHbw+s1UmofAFspc1kwawKyJ+mseFQPK69nSQskrOURMMdgN+kr0uC8ZT+tMypBEGIw+/GdJU2SpuQtbZ1RCYJQgdn7bXtnX1NB2HKCPKuT20sHlBMoxee+qrwdJVlLRqosKw5ADtq3tWKOQFp70s9Q3n4tPShhECgkgGNQSCT+bRwDP+ZxDRX0y2X6QpsjerhkIwZSY1lzAAyc/YieIZ0v2YiBNNhiZcKayP4ufZqGDJGHTBHAMUi+unAMSq8Du16tef6U0oNwpgjMkQ6T7ONmqbAsOgA5cNZEZBegOQJN9SDNnR9iaTP6jZTukGhWDEG4ZceJY5B8/eMYFK8DGypo77jttxgrjYA5AcOkVLQEZNkByOG2MuwvnSxZp7uuUkizTwTabFl2039Rsh8IDAJxEsAxiJN242nhGHzOxYYKjpX6NI6JvY0QsNcBB0qJ9wmoBgcgn28HbRwqHfKFhmgZRacrm87Uvpr1b+lFaY2EQSBtBHAMkq+RlugY2FDBMdLw5PFnJgfWMdDuVYm+Mq42B6Cw9u3CHCoNlHaVBkk9pS6S9WTtLLWRVknWhG8e2RxpnmQd+t6Sxku1EgaBrBLAMUi+5qrdMbDf0Uuk30rVfl+J6mqy1yfnRhVZJfFQUZVQIwwEqoMAjkHy9VhtjsGRQnqHZA9YqbCe3du7b+zVw+07uMYN6tvJ9d2+o9u6WzvXqYP5LM7Vr13vlq741M1euMZNnV3n/jt5pXvxrWVu8fLg3/exOQi+Kz1s+UjCcACSoE6aEEg3ARyD5Osn5xhMVlbek3LLKVpPe4fj/srj/dKeUiLWfau27vjDermTjujt9t6t/G5hG3Vr/t97tW7MU/PdvU8vcMtXrQtVDmt13kOaFyqBpuLFAWiKDscgAIF8AjgG+TSSWc+KY2DXyt+kWIcK9tqmgzvvxH7u1KP6uE5bfv6E71tN9R+vd6MemetG3jXLLVxq30eK3KwF4NjIYy0hQhyAEiBxCgQg0CSBdjo6QCqc+dD63ETzK9xk8hz8gsBCLXMtBbnlBO2rT5DQyUr7JskcgmC2RZtW7szjdnKXnDnQdem4RZB01uhVwdV3znR/Hj3DfbrO/LBIzWZZfDzSGEuIDAegBEicAgEIVESAFoOKsEUaKA0tBkGHCg7o08ndedlQt+fArSIFVyyyCdNWuhMvmuBmfBjpYLCZSm93KdbXOzgAxWqZ/RCAQCgCOAahyJYeb9yOQZChgkcftJ0bdfGQYE/9xXCuqm9wp176jnvs5UXFTqlk/y8U6NpKAlYaBgegUnKEgwAEoiaAYxA10fLjC+kY2LBrmzbd6tnbTjumj7vu/MGuTetkbmPrN2x0P79ykrv10cj679nsgP2l4MMPcvCTIZdLnSUEIACB5gnQx6B5RnGc4dvH4Exl0voDeJvd/G+8wFrMkzUbLXDWlRPVSTAyJ8AY3RxXqXAA4iJNOhCAQNQEaDGImmj58ZXaYmD3mkmSdRT1Mmv2v/sPQxN78i/MvLUEHH/h+KheB3yg+G3iOpsjILjhAARHTAIQgEDMBHAMYgbeSHKFjoFNeXtxI+eVtcs6/P3ntmGxv/NvLpPWJ+BrP3o1qo6BByq9V5pLM4rjOABRUCQOCEAgCwRwDLJQS0Xy2HaLVu7VUcNi6+1fJBtFd9vogANOe92ta/B+eL9FiZxeNKEID+AARAiTqCAAgUwSoI9BBqrtVz/s76742aBU5/SC66e4a8bM8s3jSkWwvRR8SCAOgG9VER4CEKhWArQYpKRmbYa/SfceFNnsfqGKtXpNgxs84iW3aJl3R/4jlcd/hcpnLt4wUyblYmcJAQhAILsE7AnMvgZqyjdaDPJpxLBu0/tGNbVvyOzaLITn/qCf+80N9gV5LztYoYM7ALQAeNURgSEAAQhsIkCLwSYU0a306NrOTX/o4Ew4AFbqOn07YMAxz/t+QOhtRTU0OoqNx0QLQONc2AsBCECgXALFWgxwDMolmXf+iOHbZ+bmb9nurI8QjRjey930wJy8UpS9OkQhbPbEpWWHLCMALQBlwOJUCEAAAhESwDEoAeZrtw6r6JO+JUQd7JRxk2rdgae/7hv/YYrgGd9ImgpPC0BTdDgGAQhAIByBYi0G9DH4gvk23dq5vXbtGq4GAsW8z+Aa17N7e7d4uVdnwIHKHg5AoDoiWghAAAJpJGCT5tjnfE1j8zLY4hyDQ/be2rXKYDu15fnAod3d/c/Z7MkVW/Axj7QAVFw3BIQABCAQK4FijkHVvkqwJ+ms2r671+AAZLXyyDcEIACBjBCo2lcJg/p2ykgVbJ7NgX3s44detp1X6BIC0wJQAiROgQAEIJBBAplvMejfO7sOwC47dvS9ZLr4RtBceByA5ghxHAIQgEB1EchMi0FNl7aZJR9B3nEAMlv7ZBwCEIBAtggUazFIrPOhjanPqnXp5P18jQOQ1con3xCAAASqhEDqHIMq4Zp4MbxdlMRLQAYgAAEIQCAJAsUcg/xRCaOUMWtBqMjs4zo2FXAWbXV9g2+2V/tG0Fz41s2dwHEIQAACEIBAGQRyfQzuVJhFZYTb7NTa1d430c3ijGtH7ep1vknhAPgSJDwEIAABCCRGYIlPyjPn1/sETzTsB/PW+KaPA+BLkPAQgAAEIJAYgcU+KU+bnV0H4P25dT5Ft7Af+UbQXHheATRHiOMQgAAEIFApgQWVBrRw4ybX+gRPNOwbE73zPi10AXAAQhMmfghAAAItl8BEn6K/8OZSt3GjTwzJhLU8vzx+mW/iOAC+BAkPAQhAAAKJEXjHJ+UlKz51b07xfpL2yUJFYcdNXuGW1NogCS/DAfDCR2AIQAACEEiSgJcDYBm/84n5Sea/orTHPOmd5w1KeEJFiZcRiFcAZcDiVAhAAAIQKIvAcp09vawQBSff98wCV//x+oK96d2sU17HPuv1GWArnDlO3u8QmqOEA9AcIY5DAAIQgIAPgSd9Ai9ftc6NemSuTxSxhr35wTnO8uxpz3mGLyk4DkBJmDgJAhCAAAQqJPBEheE2BRt51yxnT9ZpN5u58Jq7Z0WRzReiiKS5OHAAmiPEcQhAAAIQ8CHwkgJ7DehfuHStu2KU15sEn/yXHPayW6a7Rcs+Kfn8Iidar8fnixyLdDcOQKQ4iQwCEIAABAoIrNX2QwX7yt68/t5ZbsK0lWWHiyvA+Kkr3Y33zY4iubGKxJgFNxyA4IhJAAIQgECLJ3CLL4F1DRvdiRdNcKv8P7Ljm5XNwlvT/8m/f9s1rI9k0oLRmyUQaAcOQCCwRAsBCEAAApsIvKy1qZu2KlyZ8eEad+ql77j1GyK50VaYiy8Hs5v+Kbr5T5/r9ZYjF+kHWnkttxF62SZ0AsQPAQhAAAIQEAH7/PzhviTen1PvPtJ79iOGbetatfKNzS+8zfh31p8mufv8h/3lMnKhVt7KbYRe4gCEJkz8EIAABCBgBGxs+4+lrWzDxyZMW+XmLPzYHbF/T9e6dTJegLVCnH3VZHfro/N8ipIf9kNt/ESKbbgDDkA+ftYhAAEIQCAUgQZFbAPkvxVFAu9OX+UmfrDaHf71nq59u3jfZq+sa/isP8K9T3t966gQw++04/XCnSG3k3GdQpaIuCEAAQhAIK0E2itjNp5vx6gy2L93R3fX5UPd0EFdo4qyyXist791Rpw5f02T55V5cIbO312Kpfd/Lm+0AORIsIQABCAAgdAErHl7rjQiqoRWaNa92x/70C1buc7tN6RbsNYAm474yn/OcKdf/q5b6v+hn8Lin6wdUwp3ht6mBSA0YeKHAAQgAIFCAg9qx7GFO323t+3R3p13ws7utGP7uM5bRvN8azMQ/kPT+44cM8stXu49yU9jRTQWxzV2IPQ+HIDQhMlFOCsAAANySURBVIkfAhCAAAQKCfTSjvekIO323bdq60YM7+VOOHwHt8/gmrJHC1jvfvuk791PLXD2nn/Fau+5/QvLn9u2jyXtIVkHwNgNByB25CQIAQhAAAIicLx0T2gS29S0cwft1cPtu3uNG7RTZ9dvh46uR9e2rktHG5XonE3iY68PZumd/tTZdW7cpFr38vhlbkn0zfyFRbXJDI6WHis8wDYEIAABCECg2gmMVAHtRtgS9Zdqr1zKBwEIQAACEChGoK0O2CyBLc0BeElltrJjEIAABCAAgRZLYGuVfLLUUpyAiSprtxZb2xQcAhCAAAQgkEdgB63PlKrdCZinMkY2B0IeP1YhAAEIQAACmSXQXzm33vDV6gTMVtkGSBgEIAABCEAAAgUEbHjg21K1OQGTVKbeBWVlEwIQgAAEIACBPAI1Wn9BqhYnwDr8WZkwCEAAAhCAAASaIWDfDLhByrITsEH5v1qit78gYBCAAAQgAIFyCNhEOUulrDkCtcrz98opKOdCAAIQgAAEIPBlAvbu/HEpK07AA8or7/u/XIdsQQACEIAABCom8E2FtO8HpNURsE/6HlFx6QgIAQhAAAIQgEBRAtY34JfSfCktjoCN7T9H6iBhEIAABCAAAQgEJGCOwOnSdCkpR8DSPkNqJ2EQgAAEIAABCMRIoLXS2l+6VloihXYGrHPfaMleR2T+a7qZL4AqAYMABCAAAQhYq8Bw6VDpG9IQyRwEH7OhfO9Iz+dprU+EaQqLA5Cm2iAvEIAABCAQFYHuimhvaaA06Ivldlp2luxjPJ0kszrJnuxXS4uk96Wp0jRpgrRMwiAAAQhAAAIQgAAEIAABCEAAAhCAAAQgAAEIQAACEIAABCAAAQhAAAIQgAAEIAABCEAAAhCAAAQgAAEIQAACEIAABCAAAQhAAAIQgAAEIAABCEAAAhCAAAQgAAEIQAACEIAABCAAAQhAAAIQgAAEIAABCEAAAhCAAAQgAAEIQAACEIAABCAAAQhAAAIQgAAEIAABCEAAAhCAAAQgAAEIQAACEIAABCAAAQhAAAIQgAAEIAABCEAAAhCAAAQgAAEIQAACEIAABCAAAQhAAAIQgAAEIAABCEAAAhCAAAQgAAEIQAACEIAABCAAAQhAAAIQgAAEIAABCEAAAhCAAAQgAAEIQAACEIiZwP8BPCyOKnvbCPQAAAAASUVORK5CYII=;" vertex="1" parent="1">
          <mxGeometry x="678" y="390" width="70" height="70" as="geometry" />
        </mxCell>
        <mxCell id="LyOnRgsCxliph8Pk22Rh-75" value="&lt;font style=&quot;color: rgb(0, 0, 0);&quot;&gt;Machine Learning&lt;/font&gt;" style="text;html=1;align=center;verticalAlign=middle;whiteSpace=wrap;rounded=0;" vertex="1" parent="1">
          <mxGeometry x="667" y="460" width="90" height="30" as="geometry" />
        </mxCell>
      </root>
    </mxGraphModel>
  </diagram>
</mxfile>
